<mxfile host="app.diagrams.net" modified="2024-04-03T12:05:31.322Z" agent="Mozilla/5.0 (Macintosh; Intel Mac OS X 10_15_7) AppleWebKit/537.36 (KHTML, like Gecko) Chrome/123.0.0.0 Safari/537.36" etag="yjgOiBM61fw6LZaC7sKk" version="24.2.1" type="device">
  <diagram name="Page-1" id="86SuVy9WTyQsxM9a-52B">
    <mxGraphModel dx="1793" dy="1021" grid="1" gridSize="10" guides="1" tooltips="1" connect="1" arrows="1" fold="1" page="1" pageScale="1" pageWidth="850" pageHeight="1100" math="0" shadow="0">
      <root>
        <mxCell id="0" />
        <mxCell id="1" parent="0" />
        <mxCell id="U8NHltKQ1rlB9dk0PbJg-134" value="" style="rounded=1;whiteSpace=wrap;html=1;arcSize=11;" parent="1" vertex="1">
          <mxGeometry x="936" y="193" width="210" height="95" as="geometry" />
        </mxCell>
        <mxCell id="U8NHltKQ1rlB9dk0PbJg-118" value="" style="rounded=1;whiteSpace=wrap;html=1;arcSize=11;" parent="1" vertex="1">
          <mxGeometry x="936" y="365.5" width="210" height="95" as="geometry" />
        </mxCell>
        <mxCell id="U8NHltKQ1rlB9dk0PbJg-98" value="" style="rounded=0;whiteSpace=wrap;html=1;strokeColor=none;fillColor=#ead1d1;gradientColor=none;" parent="1" vertex="1">
          <mxGeometry x="10" y="616" width="550" height="347" as="geometry" />
        </mxCell>
        <mxCell id="U8NHltKQ1rlB9dk0PbJg-96" value="" style="rounded=0;whiteSpace=wrap;html=1;strokeColor=none;fillColor=#e0f9fb;gradientColor=none;" parent="1" vertex="1">
          <mxGeometry x="560" y="613" width="496" height="350" as="geometry" />
        </mxCell>
        <mxCell id="U8NHltKQ1rlB9dk0PbJg-87" value="" style="rounded=1;whiteSpace=wrap;html=1;arcSize=11;" parent="1" vertex="1">
          <mxGeometry x="25.5" y="483" width="830" height="95" as="geometry" />
        </mxCell>
        <mxCell id="U8NHltKQ1rlB9dk0PbJg-25" value="" style="endArrow=classic;html=1;rounded=0;exitX=1;exitY=0.5;exitDx=0;exitDy=0;entryX=0;entryY=0.5;entryDx=0;entryDy=0;dashed=1;" parent="1" source="U8NHltKQ1rlB9dk0PbJg-7" target="U8NHltKQ1rlB9dk0PbJg-19" edge="1">
          <mxGeometry width="50" height="50" relative="1" as="geometry">
            <mxPoint x="768" y="233" as="sourcePoint" />
            <mxPoint x="818" y="183" as="targetPoint" />
            <Array as="points">
              <mxPoint x="668" y="88" />
              <mxPoint x="668" y="28" />
            </Array>
          </mxGeometry>
        </mxCell>
        <mxCell id="U8NHltKQ1rlB9dk0PbJg-32" value="refer" style="edgeLabel;html=1;align=center;verticalAlign=middle;resizable=0;points=[];" parent="U8NHltKQ1rlB9dk0PbJg-25" vertex="1" connectable="0">
          <mxGeometry x="-0.3951" relative="1" as="geometry">
            <mxPoint x="-7" as="offset" />
          </mxGeometry>
        </mxCell>
        <mxCell id="U8NHltKQ1rlB9dk0PbJg-3" value="" style="endArrow=none;dashed=1;html=1;rounded=0;strokeColor=#6666FF;strokeWidth=3;" parent="1" edge="1">
          <mxGeometry width="50" height="50" relative="1" as="geometry">
            <mxPoint x="559" y="963" as="sourcePoint" />
            <mxPoint x="558.5" y="616" as="targetPoint" />
          </mxGeometry>
        </mxCell>
        <mxCell id="U8NHltKQ1rlB9dk0PbJg-4" value="&lt;font style=&quot;font-size: 18px;&quot;&gt;HUB&lt;/font&gt;" style="text;html=1;align=center;verticalAlign=middle;resizable=0;points=[];autosize=1;strokeColor=none;fillColor=none;" parent="1" vertex="1">
          <mxGeometry x="530" y="578" width="60" height="40" as="geometry" />
        </mxCell>
        <mxCell id="U8NHltKQ1rlB9dk0PbJg-5" value="&lt;font style=&quot;font-size: 18px;&quot;&gt;DR1&lt;/font&gt;" style="text;html=1;align=center;verticalAlign=middle;resizable=0;points=[];autosize=1;strokeColor=none;fillColor=none;" parent="1" vertex="1">
          <mxGeometry x="498.5" y="613" width="60" height="40" as="geometry" />
        </mxCell>
        <mxCell id="U8NHltKQ1rlB9dk0PbJg-6" value="&lt;font style=&quot;font-size: 18px;&quot;&gt;DR2&lt;/font&gt;" style="text;html=1;align=center;verticalAlign=middle;resizable=0;points=[];autosize=1;strokeColor=none;fillColor=none;" parent="1" vertex="1">
          <mxGeometry x="565" y="613" width="60" height="40" as="geometry" />
        </mxCell>
        <mxCell id="U8NHltKQ1rlB9dk0PbJg-13" value="DRCluster: dr2" style="swimlane;fontStyle=0;childLayout=stackLayout;horizontal=1;startSize=30;horizontalStack=0;resizeParent=1;resizeParentMax=0;resizeLast=0;collapsible=1;marginBottom=0;whiteSpace=wrap;html=1;" parent="1" vertex="1" collapsed="1">
          <mxGeometry x="160" y="338" width="120" height="30" as="geometry">
            <mxRectangle x="660" y="345" width="380" height="500" as="alternateBounds" />
          </mxGeometry>
        </mxCell>
        <mxCell id="U8NHltKQ1rlB9dk0PbJg-14" value="&lt;div&gt;- apiVersion: ramendr.openshift.io/v1alpha1&lt;/div&gt;&lt;div&gt;&amp;nbsp; kind: DRCluster&lt;/div&gt;&lt;div&gt;&amp;nbsp; metadata:&lt;/div&gt;&lt;div&gt;&lt;span style=&quot;background-color: initial;&quot;&gt;&amp;nbsp; &amp;nbsp; finalizers:&lt;/span&gt;&lt;br&gt;&lt;/div&gt;&lt;div&gt;&amp;nbsp; &amp;nbsp; - drclusters.ramendr.openshift.io/ramen&lt;/div&gt;&lt;div&gt;&lt;span style=&quot;background-color: initial;&quot;&gt;&amp;nbsp; &amp;nbsp; labels:&lt;/span&gt;&lt;br&gt;&lt;/div&gt;&lt;div&gt;&amp;nbsp; &amp;nbsp; &amp;nbsp; cluster.open-cluster-management.io/backup: ramen&lt;/div&gt;&lt;div&gt;&amp;nbsp; &amp;nbsp; name: dr2&lt;/div&gt;&lt;div&gt;&lt;span style=&quot;background-color: initial;&quot;&gt;&amp;nbsp; spec:&lt;/span&gt;&lt;br&gt;&lt;/div&gt;&lt;div&gt;&amp;nbsp; &amp;nbsp; region: east&lt;/div&gt;&lt;div&gt;&amp;nbsp; &amp;nbsp; s3ProfileName: minio-on-dr2&lt;/div&gt;&lt;div&gt;&amp;nbsp; status:&lt;/div&gt;&lt;div&gt;&amp;nbsp; &amp;nbsp; conditions:&lt;/div&gt;&lt;div&gt;&amp;nbsp; &amp;nbsp; - lastTransitionTime: &quot;2024-04-03T03:24:17Z&quot;&lt;/div&gt;&lt;div&gt;&amp;nbsp; &amp;nbsp; &amp;nbsp; message: Cluster Clean&lt;/div&gt;&lt;div&gt;&amp;nbsp; &amp;nbsp; &amp;nbsp; observedGeneration: 1&lt;/div&gt;&lt;div&gt;&amp;nbsp; &amp;nbsp; &amp;nbsp; reason: Clean&lt;/div&gt;&lt;div&gt;&amp;nbsp; &amp;nbsp; &amp;nbsp; status: &quot;False&quot;&lt;/div&gt;&lt;div&gt;&amp;nbsp; &amp;nbsp; &amp;nbsp; type: Fenced&lt;/div&gt;&lt;div&gt;&amp;nbsp; &amp;nbsp; - lastTransitionTime: &quot;2024-04-03T03:24:17Z&quot;&lt;/div&gt;&lt;div&gt;&amp;nbsp; &amp;nbsp; &amp;nbsp; message: Cluster Clean&lt;/div&gt;&lt;div&gt;&amp;nbsp; &amp;nbsp; &amp;nbsp; observedGeneration: 1&lt;/div&gt;&lt;div&gt;&amp;nbsp; &amp;nbsp; &amp;nbsp; reason: Clean&lt;/div&gt;&lt;div&gt;&amp;nbsp; &amp;nbsp; &amp;nbsp; status: &quot;True&quot;&lt;/div&gt;&lt;div&gt;&amp;nbsp; &amp;nbsp; &amp;nbsp; type: Clean&lt;/div&gt;&lt;div&gt;&amp;nbsp; &amp;nbsp; - lastTransitionTime: &quot;2024-04-03T03:49:19Z&quot;&lt;/div&gt;&lt;div&gt;&amp;nbsp; &amp;nbsp; &amp;nbsp; message: Validated the cluster&lt;/div&gt;&lt;div&gt;&amp;nbsp; &amp;nbsp; &amp;nbsp; observedGeneration: 1&lt;/div&gt;&lt;div&gt;&amp;nbsp; &amp;nbsp; &amp;nbsp; reason: Succeeded&lt;/div&gt;&lt;div&gt;&amp;nbsp; &amp;nbsp; &amp;nbsp; status: &quot;True&quot;&lt;/div&gt;&lt;div&gt;&amp;nbsp; &amp;nbsp; &amp;nbsp; type: Validated&lt;/div&gt;&lt;div&gt;&amp;nbsp; &amp;nbsp; phase: Available&lt;/div&gt;" style="text;strokeColor=none;fillColor=default;align=left;verticalAlign=middle;spacingLeft=4;spacingRight=4;overflow=hidden;points=[[0,0.5],[1,0.5]];portConstraint=eastwest;rotatable=0;whiteSpace=wrap;html=1;" parent="U8NHltKQ1rlB9dk0PbJg-13" vertex="1">
          <mxGeometry y="30" width="380" height="470" as="geometry" />
        </mxCell>
        <mxCell id="U8NHltKQ1rlB9dk0PbJg-7" value="Configmap: ramen-hub-operator-config" style="swimlane;fontStyle=0;childLayout=stackLayout;horizontal=1;startSize=30;horizontalStack=0;resizeParent=1;resizeParentMax=0;resizeLast=0;collapsible=1;marginBottom=0;whiteSpace=wrap;html=1;" parent="1" vertex="1" collapsed="1">
          <mxGeometry x="308" y="73" width="265" height="30" as="geometry">
            <mxRectangle x="550" y="110" width="390" height="850" as="alternateBounds" />
          </mxGeometry>
        </mxCell>
        <mxCell id="U8NHltKQ1rlB9dk0PbJg-8" value="&lt;div&gt;apiVersion: v1&lt;/div&gt;&lt;div&gt;data:&lt;/div&gt;&lt;div&gt;&amp;nbsp; ramen_manager_config.yaml: |&lt;/div&gt;&lt;div&gt;&amp;nbsp; &amp;nbsp; apiVersion: ramendr.openshift.io/v1alpha1&lt;/div&gt;&lt;div&gt;&amp;nbsp; &amp;nbsp; kind: RamenConfig&lt;/div&gt;&lt;div&gt;&amp;nbsp; &amp;nbsp; health:&lt;/div&gt;&lt;div&gt;&amp;nbsp; &amp;nbsp; &amp;nbsp; healthProbeBindAddress: :8081&lt;/div&gt;&lt;div&gt;&amp;nbsp; &amp;nbsp; metrics:&lt;/div&gt;&lt;div&gt;&amp;nbsp; &amp;nbsp; &amp;nbsp; bindAddress: 127.0.0.1:9289&lt;/div&gt;&lt;div&gt;&amp;nbsp; &amp;nbsp; webhook:&lt;/div&gt;&lt;div&gt;&amp;nbsp; &amp;nbsp; &amp;nbsp; port: 9443&lt;/div&gt;&lt;div&gt;&amp;nbsp; &amp;nbsp; leaderElection:&lt;/div&gt;&lt;div&gt;&amp;nbsp; &amp;nbsp; &amp;nbsp; leaderElect: true&lt;/div&gt;&lt;div&gt;&amp;nbsp; &amp;nbsp; &amp;nbsp; resourceName: hub.ramendr.openshift.io&lt;/div&gt;&lt;div&gt;&amp;nbsp; &amp;nbsp; ramenControllerType: dr-hub&lt;/div&gt;&lt;div&gt;&amp;nbsp; &amp;nbsp; maxConcurrentReconciles: 50&lt;/div&gt;&lt;div&gt;&amp;nbsp; &amp;nbsp; drClusterOperator:&lt;/div&gt;&lt;div&gt;&amp;nbsp; &amp;nbsp; &amp;nbsp; deploymentAutomationEnabled: true&lt;/div&gt;&lt;div&gt;&amp;nbsp; &amp;nbsp; &amp;nbsp; s3SecretDistributionEnabled: true&lt;/div&gt;&lt;div&gt;&amp;nbsp; &amp;nbsp; &amp;nbsp; channelName: alpha&lt;/div&gt;&lt;div&gt;&amp;nbsp; &amp;nbsp; &amp;nbsp; packageName: ramen-dr-cluster-operator&lt;/div&gt;&lt;div&gt;&amp;nbsp; &amp;nbsp; &amp;nbsp; namespaceName: ramen-system&lt;/div&gt;&lt;div&gt;&amp;nbsp; &amp;nbsp; &amp;nbsp; catalogSourceName: ramen-catalog&lt;/div&gt;&lt;div&gt;&amp;nbsp; &amp;nbsp; &amp;nbsp; catalogSourceNamespaceName: ramen-system&lt;/div&gt;&lt;div&gt;&amp;nbsp; &amp;nbsp; &amp;nbsp; clusterServiceVersionName: ramen-dr-cluster-operator.v0.0.1&lt;/div&gt;&lt;div&gt;&amp;nbsp; &amp;nbsp; kubeObjectProtection:&lt;/div&gt;&lt;div&gt;&amp;nbsp; &amp;nbsp; &amp;nbsp; veleroNamespaceName: velero&lt;/div&gt;&lt;div&gt;&amp;nbsp; &amp;nbsp; volSync:&lt;/div&gt;&lt;div&gt;&amp;nbsp; &amp;nbsp; &amp;nbsp; disabled: false&lt;/div&gt;&lt;div&gt;&amp;nbsp; &amp;nbsp; s3StoreProfiles:&lt;/div&gt;&lt;div&gt;&amp;nbsp; &amp;nbsp; - s3ProfileName: minio-on-dr1&lt;/div&gt;&lt;div&gt;&amp;nbsp; &amp;nbsp; &amp;nbsp; s3Bucket: bucket&lt;/div&gt;&lt;div&gt;&amp;nbsp; &amp;nbsp; &amp;nbsp; s3CompatibleEndpoint: http://192.168.122.116:30000&lt;/div&gt;&lt;div&gt;&amp;nbsp; &amp;nbsp; &amp;nbsp; s3Region: us-west-1&lt;/div&gt;&lt;div&gt;&amp;nbsp; &amp;nbsp; &amp;nbsp; s3SecretRef:&lt;/div&gt;&lt;div&gt;&amp;nbsp; &amp;nbsp; &amp;nbsp; &amp;nbsp; name: ramen-s3-secret-dr1&lt;/div&gt;&lt;div&gt;&amp;nbsp; &amp;nbsp; &amp;nbsp; &amp;nbsp; namespace: ramen-system&lt;/div&gt;&lt;div&gt;&amp;nbsp; &amp;nbsp; &amp;nbsp; veleroNamespaceSecretKeyRef:&lt;/div&gt;&lt;div&gt;&amp;nbsp; &amp;nbsp; &amp;nbsp; &amp;nbsp; key: cloud&lt;/div&gt;&lt;div&gt;&amp;nbsp; &amp;nbsp; &amp;nbsp; &amp;nbsp; name: cloud-credentials&lt;/div&gt;&lt;div&gt;&amp;nbsp; &amp;nbsp; - s3ProfileName: minio-on-dr2&lt;/div&gt;&lt;div&gt;&amp;nbsp; &amp;nbsp; &amp;nbsp; s3Bucket: bucket&lt;/div&gt;&lt;div&gt;&amp;nbsp; &amp;nbsp; &amp;nbsp; s3CompatibleEndpoint: http://192.168.122.147:30000&lt;/div&gt;&lt;div&gt;&amp;nbsp; &amp;nbsp; &amp;nbsp; s3Region: us-east-1&lt;/div&gt;&lt;div&gt;&amp;nbsp; &amp;nbsp; &amp;nbsp; s3SecretRef:&lt;/div&gt;&lt;div&gt;&amp;nbsp; &amp;nbsp; &amp;nbsp; &amp;nbsp; name: ramen-s3-secret-dr2&lt;/div&gt;&lt;div&gt;&amp;nbsp; &amp;nbsp; &amp;nbsp; &amp;nbsp; namespace: ramen-system&lt;/div&gt;&lt;div&gt;&amp;nbsp; &amp;nbsp; &amp;nbsp; veleroNamespaceSecretKeyRef:&lt;/div&gt;&lt;div&gt;&amp;nbsp; &amp;nbsp; &amp;nbsp; &amp;nbsp; key: cloud&lt;/div&gt;&lt;div&gt;&amp;nbsp; &amp;nbsp; &amp;nbsp; &amp;nbsp; name: cloud-credentials&lt;/div&gt;&lt;div&gt;kind: ConfigMap&lt;/div&gt;&lt;div&gt;metadata:&amp;nbsp; &amp;nbsp;&amp;nbsp;&lt;/div&gt;&lt;div&gt;&amp;nbsp; labels:&lt;/div&gt;&lt;div&gt;&amp;nbsp; &amp;nbsp; cluster.open-cluster-management.io/backup: resource&lt;/div&gt;&lt;div&gt;&amp;nbsp; name: ramen-hub-operator-config&lt;/div&gt;&lt;div&gt;&amp;nbsp; namespace: ramen-system&lt;/div&gt;" style="text;strokeColor=none;fillColor=default;align=left;verticalAlign=middle;spacingLeft=4;spacingRight=4;overflow=hidden;points=[[0,0.5],[1,0.5]];portConstraint=eastwest;rotatable=0;whiteSpace=wrap;html=1;" parent="U8NHltKQ1rlB9dk0PbJg-7" vertex="1">
          <mxGeometry y="30" width="390" height="820" as="geometry" />
        </mxCell>
        <mxCell id="U8NHltKQ1rlB9dk0PbJg-26" value="" style="endArrow=classic;html=1;rounded=0;entryX=0;entryY=0.5;entryDx=0;entryDy=0;dashed=1;" parent="1" target="U8NHltKQ1rlB9dk0PbJg-23" edge="1">
          <mxGeometry width="50" height="50" relative="1" as="geometry">
            <mxPoint x="668" y="83" as="sourcePoint" />
            <mxPoint x="818" y="183" as="targetPoint" />
            <Array as="points">
              <mxPoint x="668" y="148" />
            </Array>
          </mxGeometry>
        </mxCell>
        <mxCell id="U8NHltKQ1rlB9dk0PbJg-37" value="" style="endArrow=classic;html=1;rounded=0;exitX=1;exitY=0.5;exitDx=0;exitDy=0;entryX=0;entryY=0.5;entryDx=0;entryDy=0;" parent="1" source="U8NHltKQ1rlB9dk0PbJg-33" target="U8NHltKQ1rlB9dk0PbJg-12" edge="1">
          <mxGeometry width="50" height="50" relative="1" as="geometry">
            <mxPoint x="670" y="403" as="sourcePoint" />
            <mxPoint x="720" y="353" as="targetPoint" />
          </mxGeometry>
        </mxCell>
        <mxCell id="U8NHltKQ1rlB9dk0PbJg-39" value="Get DRP and make validation" style="text;html=1;align=center;verticalAlign=middle;resizable=0;points=[];autosize=1;strokeColor=none;fillColor=none;" parent="1" vertex="1">
          <mxGeometry x="185" y="239" width="180" height="30" as="geometry" />
        </mxCell>
        <mxCell id="U8NHltKQ1rlB9dk0PbJg-41" value="" style="endArrow=classic;html=1;rounded=0;exitX=0.5;exitY=1;exitDx=0;exitDy=0;entryX=0;entryY=0.5;entryDx=0;entryDy=0;dashed=1;jumpStyle=arc;" parent="1" source="U8NHltKQ1rlB9dk0PbJg-33" target="U8NHltKQ1rlB9dk0PbJg-13" edge="1">
          <mxGeometry width="50" height="50" relative="1" as="geometry">
            <mxPoint x="670" y="403" as="sourcePoint" />
            <mxPoint x="720" y="353" as="targetPoint" />
            <Array as="points">
              <mxPoint x="115" y="353" />
            </Array>
          </mxGeometry>
        </mxCell>
        <mxCell id="U8NHltKQ1rlB9dk0PbJg-42" value="" style="endArrow=classic;html=1;rounded=0;entryX=0.5;entryY=0;entryDx=0;entryDy=0;dashed=1;" parent="1" target="U8NHltKQ1rlB9dk0PbJg-17" edge="1">
          <mxGeometry width="50" height="50" relative="1" as="geometry">
            <mxPoint x="115" y="353" as="sourcePoint" />
            <mxPoint x="720" y="353" as="targetPoint" />
          </mxGeometry>
        </mxCell>
        <mxCell id="U8NHltKQ1rlB9dk0PbJg-43" value="refer" style="edgeLabel;html=1;align=center;verticalAlign=middle;resizable=0;points=[];" parent="1" vertex="1" connectable="0">
          <mxGeometry x="150" y="313" as="geometry">
            <mxPoint x="-36" y="9" as="offset" />
          </mxGeometry>
        </mxCell>
        <mxCell id="U8NHltKQ1rlB9dk0PbJg-57" value="" style="endArrow=classic;html=1;rounded=0;exitX=0.5;exitY=1;exitDx=0;exitDy=0;entryX=0.5;entryY=0;entryDx=0;entryDy=0;jumpStyle=arc;" parent="1" source="U8NHltKQ1rlB9dk0PbJg-12" target="U8NHltKQ1rlB9dk0PbJg-87" edge="1">
          <mxGeometry width="50" height="50" relative="1" as="geometry">
            <mxPoint x="235" y="443" as="sourcePoint" />
            <mxPoint x="295" y="488" as="targetPoint" />
            <Array as="points">
              <mxPoint x="440" y="403" />
            </Array>
          </mxGeometry>
        </mxCell>
        <mxCell id="U8NHltKQ1rlB9dk0PbJg-59" value="C&lt;span style=&quot;background-color: initial;&quot;&gt;reate/Update policy to propagate &lt;br&gt;s3 secrets&amp;nbsp;&lt;/span&gt;&lt;span style=&quot;background-color: initial;&quot;&gt;to all drclusters&lt;/span&gt;" style="text;html=1;align=left;verticalAlign=middle;resizable=0;points=[];autosize=1;strokeColor=none;fillColor=none;" parent="1" vertex="1">
          <mxGeometry x="463" y="413" width="210" height="40" as="geometry" />
        </mxCell>
        <mxCell id="U8NHltKQ1rlB9dk0PbJg-60" value="s3secret-dr1" style="swimlane;fontStyle=0;childLayout=stackLayout;horizontal=1;startSize=30;horizontalStack=0;resizeParent=1;resizeParentMax=0;resizeLast=0;collapsible=1;marginBottom=0;whiteSpace=wrap;html=1;" parent="1" vertex="1" collapsed="1">
          <mxGeometry x="265" y="672" width="110" height="30" as="geometry">
            <mxRectangle x="900" y="50" width="280" height="200" as="alternateBounds" />
          </mxGeometry>
        </mxCell>
        <mxCell id="U8NHltKQ1rlB9dk0PbJg-61" value="&lt;div&gt;apiVersion: v1&lt;/div&gt;&lt;div&gt;data:&lt;/div&gt;&lt;div&gt;&amp;nbsp; AWS_ACCESS_KEY_ID: bWluaW8=&lt;/div&gt;&lt;div&gt;&amp;nbsp; AWS_SECRET_ACCESS_KEY: bWluaW8xMjM=&lt;/div&gt;&lt;div&gt;kind: Secret&lt;/div&gt;&lt;div&gt;metadata:&lt;/div&gt;&lt;div&gt;&amp;nbsp; finalizers:&lt;/div&gt;&lt;div&gt;&amp;nbsp; - drpolicies.ramendr.openshift.io/policy-protection&lt;/div&gt;&lt;div&gt;&amp;nbsp; name: ramen-s3-secret-dr1&lt;/div&gt;&lt;div&gt;&amp;nbsp; namespace: ramen-system&lt;/div&gt;&lt;div&gt;type: Opaque&lt;/div&gt;" style="text;strokeColor=none;fillColor=default;align=left;verticalAlign=middle;spacingLeft=4;spacingRight=4;overflow=hidden;points=[[0,0.5],[1,0.5]];portConstraint=eastwest;rotatable=0;whiteSpace=wrap;html=1;" parent="U8NHltKQ1rlB9dk0PbJg-60" vertex="1">
          <mxGeometry y="30" width="280" height="170" as="geometry" />
        </mxCell>
        <mxCell id="U8NHltKQ1rlB9dk0PbJg-64" value="s3secret-dr2" style="swimlane;fontStyle=0;childLayout=stackLayout;horizontal=1;startSize=30;horizontalStack=0;resizeParent=1;resizeParentMax=0;resizeLast=0;collapsible=1;marginBottom=0;whiteSpace=wrap;html=1;" parent="1" vertex="1" collapsed="1">
          <mxGeometry x="265" y="762" width="110" height="30" as="geometry">
            <mxRectangle x="95" y="820" width="290" height="200" as="alternateBounds" />
          </mxGeometry>
        </mxCell>
        <mxCell id="U8NHltKQ1rlB9dk0PbJg-65" value="&lt;div&gt;apiVersion: v1&lt;/div&gt;&lt;div&gt;data:&lt;/div&gt;&lt;div&gt;&amp;nbsp; AWS_ACCESS_KEY_ID: bWluaW8=&lt;/div&gt;&lt;div&gt;&amp;nbsp; AWS_SECRET_ACCESS_KEY: bWluaW8xMjM=&lt;/div&gt;&lt;div&gt;kind: Secret&lt;/div&gt;&lt;div&gt;metadata:&lt;/div&gt;&lt;div&gt;&amp;nbsp; finalizers:&lt;/div&gt;&lt;div&gt;&amp;nbsp; - drpolicies.ramendr.openshift.io/policy-protection&lt;/div&gt;&lt;div&gt;&amp;nbsp; name: ramen-s3-secret-dr2&lt;/div&gt;&lt;div&gt;&amp;nbsp; namespace: ramen-system&lt;/div&gt;&lt;div&gt;type: Opaque&lt;/div&gt;" style="text;strokeColor=none;fillColor=default;align=left;verticalAlign=middle;spacingLeft=4;spacingRight=4;overflow=hidden;points=[[0,0.5],[1,0.5]];portConstraint=eastwest;rotatable=0;whiteSpace=wrap;html=1;" parent="U8NHltKQ1rlB9dk0PbJg-64" vertex="1">
          <mxGeometry y="30" width="290" height="170" as="geometry" />
        </mxCell>
        <mxCell id="U8NHltKQ1rlB9dk0PbJg-66" value="s3secret-dr1" style="swimlane;fontStyle=0;childLayout=stackLayout;horizontal=1;startSize=30;horizontalStack=0;resizeParent=1;resizeParentMax=0;resizeLast=0;collapsible=1;marginBottom=0;whiteSpace=wrap;html=1;" parent="1" vertex="1" collapsed="1">
          <mxGeometry x="645" y="672" width="110" height="30" as="geometry">
            <mxRectangle x="645" y="730" width="280" height="200" as="alternateBounds" />
          </mxGeometry>
        </mxCell>
        <mxCell id="U8NHltKQ1rlB9dk0PbJg-67" value="&lt;div&gt;apiVersion: v1&lt;/div&gt;&lt;div&gt;data:&lt;/div&gt;&lt;div&gt;&amp;nbsp; AWS_ACCESS_KEY_ID: bWluaW8=&lt;/div&gt;&lt;div&gt;&amp;nbsp; AWS_SECRET_ACCESS_KEY: bWluaW8xMjM=&lt;/div&gt;&lt;div&gt;kind: Secret&lt;/div&gt;&lt;div&gt;metadata:&lt;/div&gt;&lt;div&gt;&amp;nbsp; finalizers:&lt;/div&gt;&lt;div&gt;&amp;nbsp; - drpolicies.ramendr.openshift.io/policy-protection&lt;/div&gt;&lt;div&gt;&amp;nbsp; name: ramen-s3-secret-dr1&lt;/div&gt;&lt;div&gt;&amp;nbsp; namespace: ramen-system&lt;/div&gt;&lt;div&gt;type: Opaque&lt;/div&gt;" style="text;strokeColor=none;fillColor=default;align=left;verticalAlign=middle;spacingLeft=4;spacingRight=4;overflow=hidden;points=[[0,0.5],[1,0.5]];portConstraint=eastwest;rotatable=0;whiteSpace=wrap;html=1;" parent="U8NHltKQ1rlB9dk0PbJg-66" vertex="1">
          <mxGeometry y="30" width="280" height="170" as="geometry" />
        </mxCell>
        <mxCell id="U8NHltKQ1rlB9dk0PbJg-68" value="s3secret-dr2" style="swimlane;fontStyle=0;childLayout=stackLayout;horizontal=1;startSize=30;horizontalStack=0;resizeParent=1;resizeParentMax=0;resizeLast=0;collapsible=1;marginBottom=0;whiteSpace=wrap;html=1;" parent="1" vertex="1" collapsed="1">
          <mxGeometry x="645" y="762" width="110" height="30" as="geometry">
            <mxRectangle x="645" y="820" width="290" height="200" as="alternateBounds" />
          </mxGeometry>
        </mxCell>
        <mxCell id="U8NHltKQ1rlB9dk0PbJg-69" value="&lt;div&gt;apiVersion: v1&lt;/div&gt;&lt;div&gt;data:&lt;/div&gt;&lt;div&gt;&amp;nbsp; AWS_ACCESS_KEY_ID: bWluaW8=&lt;/div&gt;&lt;div&gt;&amp;nbsp; AWS_SECRET_ACCESS_KEY: bWluaW8xMjM=&lt;/div&gt;&lt;div&gt;kind: Secret&lt;/div&gt;&lt;div&gt;metadata:&lt;/div&gt;&lt;div&gt;&amp;nbsp; finalizers:&lt;/div&gt;&lt;div&gt;&amp;nbsp; - drpolicies.ramendr.openshift.io/policy-protection&lt;/div&gt;&lt;div&gt;&amp;nbsp; name: ramen-s3-secret-dr2&lt;/div&gt;&lt;div&gt;&amp;nbsp; namespace: ramen-system&lt;/div&gt;&lt;div&gt;type: Opaque&lt;/div&gt;" style="text;strokeColor=none;fillColor=default;align=left;verticalAlign=middle;spacingLeft=4;spacingRight=4;overflow=hidden;points=[[0,0.5],[1,0.5]];portConstraint=eastwest;rotatable=0;whiteSpace=wrap;html=1;" parent="U8NHltKQ1rlB9dk0PbJg-68" vertex="1">
          <mxGeometry y="30" width="290" height="170" as="geometry" />
        </mxCell>
        <mxCell id="U8NHltKQ1rlB9dk0PbJg-71" value="" style="endArrow=classic;html=1;rounded=0;entryX=0.955;entryY=0.5;entryDx=0;entryDy=0;entryPerimeter=0;exitX=0.5;exitY=1;exitDx=0;exitDy=0;" parent="1" target="U8NHltKQ1rlB9dk0PbJg-60" edge="1" source="U8NHltKQ1rlB9dk0PbJg-87">
          <mxGeometry width="50" height="50" relative="1" as="geometry">
            <mxPoint x="270" y="583" as="sourcePoint" />
            <mxPoint x="210" y="798" as="targetPoint" />
            <Array as="points">
              <mxPoint x="440" y="687" />
            </Array>
          </mxGeometry>
        </mxCell>
        <mxCell id="U8NHltKQ1rlB9dk0PbJg-72" value="" style="endArrow=classic;html=1;rounded=0;entryX=0;entryY=0.5;entryDx=0;entryDy=0;" parent="1" target="U8NHltKQ1rlB9dk0PbJg-66" edge="1">
          <mxGeometry width="50" height="50" relative="1" as="geometry">
            <mxPoint x="380" y="687" as="sourcePoint" />
            <mxPoint x="540" y="432" as="targetPoint" />
            <Array as="points" />
          </mxGeometry>
        </mxCell>
        <mxCell id="U8NHltKQ1rlB9dk0PbJg-77" value="" style="endArrow=classic;html=1;rounded=0;entryX=0.5;entryY=1;entryDx=0;entryDy=0;exitX=0.5;exitY=0;exitDx=0;exitDy=0;" parent="1" source="U8NHltKQ1rlB9dk0PbJg-12" target="U8NHltKQ1rlB9dk0PbJg-7" edge="1">
          <mxGeometry width="50" height="50" relative="1" as="geometry">
            <mxPoint x="490" y="343" as="sourcePoint" />
            <mxPoint x="540" y="293" as="targetPoint" />
          </mxGeometry>
        </mxCell>
        <mxCell id="U8NHltKQ1rlB9dk0PbJg-78" value="Get s3 secret for each drcluster from configmap" style="text;html=1;align=center;verticalAlign=middle;resizable=0;points=[];autosize=1;strokeColor=none;fillColor=none;" parent="1" vertex="1">
          <mxGeometry x="463" y="163" width="280" height="30" as="geometry" />
        </mxCell>
        <mxCell id="U8NHltKQ1rlB9dk0PbJg-83" value="PlacementBinding dr2 policy" style="swimlane;fontStyle=0;childLayout=stackLayout;horizontal=1;startSize=30;horizontalStack=0;resizeParent=1;resizeParentMax=0;resizeLast=0;collapsible=1;marginBottom=0;whiteSpace=wrap;html=1;" parent="1" vertex="1" collapsed="1">
          <mxGeometry x="558.5" y="538" width="190" height="30" as="geometry">
            <mxRectangle x="600" y="490" width="330" height="250" as="alternateBounds" />
          </mxGeometry>
        </mxCell>
        <mxCell id="U8NHltKQ1rlB9dk0PbJg-84" value="&lt;div&gt;metadata:&lt;/div&gt;&lt;div&gt;&amp;nbsp; creationTimestamp: &quot;2024-04-03T03:24:23Z&quot;&lt;/div&gt;&lt;div&gt;&amp;nbsp; generation: 1&lt;/div&gt;&lt;div&gt;&amp;nbsp; name: plbinding-ramen-s3-secret-dr2&lt;/div&gt;&lt;div&gt;&amp;nbsp; namespace: ramen-system&lt;/div&gt;&lt;div&gt;&amp;nbsp; resourceVersion: &quot;16155&quot;&lt;/div&gt;&lt;div&gt;&amp;nbsp; uid: e08444ab-40be-48ed-8dd1-52997569ea8d&lt;/div&gt;&lt;div&gt;placementRef:&lt;/div&gt;&lt;div&gt;&amp;nbsp; apiGroup: apps.open-cluster-management.io&lt;/div&gt;&lt;div&gt;&amp;nbsp; kind: PlacementRule&lt;/div&gt;&lt;div&gt;&amp;nbsp; name: plrule-ramen-s3-secret-dr2&lt;/div&gt;&lt;div&gt;subjects:&lt;/div&gt;&lt;div&gt;- apiGroup: policy.open-cluster-management.io&lt;/div&gt;&lt;div&gt;&amp;nbsp; kind: Policy&lt;/div&gt;&lt;div&gt;&amp;nbsp; name: ramen-s3-secret-dr2&lt;/div&gt;" style="text;strokeColor=none;fillColor=default;align=left;verticalAlign=middle;spacingLeft=4;spacingRight=4;overflow=hidden;points=[[0,0.5],[1,0.5]];portConstraint=eastwest;rotatable=0;whiteSpace=wrap;html=1;" parent="U8NHltKQ1rlB9dk0PbJg-83" vertex="1">
          <mxGeometry y="30" width="330" height="220" as="geometry" />
        </mxCell>
        <mxCell id="U8NHltKQ1rlB9dk0PbJg-48" value="Policy to sent dr2 s3 profile" style="swimlane;fontStyle=0;childLayout=stackLayout;horizontal=1;startSize=30;horizontalStack=0;resizeParent=1;resizeParentMax=0;resizeLast=0;collapsible=1;marginBottom=0;whiteSpace=wrap;html=1;" parent="1" vertex="1" collapsed="1">
          <mxGeometry x="448.5" y="498" width="190" height="30" as="geometry">
            <mxRectangle x="490" y="450" width="600" height="740" as="alternateBounds" />
          </mxGeometry>
        </mxCell>
        <mxCell id="U8NHltKQ1rlB9dk0PbJg-49" value="&lt;div&gt;apiVersion: policy.open-cluster-management.io/v1&lt;/div&gt;&lt;div&gt;kind: Policy&lt;/div&gt;&lt;div&gt;metadata:&lt;/div&gt;&lt;div&gt;&amp;nbsp; annotations:&lt;/div&gt;&lt;div&gt;&amp;nbsp; &amp;nbsp; policy.open-cluster-management.io/trigger-update: &quot;16153&quot;&lt;/div&gt;&lt;div&gt;&lt;span style=&quot;background-color: initial;&quot;&gt;&amp;nbsp; name: ramen-s3-secret-dr2&lt;/span&gt;&lt;br&gt;&lt;/div&gt;&lt;div&gt;&amp;nbsp; namespace: ramen-system&lt;/div&gt;&lt;div&gt;&lt;span style=&quot;background-color: initial;&quot;&gt;spec:&lt;/span&gt;&lt;br&gt;&lt;/div&gt;&lt;div&gt;&amp;nbsp; disabled: false&lt;/div&gt;&lt;div&gt;&amp;nbsp; policy-templates:&lt;/div&gt;&lt;div&gt;&amp;nbsp; - objectDefinition:&lt;/div&gt;&lt;div&gt;&amp;nbsp; &amp;nbsp; &amp;nbsp; apiVersion: policy.open-cluster-management.io/v1&lt;/div&gt;&lt;div&gt;&amp;nbsp; &amp;nbsp; &amp;nbsp; kind: ConfigurationPolicy&lt;/div&gt;&lt;div&gt;&amp;nbsp; &amp;nbsp; &amp;nbsp; metadata:&lt;/div&gt;&lt;div&gt;&amp;nbsp; &amp;nbsp; &amp;nbsp; &amp;nbsp; creationTimestamp: null&lt;/div&gt;&lt;div&gt;&amp;nbsp; &amp;nbsp; &amp;nbsp; &amp;nbsp; name: cfg-policy-ramen-s3-secret-dr2&lt;/div&gt;&lt;div&gt;&amp;nbsp; &amp;nbsp; &amp;nbsp; spec:&lt;/div&gt;&lt;div&gt;&amp;nbsp; &amp;nbsp; &amp;nbsp; &amp;nbsp; evaluationInterval: {}&lt;/div&gt;&lt;div&gt;&amp;nbsp; &amp;nbsp; &amp;nbsp; &amp;nbsp; namespaceSelector: {}&lt;/div&gt;&lt;div&gt;&amp;nbsp; &amp;nbsp; &amp;nbsp; &amp;nbsp; object-templates:&lt;/div&gt;&lt;div&gt;&amp;nbsp; &amp;nbsp; &amp;nbsp; &amp;nbsp; - complianceType: Musthave&lt;/div&gt;&lt;div&gt;&amp;nbsp; &amp;nbsp; &amp;nbsp; &amp;nbsp; &amp;nbsp; objectDefinition:&lt;/div&gt;&lt;div&gt;&amp;nbsp; &amp;nbsp; &amp;nbsp; &amp;nbsp; &amp;nbsp; &amp;nbsp; apiVersion: v1&lt;/div&gt;&lt;div&gt;&amp;nbsp; &amp;nbsp; &amp;nbsp; &amp;nbsp; &amp;nbsp; &amp;nbsp; data:&lt;/div&gt;&lt;div&gt;&amp;nbsp; &amp;nbsp; &amp;nbsp; &amp;nbsp; &amp;nbsp; &amp;nbsp; &amp;nbsp; AWS_ACCESS_KEY_ID: &#39;{{hub fromSecret &quot;ramen-system&quot; &quot;ramen-s3-secret-dr2&quot;&lt;/div&gt;&lt;div&gt;&amp;nbsp; &amp;nbsp; &amp;nbsp; &amp;nbsp; &amp;nbsp; &amp;nbsp; &amp;nbsp; &amp;nbsp; &quot;AWS_ACCESS_KEY_ID&quot; hub}}&#39;&lt;/div&gt;&lt;div&gt;&amp;nbsp; &amp;nbsp; &amp;nbsp; &amp;nbsp; &amp;nbsp; &amp;nbsp; &amp;nbsp; AWS_SECRET_ACCESS_KEY: &#39;{{hub fromSecret &quot;ramen-system&quot; &quot;ramen-s3-secret-dr2&quot;&lt;/div&gt;&lt;div&gt;&amp;nbsp; &amp;nbsp; &amp;nbsp; &amp;nbsp; &amp;nbsp; &amp;nbsp; &amp;nbsp; &amp;nbsp; &quot;AWS_SECRET_ACCESS_KEY&quot; hub}}&#39;&lt;/div&gt;&lt;div&gt;&amp;nbsp; &amp;nbsp; &amp;nbsp; &amp;nbsp; &amp;nbsp; &amp;nbsp; kind: Secret&lt;/div&gt;&lt;div&gt;&amp;nbsp; &amp;nbsp; &amp;nbsp; &amp;nbsp; &amp;nbsp; &amp;nbsp; metadata:&lt;/div&gt;&lt;div&gt;&amp;nbsp; &amp;nbsp; &amp;nbsp; &amp;nbsp; &amp;nbsp; &amp;nbsp; &amp;nbsp; creationTimestamp: null&lt;/div&gt;&lt;div&gt;&amp;nbsp; &amp;nbsp; &amp;nbsp; &amp;nbsp; &amp;nbsp; &amp;nbsp; &amp;nbsp; name: ramen-s3-secret-dr2&lt;/div&gt;&lt;div&gt;&amp;nbsp; &amp;nbsp; &amp;nbsp; &amp;nbsp; &amp;nbsp; &amp;nbsp; &amp;nbsp; namespace: ramen-system&lt;/div&gt;&lt;div&gt;&amp;nbsp; &amp;nbsp; &amp;nbsp; &amp;nbsp; remediationAction: Enforce&lt;/div&gt;&lt;div&gt;&amp;nbsp; &amp;nbsp; &amp;nbsp; &amp;nbsp; severity: high&lt;/div&gt;&lt;div&gt;&amp;nbsp; &amp;nbsp; &amp;nbsp; status: {}&lt;/div&gt;&lt;div&gt;&amp;nbsp; remediationAction: Enforce&lt;/div&gt;&lt;div&gt;status:&lt;/div&gt;&lt;div&gt;&amp;nbsp; compliant: Compliant&lt;/div&gt;&lt;div&gt;&amp;nbsp; placement:&lt;/div&gt;&lt;div&gt;&amp;nbsp; - placementBinding: plbinding-ramen-s3-secret-dr2&lt;/div&gt;&lt;div&gt;&amp;nbsp; &amp;nbsp; placementRule: plrule-ramen-s3-secret-dr2&lt;/div&gt;&lt;div&gt;&amp;nbsp; status:&lt;/div&gt;&lt;div&gt;&amp;nbsp; - clustername: dr1&lt;/div&gt;&lt;div&gt;&amp;nbsp; &amp;nbsp; clusternamespace: dr1&lt;/div&gt;&lt;div&gt;&amp;nbsp; &amp;nbsp; compliant: Compliant&lt;/div&gt;&lt;div&gt;&amp;nbsp; - clustername: dr2&lt;/div&gt;&lt;div&gt;&amp;nbsp; &amp;nbsp; clusternamespace: dr2&lt;/div&gt;&lt;div&gt;&amp;nbsp; &amp;nbsp; compliant: Compliant&lt;/div&gt;" style="text;strokeColor=none;fillColor=default;align=left;verticalAlign=middle;spacingLeft=4;spacingRight=4;overflow=hidden;points=[[0,0.5],[1,0.5]];portConstraint=eastwest;rotatable=0;whiteSpace=wrap;html=1;" parent="U8NHltKQ1rlB9dk0PbJg-48" vertex="1">
          <mxGeometry y="30" width="600" height="710" as="geometry" />
        </mxCell>
        <mxCell id="U8NHltKQ1rlB9dk0PbJg-81" value="Placement dr2 policy" style="swimlane;fontStyle=0;childLayout=stackLayout;horizontal=1;startSize=30;horizontalStack=0;resizeParent=1;resizeParentMax=0;resizeLast=0;collapsible=1;marginBottom=0;whiteSpace=wrap;html=1;" parent="1" vertex="1" collapsed="1">
          <mxGeometry x="658.5" y="498" width="190" height="30" as="geometry">
            <mxRectangle x="700" y="450" width="330" height="310" as="alternateBounds" />
          </mxGeometry>
        </mxCell>
        <mxCell id="U8NHltKQ1rlB9dk0PbJg-82" value="&lt;div&gt;apiVersion: apps.open-cluster-management.io/v1&lt;/div&gt;&lt;div&gt;kind: PlacementRule&lt;/div&gt;&lt;div&gt;metadata:&lt;/div&gt;&lt;div&gt;&amp;nbsp; creationTimestamp: &quot;2024-04-03T03:24:24Z&quot;&lt;/div&gt;&lt;div&gt;&amp;nbsp; generation: 2&lt;/div&gt;&lt;div&gt;&amp;nbsp; name: plrule-ramen-s3-secret-dr2&lt;/div&gt;&lt;div&gt;&amp;nbsp; namespace: ramen-system&lt;/div&gt;&lt;div&gt;&amp;nbsp; resourceVersion: &quot;16178&quot;&lt;/div&gt;&lt;div&gt;&amp;nbsp; uid: e99b2f27-01c2-4282-9ee1-8e5fdb4f90f8&lt;/div&gt;&lt;div&gt;spec:&lt;/div&gt;&lt;div&gt;&amp;nbsp; clusters:&lt;/div&gt;&lt;div&gt;&amp;nbsp; - name: dr1&lt;/div&gt;&lt;div&gt;&amp;nbsp; - name: dr2&lt;/div&gt;&lt;div&gt;status:&lt;/div&gt;&lt;div&gt;&amp;nbsp; decisions:&lt;/div&gt;&lt;div&gt;&amp;nbsp; - clusterName: dr1&lt;/div&gt;&lt;div&gt;&amp;nbsp; &amp;nbsp; clusterNamespace: dr1&lt;/div&gt;&lt;div&gt;&amp;nbsp; - clusterName: dr2&lt;/div&gt;&lt;div&gt;&amp;nbsp; &amp;nbsp; clusterNamespace: dr2&lt;/div&gt;" style="text;strokeColor=none;fillColor=default;align=left;verticalAlign=middle;spacingLeft=4;spacingRight=4;overflow=hidden;points=[[0,0.5],[1,0.5]];portConstraint=eastwest;rotatable=0;whiteSpace=wrap;html=1;" parent="U8NHltKQ1rlB9dk0PbJg-81" vertex="1">
          <mxGeometry y="30" width="330" height="280" as="geometry" />
        </mxCell>
        <mxCell id="U8NHltKQ1rlB9dk0PbJg-79" value="Placement dr1 policy" style="swimlane;fontStyle=0;childLayout=stackLayout;horizontal=1;startSize=30;horizontalStack=0;resizeParent=1;resizeParentMax=0;resizeLast=0;collapsible=1;marginBottom=0;whiteSpace=wrap;html=1;" parent="1" vertex="1" collapsed="1">
          <mxGeometry x="35.5" y="498" width="190" height="30" as="geometry">
            <mxRectangle x="800" y="450" width="330" height="310" as="alternateBounds" />
          </mxGeometry>
        </mxCell>
        <mxCell id="U8NHltKQ1rlB9dk0PbJg-80" value="&lt;div&gt;apiVersion: apps.open-cluster-management.io/v1&lt;/div&gt;&lt;div&gt;kind: PlacementRule&lt;/div&gt;&lt;div&gt;metadata:&lt;/div&gt;&lt;div&gt;&amp;nbsp; creationTimestamp: &quot;2024-04-03T03:24:23Z&quot;&lt;/div&gt;&lt;div&gt;&amp;nbsp; generation: 2&lt;/div&gt;&lt;div&gt;&amp;nbsp; name: plrule-ramen-s3-secret-dr1&lt;/div&gt;&lt;div&gt;&amp;nbsp; namespace: ramen-system&lt;/div&gt;&lt;div&gt;&amp;nbsp; resourceVersion: &quot;16173&quot;&lt;/div&gt;&lt;div&gt;&amp;nbsp; uid: 3e86e565-424c-42e3-bcd3-79a7f5413930&lt;/div&gt;&lt;div&gt;spec:&lt;/div&gt;&lt;div&gt;&amp;nbsp; clusters:&lt;/div&gt;&lt;div&gt;&amp;nbsp; - name: dr1&lt;/div&gt;&lt;div&gt;&amp;nbsp; - name: dr2&lt;/div&gt;&lt;div&gt;status:&lt;/div&gt;&lt;div&gt;&amp;nbsp; decisions:&lt;/div&gt;&lt;div&gt;&amp;nbsp; - clusterName: dr1&lt;/div&gt;&lt;div&gt;&amp;nbsp; &amp;nbsp; clusterNamespace: dr1&lt;/div&gt;&lt;div&gt;&amp;nbsp; - clusterName: dr2&lt;/div&gt;&lt;div&gt;&amp;nbsp; &amp;nbsp; clusterNamespace: dr2&lt;/div&gt;" style="text;strokeColor=none;fillColor=default;align=left;verticalAlign=middle;spacingLeft=4;spacingRight=4;overflow=hidden;points=[[0,0.5],[1,0.5]];portConstraint=eastwest;rotatable=0;whiteSpace=wrap;html=1;" parent="U8NHltKQ1rlB9dk0PbJg-79" vertex="1">
          <mxGeometry y="30" width="330" height="280" as="geometry" />
        </mxCell>
        <mxCell id="U8NHltKQ1rlB9dk0PbJg-44" value="Policy to sent dr1 s3 profile" style="swimlane;fontStyle=0;childLayout=stackLayout;horizontal=1;startSize=30;horizontalStack=0;resizeParent=1;resizeParentMax=0;resizeLast=0;collapsible=1;marginBottom=0;whiteSpace=wrap;html=1;" parent="1" vertex="1" collapsed="1">
          <mxGeometry x="245.5" y="498" width="190" height="30" as="geometry">
            <mxRectangle x="290" y="490" width="600" height="740" as="alternateBounds" />
          </mxGeometry>
        </mxCell>
        <mxCell id="U8NHltKQ1rlB9dk0PbJg-45" value="&lt;div&gt;apiVersion: policy.open-cluster-management.io/v1&lt;/div&gt;&lt;div&gt;kind: Policy&lt;/div&gt;&lt;div&gt;metadata:&lt;/div&gt;&lt;div&gt;&amp;nbsp; annotations:&lt;/div&gt;&lt;div&gt;&amp;nbsp; &amp;nbsp; policy.open-cluster-management.io/trigger-update: &quot;16148&quot;&lt;/div&gt;&lt;div&gt;&lt;span style=&quot;background-color: initial;&quot;&gt;&amp;nbsp; name: ramen-s3-secret-dr1&lt;/span&gt;&lt;br&gt;&lt;/div&gt;&lt;div&gt;&amp;nbsp; namespace: ramen-system&lt;/div&gt;&lt;div&gt;spec:&lt;/div&gt;&lt;div&gt;&amp;nbsp; disabled: false&lt;/div&gt;&lt;div&gt;&amp;nbsp; policy-templates:&lt;/div&gt;&lt;div&gt;&amp;nbsp; - objectDefinition:&lt;/div&gt;&lt;div&gt;&amp;nbsp; &amp;nbsp; &amp;nbsp; apiVersion: policy.open-cluster-management.io/v1&lt;/div&gt;&lt;div&gt;&amp;nbsp; &amp;nbsp; &amp;nbsp; kind: ConfigurationPolicy&lt;/div&gt;&lt;div&gt;&amp;nbsp; &amp;nbsp; &amp;nbsp; metadata:&lt;/div&gt;&lt;div&gt;&amp;nbsp; &amp;nbsp; &amp;nbsp; &amp;nbsp; creationTimestamp: null&lt;/div&gt;&lt;div&gt;&amp;nbsp; &amp;nbsp; &amp;nbsp; &amp;nbsp; name: cfg-policy-ramen-s3-secret-dr1&lt;/div&gt;&lt;div&gt;&amp;nbsp; &amp;nbsp; &amp;nbsp; spec:&lt;/div&gt;&lt;div&gt;&amp;nbsp; &amp;nbsp; &amp;nbsp; &amp;nbsp; evaluationInterval: {}&lt;/div&gt;&lt;div&gt;&amp;nbsp; &amp;nbsp; &amp;nbsp; &amp;nbsp; namespaceSelector: {}&lt;/div&gt;&lt;div&gt;&amp;nbsp; &amp;nbsp; &amp;nbsp; &amp;nbsp; object-templates:&lt;/div&gt;&lt;div&gt;&amp;nbsp; &amp;nbsp; &amp;nbsp; &amp;nbsp; - complianceType: Musthave&lt;/div&gt;&lt;div&gt;&amp;nbsp; &amp;nbsp; &amp;nbsp; &amp;nbsp; &amp;nbsp; objectDefinition:&lt;/div&gt;&lt;div&gt;&amp;nbsp; &amp;nbsp; &amp;nbsp; &amp;nbsp; &amp;nbsp; &amp;nbsp; apiVersion: v1&lt;/div&gt;&lt;div&gt;&amp;nbsp; &amp;nbsp; &amp;nbsp; &amp;nbsp; &amp;nbsp; &amp;nbsp; data:&lt;/div&gt;&lt;div&gt;&amp;nbsp; &amp;nbsp; &amp;nbsp; &amp;nbsp; &amp;nbsp; &amp;nbsp; &amp;nbsp; AWS_ACCESS_KEY_ID: &#39;{{hub fromSecret &quot;ramen-system&quot; &quot;ramen-s3-secret-dr1&quot;&lt;/div&gt;&lt;div&gt;&amp;nbsp; &amp;nbsp; &amp;nbsp; &amp;nbsp; &amp;nbsp; &amp;nbsp; &amp;nbsp; &amp;nbsp; &quot;AWS_ACCESS_KEY_ID&quot; hub}}&#39;&lt;/div&gt;&lt;div&gt;&amp;nbsp; &amp;nbsp; &amp;nbsp; &amp;nbsp; &amp;nbsp; &amp;nbsp; &amp;nbsp; AWS_SECRET_ACCESS_KEY: &#39;{{hub fromSecret &quot;ramen-system&quot; &quot;ramen-s3-secret-dr1&quot;&lt;/div&gt;&lt;div&gt;&amp;nbsp; &amp;nbsp; &amp;nbsp; &amp;nbsp; &amp;nbsp; &amp;nbsp; &amp;nbsp; &amp;nbsp; &quot;AWS_SECRET_ACCESS_KEY&quot; hub}}&#39;&lt;/div&gt;&lt;div&gt;&amp;nbsp; &amp;nbsp; &amp;nbsp; &amp;nbsp; &amp;nbsp; &amp;nbsp; kind: Secret&lt;/div&gt;&lt;div&gt;&amp;nbsp; &amp;nbsp; &amp;nbsp; &amp;nbsp; &amp;nbsp; &amp;nbsp; metadata:&lt;/div&gt;&lt;div&gt;&amp;nbsp; &amp;nbsp; &amp;nbsp; &amp;nbsp; &amp;nbsp; &amp;nbsp; &amp;nbsp; creationTimestamp: null&lt;/div&gt;&lt;div&gt;&amp;nbsp; &amp;nbsp; &amp;nbsp; &amp;nbsp; &amp;nbsp; &amp;nbsp; &amp;nbsp; name: ramen-s3-secret-dr1&lt;/div&gt;&lt;div&gt;&amp;nbsp; &amp;nbsp; &amp;nbsp; &amp;nbsp; &amp;nbsp; &amp;nbsp; &amp;nbsp; namespace: ramen-system&lt;/div&gt;&lt;div&gt;&amp;nbsp; &amp;nbsp; &amp;nbsp; &amp;nbsp; remediationAction: Enforce&lt;/div&gt;&lt;div&gt;&amp;nbsp; &amp;nbsp; &amp;nbsp; &amp;nbsp; severity: high&lt;/div&gt;&lt;div&gt;&amp;nbsp; &amp;nbsp; &amp;nbsp; status: {}&lt;/div&gt;&lt;div&gt;&amp;nbsp; remediationAction: Enforce&lt;/div&gt;&lt;div&gt;status:&lt;/div&gt;&lt;div&gt;&amp;nbsp; compliant: Compliant&lt;/div&gt;&lt;div&gt;&amp;nbsp; placement:&lt;/div&gt;&lt;div&gt;&amp;nbsp; - placementBinding: plbinding-ramen-s3-secret-dr1&lt;/div&gt;&lt;div&gt;&amp;nbsp; &amp;nbsp; placementRule: plrule-ramen-s3-secret-dr1&lt;/div&gt;&lt;div&gt;&amp;nbsp; status:&lt;/div&gt;&lt;div&gt;&amp;nbsp; - clustername: dr1&lt;/div&gt;&lt;div&gt;&amp;nbsp; &amp;nbsp; clusternamespace: dr1&lt;/div&gt;&lt;div&gt;&amp;nbsp; &amp;nbsp; compliant: Compliant&lt;/div&gt;&lt;div&gt;&amp;nbsp; - clustername: dr2&lt;/div&gt;&lt;div&gt;&amp;nbsp; &amp;nbsp; clusternamespace: dr2&lt;/div&gt;&lt;div&gt;&amp;nbsp; &amp;nbsp; compliant: Compliant&lt;/div&gt;" style="text;strokeColor=none;fillColor=default;align=left;verticalAlign=middle;spacingLeft=4;spacingRight=4;overflow=hidden;points=[[0,0.5],[1,0.5]];portConstraint=eastwest;rotatable=0;whiteSpace=wrap;html=1;" parent="U8NHltKQ1rlB9dk0PbJg-44" vertex="1">
          <mxGeometry y="30" width="600" height="710" as="geometry" />
        </mxCell>
        <mxCell id="U8NHltKQ1rlB9dk0PbJg-85" value="PlacementBinding dr1 policy" style="swimlane;fontStyle=0;childLayout=stackLayout;horizontal=1;startSize=30;horizontalStack=0;resizeParent=1;resizeParentMax=0;resizeLast=0;collapsible=1;marginBottom=0;whiteSpace=wrap;html=1;" parent="1" vertex="1" collapsed="1">
          <mxGeometry x="145.5" y="538" width="190" height="30" as="geometry">
            <mxRectangle x="100" y="490" width="330" height="250" as="alternateBounds" />
          </mxGeometry>
        </mxCell>
        <mxCell id="U8NHltKQ1rlB9dk0PbJg-86" value="&lt;div&gt;metadata:&lt;/div&gt;&lt;div&gt;&amp;nbsp; creationTimestamp: &quot;2024-04-03T03:24:23Z&quot;&lt;/div&gt;&lt;div&gt;&amp;nbsp; generation: 1&lt;/div&gt;&lt;div&gt;&amp;nbsp; name: plbinding-ramen-s3-secret-dr1&lt;/div&gt;&lt;div&gt;&amp;nbsp; namespace: ramen-system&lt;/div&gt;&lt;div&gt;&amp;nbsp; resourceVersion: &quot;16149&quot;&lt;/div&gt;&lt;div&gt;&amp;nbsp; uid: 8652658b-306c-41e2-a8f4-62eb789947d0&lt;/div&gt;&lt;div&gt;placementRef:&lt;/div&gt;&lt;div&gt;&amp;nbsp; apiGroup: apps.open-cluster-management.io&lt;/div&gt;&lt;div&gt;&amp;nbsp; kind: PlacementRule&lt;/div&gt;&lt;div&gt;&amp;nbsp; name: plrule-ramen-s3-secret-dr1&lt;/div&gt;&lt;div&gt;subjects:&lt;/div&gt;&lt;div&gt;- apiGroup: policy.open-cluster-management.io&lt;/div&gt;&lt;div&gt;&amp;nbsp; kind: Policy&lt;/div&gt;&lt;div&gt;&amp;nbsp; name: ramen-s3-secret-dr1&lt;/div&gt;" style="text;strokeColor=none;fillColor=default;align=left;verticalAlign=middle;spacingLeft=4;spacingRight=4;overflow=hidden;points=[[0,0.5],[1,0.5]];portConstraint=eastwest;rotatable=0;whiteSpace=wrap;html=1;" parent="U8NHltKQ1rlB9dk0PbJg-85" vertex="1">
          <mxGeometry y="30" width="330" height="220" as="geometry" />
        </mxCell>
        <mxCell id="U8NHltKQ1rlB9dk0PbJg-17" value="DRCluster: dr1" style="swimlane;fontStyle=0;childLayout=stackLayout;horizontal=1;startSize=30;horizontalStack=0;resizeParent=1;resizeParentMax=0;resizeLast=0;collapsible=1;marginBottom=0;whiteSpace=wrap;html=1;" parent="1" vertex="1" collapsed="1">
          <mxGeometry x="55" y="398" width="120" height="30" as="geometry">
            <mxRectangle x="55" y="345" width="310" height="510" as="alternateBounds" />
          </mxGeometry>
        </mxCell>
        <mxCell id="U8NHltKQ1rlB9dk0PbJg-18" value="&lt;div&gt;apiVersion: ramendr.openshift.io/v1alpha1&lt;/div&gt;&lt;div&gt;&amp;nbsp; kind: DRCluster&lt;/div&gt;&lt;div&gt;&amp;nbsp; metadata:&lt;/div&gt;&lt;div&gt;&lt;span style=&quot;background-color: initial;&quot;&gt;&amp;nbsp; &amp;nbsp; finalizers:&lt;/span&gt;&lt;br&gt;&lt;/div&gt;&lt;div&gt;&amp;nbsp; &amp;nbsp; - drclusters.ramendr.openshift.io/ramen&lt;/div&gt;&lt;div&gt;&lt;span style=&quot;background-color: initial;&quot;&gt;&amp;nbsp; &amp;nbsp; labels:&lt;/span&gt;&lt;br&gt;&lt;/div&gt;&lt;div&gt;&amp;nbsp; &amp;nbsp; &amp;nbsp; cluster.open-cluster-management.io/backup: ramen&lt;/div&gt;&lt;div&gt;&amp;nbsp; &amp;nbsp; name: dr1&lt;/div&gt;&lt;div&gt;&lt;span style=&quot;background-color: initial;&quot;&gt;&amp;nbsp; spec:&lt;/span&gt;&lt;br&gt;&lt;/div&gt;&lt;div&gt;&amp;nbsp; &amp;nbsp; region: west&lt;/div&gt;&lt;div&gt;&amp;nbsp; &amp;nbsp; s3ProfileName: minio-on-dr1&lt;/div&gt;&lt;div&gt;&amp;nbsp; status:&lt;/div&gt;&lt;div&gt;&amp;nbsp; &amp;nbsp; conditions:&lt;/div&gt;&lt;div&gt;&amp;nbsp; &amp;nbsp; - lastTransitionTime: &quot;2024-04-03T03:24:16Z&quot;&lt;/div&gt;&lt;div&gt;&amp;nbsp; &amp;nbsp; &amp;nbsp; message: Cluster Clean&lt;/div&gt;&lt;div&gt;&amp;nbsp; &amp;nbsp; &amp;nbsp; observedGeneration: 1&lt;/div&gt;&lt;div&gt;&amp;nbsp; &amp;nbsp; &amp;nbsp; reason: Clean&lt;/div&gt;&lt;div&gt;&amp;nbsp; &amp;nbsp; &amp;nbsp; status: &quot;False&quot;&lt;/div&gt;&lt;div&gt;&amp;nbsp; &amp;nbsp; &amp;nbsp; type: Fenced&lt;/div&gt;&lt;div&gt;&amp;nbsp; &amp;nbsp; - lastTransitionTime: &quot;2024-04-03T03:24:16Z&quot;&lt;/div&gt;&lt;div&gt;&amp;nbsp; &amp;nbsp; &amp;nbsp; message: Cluster Clean&lt;/div&gt;&lt;div&gt;&amp;nbsp; &amp;nbsp; &amp;nbsp; observedGeneration: 1&lt;/div&gt;&lt;div&gt;&amp;nbsp; &amp;nbsp; &amp;nbsp; reason: Clean&lt;/div&gt;&lt;div&gt;&amp;nbsp; &amp;nbsp; &amp;nbsp; status: &quot;True&quot;&lt;/div&gt;&lt;div&gt;&amp;nbsp; &amp;nbsp; &amp;nbsp; type: Clean&lt;/div&gt;&lt;div&gt;&amp;nbsp; &amp;nbsp; - lastTransitionTime: &quot;2024-04-03T03:49:44Z&quot;&lt;/div&gt;&lt;div&gt;&amp;nbsp; &amp;nbsp; &amp;nbsp; message: Validated the cluster&lt;/div&gt;&lt;div&gt;&amp;nbsp; &amp;nbsp; &amp;nbsp; observedGeneration: 1&lt;/div&gt;&lt;div&gt;&amp;nbsp; &amp;nbsp; &amp;nbsp; reason: Succeeded&lt;/div&gt;&lt;div&gt;&amp;nbsp; &amp;nbsp; &amp;nbsp; status: &quot;True&quot;&lt;/div&gt;&lt;div&gt;&amp;nbsp; &amp;nbsp; &amp;nbsp; type: Validated&lt;/div&gt;&lt;div&gt;&amp;nbsp; &amp;nbsp; phase: Available&lt;/div&gt;" style="text;strokeColor=none;fillColor=default;align=left;verticalAlign=middle;spacingLeft=4;spacingRight=4;overflow=hidden;points=[[0,0.5],[1,0.5]];portConstraint=eastwest;rotatable=0;whiteSpace=wrap;html=1;" parent="U8NHltKQ1rlB9dk0PbJg-17" vertex="1">
          <mxGeometry y="30" width="310" height="480" as="geometry" />
        </mxCell>
        <mxCell id="U8NHltKQ1rlB9dk0PbJg-33" value="DRP" style="swimlane;fontStyle=0;childLayout=stackLayout;horizontal=1;startSize=30;horizontalStack=0;resizeParent=1;resizeParentMax=0;resizeLast=0;collapsible=1;marginBottom=0;whiteSpace=wrap;html=1;" parent="1" vertex="1" collapsed="1">
          <mxGeometry x="80" y="253" width="70" height="30" as="geometry">
            <mxRectangle x="80" y="200" width="310" height="400" as="alternateBounds" />
          </mxGeometry>
        </mxCell>
        <mxCell id="U8NHltKQ1rlB9dk0PbJg-34" value="&lt;div&gt;apiVersion: v1&lt;/div&gt;&lt;div&gt;items:&lt;/div&gt;&lt;div&gt;- apiVersion: ramendr.openshift.io/v1alpha1&lt;/div&gt;&lt;div&gt;&amp;nbsp; kind: DRPolicy&lt;/div&gt;&lt;div&gt;&amp;nbsp; metadata:&lt;span style=&quot;background-color: initial;&quot;&gt;&amp;nbsp;&lt;/span&gt;&lt;/div&gt;&lt;div&gt;&lt;span style=&quot;background-color: initial;&quot;&gt;&amp;nbsp; &amp;nbsp; finalizers:&lt;/span&gt;&lt;br&gt;&lt;/div&gt;&lt;div&gt;&amp;nbsp; &amp;nbsp; - drpolicies.ramendr.openshift.io/ramen&lt;/div&gt;&lt;div&gt;&lt;span style=&quot;background-color: initial;&quot;&gt;&amp;nbsp; &amp;nbsp; labels:&lt;/span&gt;&lt;br&gt;&lt;/div&gt;&lt;div&gt;&amp;nbsp; &amp;nbsp; &amp;nbsp; cluster.open-cluster-management.io/backup: ramen&lt;/div&gt;&lt;div&gt;&amp;nbsp; &amp;nbsp; name: dr-policy&lt;/div&gt;&lt;div&gt;&lt;span style=&quot;background-color: initial;&quot;&gt;&amp;nbsp; spec:&lt;/span&gt;&lt;br&gt;&lt;/div&gt;&lt;div&gt;&amp;nbsp; &amp;nbsp; drClusters:&lt;/div&gt;&lt;div&gt;&amp;nbsp; &amp;nbsp; - dr1&lt;/div&gt;&lt;div&gt;&amp;nbsp; &amp;nbsp; - dr2&lt;/div&gt;&lt;div&gt;&amp;nbsp; &amp;nbsp; replicationClassSelector: {}&lt;/div&gt;&lt;div&gt;&amp;nbsp; &amp;nbsp; schedulingInterval: 1m&lt;/div&gt;&lt;div&gt;&amp;nbsp; &amp;nbsp; volumeSnapshotClassSelector: {}&lt;/div&gt;&lt;div&gt;&amp;nbsp; status:&lt;/div&gt;&lt;div&gt;&amp;nbsp; &amp;nbsp; conditions:&lt;/div&gt;&lt;div&gt;&amp;nbsp; &amp;nbsp; - lastTransitionTime: &quot;2024-04-03T03:49:19Z&quot;&lt;/div&gt;&lt;div&gt;&amp;nbsp; &amp;nbsp; &amp;nbsp; message: drpolicy validated&lt;/div&gt;&lt;div&gt;&amp;nbsp; &amp;nbsp; &amp;nbsp; observedGeneration: 1&lt;/div&gt;&lt;div&gt;&amp;nbsp; &amp;nbsp; &amp;nbsp; reason: Succeeded&lt;/div&gt;&lt;div&gt;&amp;nbsp; &amp;nbsp; &amp;nbsp; status: &quot;True&quot;&lt;/div&gt;&lt;div&gt;&amp;nbsp; &amp;nbsp; &amp;nbsp; type: Validated&lt;/div&gt;" style="text;strokeColor=none;fillColor=none;align=left;verticalAlign=middle;spacingLeft=4;spacingRight=4;overflow=hidden;points=[[0,0.5],[1,0.5]];portConstraint=eastwest;rotatable=0;whiteSpace=wrap;html=1;" parent="U8NHltKQ1rlB9dk0PbJg-33" vertex="1">
          <mxGeometry y="30" width="310" height="370" as="geometry" />
        </mxCell>
        <mxCell id="U8NHltKQ1rlB9dk0PbJg-12" value="DRPolicy Controller" style="rounded=1;whiteSpace=wrap;html=1;" parent="1" vertex="1">
          <mxGeometry x="380" y="243" width="120" height="50" as="geometry" />
        </mxCell>
        <mxCell id="U8NHltKQ1rlB9dk0PbJg-23" value="s3secret-dr2" style="swimlane;fontStyle=0;childLayout=stackLayout;horizontal=1;startSize=30;horizontalStack=0;resizeParent=1;resizeParentMax=0;resizeLast=0;collapsible=1;marginBottom=0;whiteSpace=wrap;html=1;" parent="1" vertex="1" collapsed="1">
          <mxGeometry x="718" y="133" width="110" height="30" as="geometry">
            <mxRectangle x="718" y="80" width="290" height="200" as="alternateBounds" />
          </mxGeometry>
        </mxCell>
        <mxCell id="U8NHltKQ1rlB9dk0PbJg-24" value="&lt;div&gt;apiVersion: v1&lt;/div&gt;&lt;div&gt;data:&lt;/div&gt;&lt;div&gt;&amp;nbsp; AWS_ACCESS_KEY_ID: bWluaW8=&lt;/div&gt;&lt;div&gt;&amp;nbsp; AWS_SECRET_ACCESS_KEY: bWluaW8xMjM=&lt;/div&gt;&lt;div&gt;kind: Secret&lt;/div&gt;&lt;div&gt;metadata:&lt;/div&gt;&lt;div&gt;&amp;nbsp; finalizers:&lt;/div&gt;&lt;div&gt;&amp;nbsp; - drpolicies.ramendr.openshift.io/policy-protection&lt;/div&gt;&lt;div&gt;&amp;nbsp; name: ramen-s3-secret-dr2&lt;/div&gt;&lt;div&gt;&amp;nbsp; namespace: ramen-system&lt;/div&gt;&lt;div&gt;type: Opaque&lt;/div&gt;" style="text;strokeColor=none;fillColor=default;align=left;verticalAlign=middle;spacingLeft=4;spacingRight=4;overflow=hidden;points=[[0,0.5],[1,0.5]];portConstraint=eastwest;rotatable=0;whiteSpace=wrap;html=1;" parent="U8NHltKQ1rlB9dk0PbJg-23" vertex="1">
          <mxGeometry y="30" width="290" height="170" as="geometry" />
        </mxCell>
        <mxCell id="U8NHltKQ1rlB9dk0PbJg-19" value="s3secret-dr1" style="swimlane;fontStyle=0;childLayout=stackLayout;horizontal=1;startSize=30;horizontalStack=0;resizeParent=1;resizeParentMax=0;resizeLast=0;collapsible=1;marginBottom=0;whiteSpace=wrap;html=1;" parent="1" vertex="1" collapsed="1">
          <mxGeometry x="718" y="13" width="110" height="30" as="geometry">
            <mxRectangle x="718" y="-40" width="280" height="200" as="alternateBounds" />
          </mxGeometry>
        </mxCell>
        <mxCell id="U8NHltKQ1rlB9dk0PbJg-20" value="&lt;div&gt;apiVersion: v1&lt;/div&gt;&lt;div&gt;data:&lt;/div&gt;&lt;div&gt;&amp;nbsp; AWS_ACCESS_KEY_ID: bWluaW8=&lt;/div&gt;&lt;div&gt;&amp;nbsp; AWS_SECRET_ACCESS_KEY: bWluaW8xMjM=&lt;/div&gt;&lt;div&gt;kind: Secret&lt;/div&gt;&lt;div&gt;metadata:&lt;/div&gt;&lt;div&gt;&amp;nbsp; finalizers:&lt;/div&gt;&lt;div&gt;&amp;nbsp; - drpolicies.ramendr.openshift.io/policy-protection&lt;/div&gt;&lt;div&gt;&amp;nbsp; name: ramen-s3-secret-dr1&lt;/div&gt;&lt;div&gt;&amp;nbsp; namespace: ramen-system&lt;/div&gt;&lt;div&gt;type: Opaque&lt;/div&gt;" style="text;strokeColor=none;fillColor=default;align=left;verticalAlign=middle;spacingLeft=4;spacingRight=4;overflow=hidden;points=[[0,0.5],[1,0.5]];portConstraint=eastwest;rotatable=0;whiteSpace=wrap;html=1;" parent="U8NHltKQ1rlB9dk0PbJg-19" vertex="1">
          <mxGeometry y="30" width="280" height="170" as="geometry" />
        </mxCell>
        <mxCell id="U8NHltKQ1rlB9dk0PbJg-90" value="1" style="ellipse;whiteSpace=wrap;html=1;aspect=fixed;fillColor=#d80073;strokeColor=#A50040;fontColor=#ffffff;" parent="1" vertex="1">
          <mxGeometry x="165" y="243" width="20" height="20" as="geometry" />
        </mxCell>
        <mxCell id="U8NHltKQ1rlB9dk0PbJg-91" value="1" style="ellipse;whiteSpace=wrap;html=1;aspect=fixed;fillColor=#3333FF;strokeColor=#3333FF;fontColor=#ffffff;" parent="1" vertex="1">
          <mxGeometry x="756" y="357" width="20" height="20" as="geometry" />
        </mxCell>
        <mxCell id="U8NHltKQ1rlB9dk0PbJg-93" value="3" style="ellipse;whiteSpace=wrap;html=1;aspect=fixed;fillColor=#d80073;strokeColor=#A50040;fontColor=#ffffff;" parent="1" vertex="1">
          <mxGeometry x="441" y="417" width="20" height="20" as="geometry" />
        </mxCell>
        <mxCell id="U8NHltKQ1rlB9dk0PbJg-94" value="2" style="ellipse;whiteSpace=wrap;html=1;aspect=fixed;fillColor=#d80073;strokeColor=#A50040;fontColor=#ffffff;" parent="1" vertex="1">
          <mxGeometry x="450" y="167" width="20" height="20" as="geometry" />
        </mxCell>
        <mxCell id="U8NHltKQ1rlB9dk0PbJg-99" value="DRCluster Controller" style="rounded=1;whiteSpace=wrap;html=1;" parent="1" vertex="1">
          <mxGeometry x="543" y="244" width="120" height="50" as="geometry" />
        </mxCell>
        <mxCell id="U8NHltKQ1rlB9dk0PbJg-105" value="" style="rounded=1;whiteSpace=wrap;html=1;" parent="1" vertex="1">
          <mxGeometry x="30" y="647" width="210" height="120" as="geometry" />
        </mxCell>
        <mxCell id="U8NHltKQ1rlB9dk0PbJg-106" value="" style="rounded=1;whiteSpace=wrap;html=1;" parent="1" vertex="1">
          <mxGeometry x="800" y="672" width="210" height="120" as="geometry" />
        </mxCell>
        <mxCell id="U8NHltKQ1rlB9dk0PbJg-108" value="" style="endArrow=classic;html=1;rounded=0;entryX=1;entryY=0.5;entryDx=0;entryDy=0;exitX=0.5;exitY=1;exitDx=0;exitDy=0;" parent="1" source="U8NHltKQ1rlB9dk0PbJg-118" target="U8NHltKQ1rlB9dk0PbJg-106" edge="1">
          <mxGeometry width="50" height="50" relative="1" as="geometry">
            <mxPoint x="950" y="323" as="sourcePoint" />
            <mxPoint x="450" y="573" as="targetPoint" />
            <Array as="points">
              <mxPoint x="1040" y="513" />
              <mxPoint x="1040" y="732" />
            </Array>
          </mxGeometry>
        </mxCell>
        <mxCell id="U8NHltKQ1rlB9dk0PbJg-109" value="" style="endArrow=classic;html=1;rounded=0;entryX=0.5;entryY=1;entryDx=0;entryDy=0;" parent="1" target="U8NHltKQ1rlB9dk0PbJg-105" edge="1">
          <mxGeometry width="50" height="50" relative="1" as="geometry">
            <mxPoint x="1040" y="732" as="sourcePoint" />
            <mxPoint x="450" y="462" as="targetPoint" />
            <Array as="points">
              <mxPoint x="1040" y="823" />
              <mxPoint x="135" y="813" />
            </Array>
          </mxGeometry>
        </mxCell>
        <mxCell id="U8NHltKQ1rlB9dk0PbJg-111" value="ramen-dr-cluster MW in dr1" style="swimlane;fontStyle=0;childLayout=stackLayout;horizontal=1;startSize=30;horizontalStack=0;resizeParent=1;resizeParentMax=0;resizeLast=0;collapsible=1;marginBottom=0;whiteSpace=wrap;html=1;" parent="1" vertex="1" collapsed="1">
          <mxGeometry x="946" y="377" width="190" height="30" as="geometry">
            <mxRectangle x="860" y="180" width="450" height="6520" as="alternateBounds" />
          </mxGeometry>
        </mxCell>
        <mxCell id="U8NHltKQ1rlB9dk0PbJg-112" value="&lt;div&gt;apiVersion: work.open-cluster-management.io/v1&lt;/div&gt;&lt;div&gt;kind: ManifestWork&lt;/div&gt;&lt;div&gt;metadata:&lt;/div&gt;&lt;div&gt;&amp;nbsp; annotations:&lt;/div&gt;&lt;div&gt;&amp;nbsp; &amp;nbsp; drcluster.ramendr.openshift.io/drcluster-name: dr1&lt;/div&gt;&lt;div&gt;&amp;nbsp; creationTimestamp: &quot;2024-04-03T03:24:16Z&quot;&lt;/div&gt;&lt;div&gt;&amp;nbsp; finalizers:&lt;/div&gt;&lt;div&gt;&amp;nbsp; - cluster.open-cluster-management.io/manifest-work-cleanup&lt;/div&gt;&lt;div&gt;&amp;nbsp; generation: 1&lt;/div&gt;&lt;div&gt;&amp;nbsp; name: ramen-dr-cluster&lt;/div&gt;&lt;div&gt;&amp;nbsp; namespace: dr1&lt;/div&gt;&lt;div&gt;&amp;nbsp; resourceVersion: &quot;20675&quot;&lt;/div&gt;&lt;div&gt;&amp;nbsp; uid: da7b3744-cedb-4787-9a77-5b6835a409b9&lt;/div&gt;&lt;div&gt;spec:&lt;/div&gt;&lt;div&gt;&amp;nbsp; workload:&lt;/div&gt;&lt;div&gt;&amp;nbsp; &amp;nbsp; manifests:&lt;/div&gt;&lt;div&gt;&amp;nbsp; &amp;nbsp; - apiVersion: rbac.authorization.k8s.io/v1&lt;/div&gt;&lt;div&gt;&amp;nbsp; &amp;nbsp; &amp;nbsp; kind: ClusterRole&lt;/div&gt;&lt;div&gt;&amp;nbsp; &amp;nbsp; &amp;nbsp; metadata:&lt;/div&gt;&lt;div&gt;&amp;nbsp; &amp;nbsp; &amp;nbsp; &amp;nbsp; name: open-cluster-management:klusterlet-work-sa:agent:volrepgroup-edit&lt;/div&gt;&lt;div&gt;&amp;nbsp; &amp;nbsp; &amp;nbsp; rules:&lt;/div&gt;&lt;div&gt;&amp;nbsp; &amp;nbsp; &amp;nbsp; - apiGroups:&lt;/div&gt;&lt;div&gt;&amp;nbsp; &amp;nbsp; &amp;nbsp; &amp;nbsp; - ramendr.openshift.io&lt;/div&gt;&lt;div&gt;&amp;nbsp; &amp;nbsp; &amp;nbsp; &amp;nbsp; resources:&lt;/div&gt;&lt;div&gt;&amp;nbsp; &amp;nbsp; &amp;nbsp; &amp;nbsp; - volumereplicationgroups&lt;/div&gt;&lt;div&gt;&amp;nbsp; &amp;nbsp; &amp;nbsp; &amp;nbsp; verbs:&lt;/div&gt;&lt;div&gt;&amp;nbsp; &amp;nbsp; &amp;nbsp; &amp;nbsp; - create&lt;/div&gt;&lt;div&gt;&amp;nbsp; &amp;nbsp; &amp;nbsp; &amp;nbsp; - get&lt;/div&gt;&lt;div&gt;&amp;nbsp; &amp;nbsp; &amp;nbsp; &amp;nbsp; - list&lt;/div&gt;&lt;div&gt;&amp;nbsp; &amp;nbsp; &amp;nbsp; &amp;nbsp; - update&lt;/div&gt;&lt;div&gt;&amp;nbsp; &amp;nbsp; &amp;nbsp; &amp;nbsp; - delete&lt;/div&gt;&lt;div&gt;&amp;nbsp; &amp;nbsp; - apiVersion: rbac.authorization.k8s.io/v1&lt;/div&gt;&lt;div&gt;&amp;nbsp; &amp;nbsp; &amp;nbsp; kind: ClusterRoleBinding&lt;/div&gt;&lt;div&gt;&amp;nbsp; &amp;nbsp; &amp;nbsp; metadata:&lt;/div&gt;&lt;div&gt;&amp;nbsp; &amp;nbsp; &amp;nbsp; &amp;nbsp; name: open-cluster-management:klusterlet-work-sa:agent:volrepgroup-edit&lt;/div&gt;&lt;div&gt;&amp;nbsp; &amp;nbsp; &amp;nbsp; roleRef:&lt;/div&gt;&lt;div&gt;&amp;nbsp; &amp;nbsp; &amp;nbsp; &amp;nbsp; apiGroup: rbac.authorization.k8s.io&lt;/div&gt;&lt;div&gt;&amp;nbsp; &amp;nbsp; &amp;nbsp; &amp;nbsp; kind: ClusterRole&lt;/div&gt;&lt;div&gt;&amp;nbsp; &amp;nbsp; &amp;nbsp; &amp;nbsp; name: open-cluster-management:klusterlet-work-sa:agent:volrepgroup-edit&lt;/div&gt;&lt;div&gt;&amp;nbsp; &amp;nbsp; &amp;nbsp; subjects:&lt;/div&gt;&lt;div&gt;&amp;nbsp; &amp;nbsp; &amp;nbsp; - kind: ServiceAccount&lt;/div&gt;&lt;div&gt;&amp;nbsp; &amp;nbsp; &amp;nbsp; &amp;nbsp; name: klusterlet-work-sa&lt;/div&gt;&lt;div&gt;&amp;nbsp; &amp;nbsp; &amp;nbsp; &amp;nbsp; namespace: open-cluster-management-agent&lt;/div&gt;&lt;div&gt;&amp;nbsp; &amp;nbsp; - apiVersion: rbac.authorization.k8s.io/v1&lt;/div&gt;&lt;div&gt;&amp;nbsp; &amp;nbsp; &amp;nbsp; kind: ClusterRole&lt;/div&gt;&lt;div&gt;&amp;nbsp; &amp;nbsp; &amp;nbsp; metadata:&lt;/div&gt;&lt;div&gt;&amp;nbsp; &amp;nbsp; &amp;nbsp; &amp;nbsp; name: open-cluster-management:klusterlet-work-sa:agent:mmode-edit&lt;/div&gt;&lt;div&gt;&amp;nbsp; &amp;nbsp; &amp;nbsp; rules:&lt;/div&gt;&lt;div&gt;&amp;nbsp; &amp;nbsp; &amp;nbsp; - apiGroups:&lt;/div&gt;&lt;div&gt;&amp;nbsp; &amp;nbsp; &amp;nbsp; &amp;nbsp; - ramendr.openshift.io&lt;/div&gt;&lt;div&gt;&amp;nbsp; &amp;nbsp; &amp;nbsp; &amp;nbsp; resources:&lt;/div&gt;&lt;div&gt;&amp;nbsp; &amp;nbsp; &amp;nbsp; &amp;nbsp; - maintenancemodes&lt;/div&gt;&lt;div&gt;&amp;nbsp; &amp;nbsp; &amp;nbsp; &amp;nbsp; verbs:&lt;/div&gt;&lt;div&gt;&amp;nbsp; &amp;nbsp; &amp;nbsp; &amp;nbsp; - create&lt;/div&gt;&lt;div&gt;&amp;nbsp; &amp;nbsp; &amp;nbsp; &amp;nbsp; - get&lt;/div&gt;&lt;div&gt;&amp;nbsp; &amp;nbsp; &amp;nbsp; &amp;nbsp; - list&lt;/div&gt;&lt;div&gt;&amp;nbsp; &amp;nbsp; &amp;nbsp; &amp;nbsp; - update&lt;/div&gt;&lt;div&gt;&amp;nbsp; &amp;nbsp; &amp;nbsp; &amp;nbsp; - delete&lt;/div&gt;&lt;div&gt;&amp;nbsp; &amp;nbsp; - apiVersion: rbac.authorization.k8s.io/v1&lt;/div&gt;&lt;div&gt;&amp;nbsp; &amp;nbsp; &amp;nbsp; kind: ClusterRoleBinding&lt;/div&gt;&lt;div&gt;&amp;nbsp; &amp;nbsp; &amp;nbsp; metadata:&lt;/div&gt;&lt;div&gt;&amp;nbsp; &amp;nbsp; &amp;nbsp; &amp;nbsp; name: open-cluster-management:klusterlet-work-sa:agent:mmode-edit&lt;/div&gt;&lt;div&gt;&amp;nbsp; &amp;nbsp; &amp;nbsp; roleRef:&lt;/div&gt;&lt;div&gt;&amp;nbsp; &amp;nbsp; &amp;nbsp; &amp;nbsp; apiGroup: rbac.authorization.k8s.io&lt;/div&gt;&lt;div&gt;&amp;nbsp; &amp;nbsp; &amp;nbsp; &amp;nbsp; kind: ClusterRole&lt;/div&gt;&lt;div&gt;&amp;nbsp; &amp;nbsp; &amp;nbsp; &amp;nbsp; name: open-cluster-management:klusterlet-work-sa:agent:mmode-edit&lt;/div&gt;&lt;div&gt;&amp;nbsp; &amp;nbsp; &amp;nbsp; subjects:&lt;/div&gt;&lt;div&gt;&amp;nbsp; &amp;nbsp; &amp;nbsp; - kind: ServiceAccount&lt;/div&gt;&lt;div&gt;&amp;nbsp; &amp;nbsp; &amp;nbsp; &amp;nbsp; name: klusterlet-work-sa&lt;/div&gt;&lt;div&gt;&amp;nbsp; &amp;nbsp; &amp;nbsp; &amp;nbsp; namespace: open-cluster-management-agent&lt;/div&gt;&lt;div&gt;&amp;nbsp; &amp;nbsp; - apiVersion: v1&lt;/div&gt;&lt;div&gt;&amp;nbsp; &amp;nbsp; &amp;nbsp; kind: Namespace&lt;/div&gt;&lt;div&gt;&amp;nbsp; &amp;nbsp; &amp;nbsp; metadata:&lt;/div&gt;&lt;div&gt;&amp;nbsp; &amp;nbsp; &amp;nbsp; &amp;nbsp; name: ramen-system&lt;/div&gt;&lt;div&gt;&amp;nbsp; &amp;nbsp; &amp;nbsp; spec: {}&lt;/div&gt;&lt;div&gt;&amp;nbsp; &amp;nbsp; &amp;nbsp; status: {}&lt;/div&gt;&lt;div&gt;&amp;nbsp; &amp;nbsp; - apiVersion: rbac.authorization.k8s.io/v1&lt;/div&gt;&lt;div&gt;&amp;nbsp; &amp;nbsp; &amp;nbsp; kind: ClusterRole&lt;/div&gt;&lt;div&gt;&amp;nbsp; &amp;nbsp; &amp;nbsp; metadata:&lt;/div&gt;&lt;div&gt;&amp;nbsp; &amp;nbsp; &amp;nbsp; &amp;nbsp; name: open-cluster-management:klusterlet-work-sa:agent:olm-edit&lt;/div&gt;&lt;div&gt;&amp;nbsp; &amp;nbsp; &amp;nbsp; rules:&lt;/div&gt;&lt;div&gt;&amp;nbsp; &amp;nbsp; &amp;nbsp; - apiGroups:&lt;/div&gt;&lt;div&gt;&amp;nbsp; &amp;nbsp; &amp;nbsp; &amp;nbsp; - operators.coreos.com&lt;/div&gt;&lt;div&gt;&amp;nbsp; &amp;nbsp; &amp;nbsp; &amp;nbsp; resources:&lt;/div&gt;&lt;div&gt;&amp;nbsp; &amp;nbsp; &amp;nbsp; &amp;nbsp; - operatorgroups&lt;/div&gt;&lt;div&gt;&amp;nbsp; &amp;nbsp; &amp;nbsp; &amp;nbsp; verbs:&lt;/div&gt;&lt;div&gt;&amp;nbsp; &amp;nbsp; &amp;nbsp; &amp;nbsp; - create&lt;/div&gt;&lt;div&gt;&amp;nbsp; &amp;nbsp; &amp;nbsp; &amp;nbsp; - get&lt;/div&gt;&lt;div&gt;&amp;nbsp; &amp;nbsp; &amp;nbsp; &amp;nbsp; - list&lt;/div&gt;&lt;div&gt;&amp;nbsp; &amp;nbsp; &amp;nbsp; &amp;nbsp; - update&lt;/div&gt;&lt;div&gt;&amp;nbsp; &amp;nbsp; &amp;nbsp; &amp;nbsp; - delete&lt;/div&gt;&lt;div&gt;&amp;nbsp; &amp;nbsp; - apiVersion: rbac.authorization.k8s.io/v1&lt;/div&gt;&lt;div&gt;&amp;nbsp; &amp;nbsp; &amp;nbsp; kind: RoleBinding&lt;/div&gt;&lt;div&gt;&amp;nbsp; &amp;nbsp; &amp;nbsp; metadata:&lt;/div&gt;&lt;div&gt;&amp;nbsp; &amp;nbsp; &amp;nbsp; &amp;nbsp; name: open-cluster-management:klusterlet-work-sa:agent:olm-edit&lt;/div&gt;&lt;div&gt;&amp;nbsp; &amp;nbsp; &amp;nbsp; &amp;nbsp; namespace: ramen-system&lt;/div&gt;&lt;div&gt;&amp;nbsp; &amp;nbsp; &amp;nbsp; roleRef:&lt;/div&gt;&lt;div&gt;&amp;nbsp; &amp;nbsp; &amp;nbsp; &amp;nbsp; apiGroup: rbac.authorization.k8s.io&lt;/div&gt;&lt;div&gt;&amp;nbsp; &amp;nbsp; &amp;nbsp; &amp;nbsp; kind: ClusterRole&lt;/div&gt;&lt;div&gt;&amp;nbsp; &amp;nbsp; &amp;nbsp; &amp;nbsp; name: open-cluster-management:klusterlet-work-sa:agent:olm-edit&lt;/div&gt;&lt;div&gt;&amp;nbsp; &amp;nbsp; &amp;nbsp; subjects:&lt;/div&gt;&lt;div&gt;&amp;nbsp; &amp;nbsp; &amp;nbsp; - kind: ServiceAccount&lt;/div&gt;&lt;div&gt;&amp;nbsp; &amp;nbsp; &amp;nbsp; &amp;nbsp; name: klusterlet-work-sa&lt;/div&gt;&lt;div&gt;&amp;nbsp; &amp;nbsp; &amp;nbsp; &amp;nbsp; namespace: open-cluster-management-agent&lt;/div&gt;&lt;div&gt;&amp;nbsp; &amp;nbsp; - apiVersion: operators.coreos.com/v1&lt;/div&gt;&lt;div&gt;&amp;nbsp; &amp;nbsp; &amp;nbsp; kind: OperatorGroup&lt;/div&gt;&lt;div&gt;&amp;nbsp; &amp;nbsp; &amp;nbsp; metadata:&lt;/div&gt;&lt;div&gt;&amp;nbsp; &amp;nbsp; &amp;nbsp; &amp;nbsp; name: ramen-operator-group&lt;/div&gt;&lt;div&gt;&amp;nbsp; &amp;nbsp; &amp;nbsp; &amp;nbsp; namespace: ramen-system&lt;/div&gt;&lt;div&gt;&amp;nbsp; &amp;nbsp; &amp;nbsp; spec: {}&lt;/div&gt;&lt;div&gt;&amp;nbsp; &amp;nbsp; &amp;nbsp; status:&lt;/div&gt;&lt;div&gt;&amp;nbsp; &amp;nbsp; &amp;nbsp; &amp;nbsp; lastUpdated: null&lt;/div&gt;&lt;div&gt;&amp;nbsp; &amp;nbsp; - apiVersion: v1&lt;/div&gt;&lt;div&gt;&amp;nbsp; &amp;nbsp; &amp;nbsp; data:&lt;/div&gt;&lt;div&gt;&amp;nbsp; &amp;nbsp; &amp;nbsp; &amp;nbsp; ramen_manager_config.yaml: |&lt;/div&gt;&lt;div&gt;&amp;nbsp; &amp;nbsp; &amp;nbsp; &amp;nbsp; &amp;nbsp; apiVersion: ramendr.openshift.io/v1alpha1&lt;/div&gt;&lt;div&gt;&amp;nbsp; &amp;nbsp; &amp;nbsp; &amp;nbsp; &amp;nbsp; drClusterOperator:&lt;/div&gt;&lt;div&gt;&amp;nbsp; &amp;nbsp; &amp;nbsp; &amp;nbsp; &amp;nbsp; &amp;nbsp; catalogSourceName: ramen-catalog&lt;/div&gt;&lt;div&gt;&amp;nbsp; &amp;nbsp; &amp;nbsp; &amp;nbsp; &amp;nbsp; &amp;nbsp; catalogSourceNamespaceName: ramen-system&lt;/div&gt;&lt;div&gt;&amp;nbsp; &amp;nbsp; &amp;nbsp; &amp;nbsp; &amp;nbsp; &amp;nbsp; channelName: alpha&lt;/div&gt;&lt;div&gt;&amp;nbsp; &amp;nbsp; &amp;nbsp; &amp;nbsp; &amp;nbsp; &amp;nbsp; clusterServiceVersionName: ramen-dr-cluster-operator.v0.0.1&lt;/div&gt;&lt;div&gt;&amp;nbsp; &amp;nbsp; &amp;nbsp; &amp;nbsp; &amp;nbsp; &amp;nbsp; deploymentAutomationEnabled: true&lt;/div&gt;&lt;div&gt;&amp;nbsp; &amp;nbsp; &amp;nbsp; &amp;nbsp; &amp;nbsp; &amp;nbsp; namespaceName: ramen-system&lt;/div&gt;&lt;div&gt;&amp;nbsp; &amp;nbsp; &amp;nbsp; &amp;nbsp; &amp;nbsp; &amp;nbsp; packageName: ramen-dr-cluster-operator&lt;/div&gt;&lt;div&gt;&amp;nbsp; &amp;nbsp; &amp;nbsp; &amp;nbsp; &amp;nbsp; &amp;nbsp; s3SecretDistributionEnabled: true&lt;/div&gt;&lt;div&gt;&amp;nbsp; &amp;nbsp; &amp;nbsp; &amp;nbsp; &amp;nbsp; health:&lt;/div&gt;&lt;div&gt;&amp;nbsp; &amp;nbsp; &amp;nbsp; &amp;nbsp; &amp;nbsp; &amp;nbsp; healthProbeBindAddress: :8081&lt;/div&gt;&lt;div&gt;&amp;nbsp; &amp;nbsp; &amp;nbsp; &amp;nbsp; &amp;nbsp; kind: RamenConfig&lt;/div&gt;&lt;div&gt;&amp;nbsp; &amp;nbsp; &amp;nbsp; &amp;nbsp; &amp;nbsp; kubeObjectProtection:&lt;/div&gt;&lt;div&gt;&amp;nbsp; &amp;nbsp; &amp;nbsp; &amp;nbsp; &amp;nbsp; &amp;nbsp; veleroNamespaceName: velero&lt;/div&gt;&lt;div&gt;&amp;nbsp; &amp;nbsp; &amp;nbsp; &amp;nbsp; &amp;nbsp; leaderElection:&lt;/div&gt;&lt;div&gt;&amp;nbsp; &amp;nbsp; &amp;nbsp; &amp;nbsp; &amp;nbsp; &amp;nbsp; leaderElect: true&lt;/div&gt;&lt;div&gt;&amp;nbsp; &amp;nbsp; &amp;nbsp; &amp;nbsp; &amp;nbsp; &amp;nbsp; leaseDuration: 0s&lt;/div&gt;&lt;div&gt;&amp;nbsp; &amp;nbsp; &amp;nbsp; &amp;nbsp; &amp;nbsp; &amp;nbsp; renewDeadline: 0s&lt;/div&gt;&lt;div&gt;&amp;nbsp; &amp;nbsp; &amp;nbsp; &amp;nbsp; &amp;nbsp; &amp;nbsp; resourceLock: &quot;&quot;&lt;/div&gt;&lt;div&gt;&amp;nbsp; &amp;nbsp; &amp;nbsp; &amp;nbsp; &amp;nbsp; &amp;nbsp; resourceName: dr-cluster.ramendr.openshift.io&lt;/div&gt;&lt;div&gt;&amp;nbsp; &amp;nbsp; &amp;nbsp; &amp;nbsp; &amp;nbsp; &amp;nbsp; resourceNamespace: &quot;&quot;&lt;/div&gt;&lt;div&gt;&amp;nbsp; &amp;nbsp; &amp;nbsp; &amp;nbsp; &amp;nbsp; &amp;nbsp; retryPeriod: 0s&lt;/div&gt;&lt;div&gt;&amp;nbsp; &amp;nbsp; &amp;nbsp; &amp;nbsp; &amp;nbsp; maxConcurrentReconciles: 50&lt;/div&gt;&lt;div&gt;&amp;nbsp; &amp;nbsp; &amp;nbsp; &amp;nbsp; &amp;nbsp; metrics:&lt;/div&gt;&lt;div&gt;&amp;nbsp; &amp;nbsp; &amp;nbsp; &amp;nbsp; &amp;nbsp; &amp;nbsp; bindAddress: 127.0.0.1:9289&lt;/div&gt;&lt;div&gt;&amp;nbsp; &amp;nbsp; &amp;nbsp; &amp;nbsp; &amp;nbsp; multiNamespace: {}&lt;/div&gt;&lt;div&gt;&amp;nbsp; &amp;nbsp; &amp;nbsp; &amp;nbsp; &amp;nbsp; ramenControllerType: dr-cluster&lt;/div&gt;&lt;div&gt;&amp;nbsp; &amp;nbsp; &amp;nbsp; &amp;nbsp; &amp;nbsp; s3StoreProfiles:&lt;/div&gt;&lt;div&gt;&amp;nbsp; &amp;nbsp; &amp;nbsp; &amp;nbsp; &amp;nbsp; - s3Bucket: bucket&lt;/div&gt;&lt;div&gt;&amp;nbsp; &amp;nbsp; &amp;nbsp; &amp;nbsp; &amp;nbsp; &amp;nbsp; s3CompatibleEndpoint: http://192.168.122.116:30000&lt;/div&gt;&lt;div&gt;&amp;nbsp; &amp;nbsp; &amp;nbsp; &amp;nbsp; &amp;nbsp; &amp;nbsp; s3ProfileName: minio-on-dr1&lt;/div&gt;&lt;div&gt;&amp;nbsp; &amp;nbsp; &amp;nbsp; &amp;nbsp; &amp;nbsp; &amp;nbsp; s3Region: us-west-1&lt;/div&gt;&lt;div&gt;&amp;nbsp; &amp;nbsp; &amp;nbsp; &amp;nbsp; &amp;nbsp; &amp;nbsp; s3SecretRef:&lt;/div&gt;&lt;div&gt;&amp;nbsp; &amp;nbsp; &amp;nbsp; &amp;nbsp; &amp;nbsp; &amp;nbsp; &amp;nbsp; name: ramen-s3-secret-dr1&lt;/div&gt;&lt;div&gt;&amp;nbsp; &amp;nbsp; &amp;nbsp; &amp;nbsp; &amp;nbsp; &amp;nbsp; &amp;nbsp; namespace: ramen-system&lt;/div&gt;&lt;div&gt;&amp;nbsp; &amp;nbsp; &amp;nbsp; &amp;nbsp; &amp;nbsp; &amp;nbsp; veleroNamespaceSecretKeyRef:&lt;/div&gt;&lt;div&gt;&amp;nbsp; &amp;nbsp; &amp;nbsp; &amp;nbsp; &amp;nbsp; &amp;nbsp; &amp;nbsp; key: cloud&lt;/div&gt;&lt;div&gt;&amp;nbsp; &amp;nbsp; &amp;nbsp; &amp;nbsp; &amp;nbsp; &amp;nbsp; &amp;nbsp; name: cloud-credentials&lt;/div&gt;&lt;div&gt;&amp;nbsp; &amp;nbsp; &amp;nbsp; &amp;nbsp; &amp;nbsp; - s3Bucket: bucket&lt;/div&gt;&lt;div&gt;&amp;nbsp; &amp;nbsp; &amp;nbsp; &amp;nbsp; &amp;nbsp; &amp;nbsp; s3CompatibleEndpoint: http://192.168.122.147:30000&lt;/div&gt;&lt;div&gt;&amp;nbsp; &amp;nbsp; &amp;nbsp; &amp;nbsp; &amp;nbsp; &amp;nbsp; s3ProfileName: minio-on-dr2&lt;/div&gt;&lt;div&gt;&amp;nbsp; &amp;nbsp; &amp;nbsp; &amp;nbsp; &amp;nbsp; &amp;nbsp; s3Region: us-east-1&lt;/div&gt;&lt;div&gt;&amp;nbsp; &amp;nbsp; &amp;nbsp; &amp;nbsp; &amp;nbsp; &amp;nbsp; s3SecretRef:&lt;/div&gt;&lt;div&gt;&amp;nbsp; &amp;nbsp; &amp;nbsp; &amp;nbsp; &amp;nbsp; &amp;nbsp; &amp;nbsp; name: ramen-s3-secret-dr2&lt;/div&gt;&lt;div&gt;&amp;nbsp; &amp;nbsp; &amp;nbsp; &amp;nbsp; &amp;nbsp; &amp;nbsp; &amp;nbsp; namespace: ramen-system&lt;/div&gt;&lt;div&gt;&amp;nbsp; &amp;nbsp; &amp;nbsp; &amp;nbsp; &amp;nbsp; &amp;nbsp; veleroNamespaceSecretKeyRef:&lt;/div&gt;&lt;div&gt;&amp;nbsp; &amp;nbsp; &amp;nbsp; &amp;nbsp; &amp;nbsp; &amp;nbsp; &amp;nbsp; key: cloud&lt;/div&gt;&lt;div&gt;&amp;nbsp; &amp;nbsp; &amp;nbsp; &amp;nbsp; &amp;nbsp; &amp;nbsp; &amp;nbsp; name: cloud-credentials&lt;/div&gt;&lt;div&gt;&amp;nbsp; &amp;nbsp; &amp;nbsp; &amp;nbsp; &amp;nbsp; volSync: {}&lt;/div&gt;&lt;div&gt;&amp;nbsp; &amp;nbsp; &amp;nbsp; &amp;nbsp; &amp;nbsp; webhook:&lt;/div&gt;&lt;div&gt;&amp;nbsp; &amp;nbsp; &amp;nbsp; &amp;nbsp; &amp;nbsp; &amp;nbsp; port: 9443&lt;/div&gt;&lt;div&gt;&amp;nbsp; &amp;nbsp; &amp;nbsp; kind: ConfigMap&lt;/div&gt;&lt;div&gt;&amp;nbsp; &amp;nbsp; &amp;nbsp; metadata:&lt;/div&gt;&lt;div&gt;&amp;nbsp; &amp;nbsp; &amp;nbsp; &amp;nbsp; name: ramen-dr-cluster-operator-config&lt;/div&gt;&lt;div&gt;&amp;nbsp; &amp;nbsp; &amp;nbsp; &amp;nbsp; namespace: ramen-system&lt;/div&gt;&lt;div&gt;&amp;nbsp; &amp;nbsp; - apiVersion: operators.coreos.com/v1alpha1&lt;/div&gt;&lt;div&gt;&amp;nbsp; &amp;nbsp; &amp;nbsp; kind: Subscription&lt;/div&gt;&lt;div&gt;&amp;nbsp; &amp;nbsp; &amp;nbsp; metadata:&lt;/div&gt;&lt;div&gt;&amp;nbsp; &amp;nbsp; &amp;nbsp; &amp;nbsp; name: ramen-dr-cluster-subscription&lt;/div&gt;&lt;div&gt;&amp;nbsp; &amp;nbsp; &amp;nbsp; &amp;nbsp; namespace: ramen-system&lt;/div&gt;&lt;div&gt;&amp;nbsp; &amp;nbsp; &amp;nbsp; spec:&lt;/div&gt;&lt;div&gt;&amp;nbsp; &amp;nbsp; &amp;nbsp; &amp;nbsp; channel: alpha&lt;/div&gt;&lt;div&gt;&amp;nbsp; &amp;nbsp; &amp;nbsp; &amp;nbsp; installPlanApproval: Automatic&lt;/div&gt;&lt;div&gt;&amp;nbsp; &amp;nbsp; &amp;nbsp; &amp;nbsp; name: ramen-dr-cluster-operator&lt;/div&gt;&lt;div&gt;&amp;nbsp; &amp;nbsp; &amp;nbsp; &amp;nbsp; source: ramen-catalog&lt;/div&gt;&lt;div&gt;&amp;nbsp; &amp;nbsp; &amp;nbsp; &amp;nbsp; sourceNamespace: ramen-system&lt;/div&gt;&lt;div&gt;&amp;nbsp; &amp;nbsp; &amp;nbsp; &amp;nbsp; startingCSV: ramen-dr-cluster-operator.v0.0.1&lt;/div&gt;&lt;div&gt;&amp;nbsp; &amp;nbsp; &amp;nbsp; status:&lt;/div&gt;&lt;div&gt;&amp;nbsp; &amp;nbsp; &amp;nbsp; &amp;nbsp; lastUpdated: null&lt;/div&gt;&lt;div&gt;status:&lt;/div&gt;&lt;div&gt;&amp;nbsp; conditions:&lt;/div&gt;&lt;div&gt;&amp;nbsp; - lastTransitionTime: &quot;2024-04-03T03:24:21Z&quot;&lt;/div&gt;&lt;div&gt;&amp;nbsp; &amp;nbsp; message: Apply manifest work complete&lt;/div&gt;&lt;div&gt;&amp;nbsp; &amp;nbsp; observedGeneration: 1&lt;/div&gt;&lt;div&gt;&amp;nbsp; &amp;nbsp; reason: AppliedManifestWorkComplete&lt;/div&gt;&lt;div&gt;&amp;nbsp; &amp;nbsp; status: &quot;True&quot;&lt;/div&gt;&lt;div&gt;&amp;nbsp; &amp;nbsp; type: Applied&lt;/div&gt;&lt;div&gt;&amp;nbsp; - lastTransitionTime: &quot;2024-04-03T03:49:37Z&quot;&lt;/div&gt;&lt;div&gt;&amp;nbsp; &amp;nbsp; message: All resources are available&lt;/div&gt;&lt;div&gt;&amp;nbsp; &amp;nbsp; observedGeneration: 1&lt;/div&gt;&lt;div&gt;&amp;nbsp; &amp;nbsp; reason: ResourcesAvailable&lt;/div&gt;&lt;div&gt;&amp;nbsp; &amp;nbsp; status: &quot;True&quot;&lt;/div&gt;&lt;div&gt;&amp;nbsp; &amp;nbsp; type: Available&lt;/div&gt;&lt;div&gt;&amp;nbsp; resourceStatus:&lt;/div&gt;&lt;div&gt;&amp;nbsp; &amp;nbsp; manifests:&lt;/div&gt;&lt;div&gt;&amp;nbsp; &amp;nbsp; - conditions:&lt;/div&gt;&lt;div&gt;&amp;nbsp; &amp;nbsp; &amp;nbsp; - lastTransitionTime: &quot;2024-04-03T03:24:21Z&quot;&lt;/div&gt;&lt;div&gt;&amp;nbsp; &amp;nbsp; &amp;nbsp; &amp;nbsp; message: Apply manifest complete&lt;/div&gt;&lt;div&gt;&amp;nbsp; &amp;nbsp; &amp;nbsp; &amp;nbsp; reason: AppliedManifestComplete&lt;/div&gt;&lt;div&gt;&amp;nbsp; &amp;nbsp; &amp;nbsp; &amp;nbsp; status: &quot;True&quot;&lt;/div&gt;&lt;div&gt;&amp;nbsp; &amp;nbsp; &amp;nbsp; &amp;nbsp; type: Applied&lt;/div&gt;&lt;div&gt;&amp;nbsp; &amp;nbsp; &amp;nbsp; - lastTransitionTime: &quot;2024-04-03T03:24:21Z&quot;&lt;/div&gt;&lt;div&gt;&amp;nbsp; &amp;nbsp; &amp;nbsp; &amp;nbsp; message: Resource is available&lt;/div&gt;&lt;div&gt;&amp;nbsp; &amp;nbsp; &amp;nbsp; &amp;nbsp; reason: ResourceAvailable&lt;/div&gt;&lt;div&gt;&amp;nbsp; &amp;nbsp; &amp;nbsp; &amp;nbsp; status: &quot;True&quot;&lt;/div&gt;&lt;div&gt;&amp;nbsp; &amp;nbsp; &amp;nbsp; &amp;nbsp; type: Available&lt;/div&gt;&lt;div&gt;&amp;nbsp; &amp;nbsp; &amp;nbsp; - lastTransitionTime: &quot;2024-04-03T03:24:21Z&quot;&lt;/div&gt;&lt;div&gt;&amp;nbsp; &amp;nbsp; &amp;nbsp; &amp;nbsp; message: &quot;&quot;&lt;/div&gt;&lt;div&gt;&amp;nbsp; &amp;nbsp; &amp;nbsp; &amp;nbsp; reason: NoStatusFeedbackSynced&lt;/div&gt;&lt;div&gt;&amp;nbsp; &amp;nbsp; &amp;nbsp; &amp;nbsp; status: &quot;True&quot;&lt;/div&gt;&lt;div&gt;&amp;nbsp; &amp;nbsp; &amp;nbsp; &amp;nbsp; type: StatusFeedbackSynced&lt;/div&gt;&lt;div&gt;&amp;nbsp; &amp;nbsp; &amp;nbsp; resourceMeta:&lt;/div&gt;&lt;div&gt;&amp;nbsp; &amp;nbsp; &amp;nbsp; &amp;nbsp; group: rbac.authorization.k8s.io&lt;/div&gt;&lt;div&gt;&amp;nbsp; &amp;nbsp; &amp;nbsp; &amp;nbsp; kind: ClusterRole&lt;/div&gt;&lt;div&gt;&amp;nbsp; &amp;nbsp; &amp;nbsp; &amp;nbsp; name: open-cluster-management:klusterlet-work-sa:agent:volrepgroup-edit&lt;/div&gt;&lt;div&gt;&amp;nbsp; &amp;nbsp; &amp;nbsp; &amp;nbsp; namespace: &quot;&quot;&lt;/div&gt;&lt;div&gt;&amp;nbsp; &amp;nbsp; &amp;nbsp; &amp;nbsp; ordinal: 0&lt;/div&gt;&lt;div&gt;&amp;nbsp; &amp;nbsp; &amp;nbsp; &amp;nbsp; resource: clusterroles&lt;/div&gt;&lt;div&gt;&amp;nbsp; &amp;nbsp; &amp;nbsp; &amp;nbsp; version: v1&lt;/div&gt;&lt;div&gt;&amp;nbsp; &amp;nbsp; &amp;nbsp; statusFeedback: {}&lt;/div&gt;&lt;div&gt;&amp;nbsp; &amp;nbsp; - conditions:&lt;/div&gt;&lt;div&gt;&amp;nbsp; &amp;nbsp; &amp;nbsp; - lastTransitionTime: &quot;2024-04-03T03:24:21Z&quot;&lt;/div&gt;&lt;div&gt;&amp;nbsp; &amp;nbsp; &amp;nbsp; &amp;nbsp; message: Apply manifest complete&lt;/div&gt;&lt;div&gt;&amp;nbsp; &amp;nbsp; &amp;nbsp; &amp;nbsp; reason: AppliedManifestComplete&lt;/div&gt;&lt;div&gt;&amp;nbsp; &amp;nbsp; &amp;nbsp; &amp;nbsp; status: &quot;True&quot;&lt;/div&gt;&lt;div&gt;&amp;nbsp; &amp;nbsp; &amp;nbsp; &amp;nbsp; type: Applied&lt;/div&gt;&lt;div&gt;&amp;nbsp; &amp;nbsp; &amp;nbsp; - lastTransitionTime: &quot;2024-04-03T03:24:21Z&quot;&lt;/div&gt;&lt;div&gt;&amp;nbsp; &amp;nbsp; &amp;nbsp; &amp;nbsp; message: Resource is available&lt;/div&gt;&lt;div&gt;&amp;nbsp; &amp;nbsp; &amp;nbsp; &amp;nbsp; reason: ResourceAvailable&lt;/div&gt;&lt;div&gt;&amp;nbsp; &amp;nbsp; &amp;nbsp; &amp;nbsp; status: &quot;True&quot;&lt;/div&gt;&lt;div&gt;&amp;nbsp; &amp;nbsp; &amp;nbsp; &amp;nbsp; type: Available&lt;/div&gt;&lt;div&gt;&amp;nbsp; &amp;nbsp; &amp;nbsp; - lastTransitionTime: &quot;2024-04-03T03:24:21Z&quot;&lt;/div&gt;&lt;div&gt;&amp;nbsp; &amp;nbsp; &amp;nbsp; &amp;nbsp; message: &quot;&quot;&lt;/div&gt;&lt;div&gt;&amp;nbsp; &amp;nbsp; &amp;nbsp; &amp;nbsp; reason: NoStatusFeedbackSynced&lt;/div&gt;&lt;div&gt;&amp;nbsp; &amp;nbsp; &amp;nbsp; &amp;nbsp; status: &quot;True&quot;&lt;/div&gt;&lt;div&gt;&amp;nbsp; &amp;nbsp; &amp;nbsp; &amp;nbsp; type: StatusFeedbackSynced&lt;/div&gt;&lt;div&gt;&amp;nbsp; &amp;nbsp; &amp;nbsp; resourceMeta:&lt;/div&gt;&lt;div&gt;&amp;nbsp; &amp;nbsp; &amp;nbsp; &amp;nbsp; group: rbac.authorization.k8s.io&lt;/div&gt;&lt;div&gt;&amp;nbsp; &amp;nbsp; &amp;nbsp; &amp;nbsp; kind: ClusterRoleBinding&lt;/div&gt;&lt;div&gt;&amp;nbsp; &amp;nbsp; &amp;nbsp; &amp;nbsp; name: open-cluster-management:klusterlet-work-sa:agent:volrepgroup-edit&lt;/div&gt;&lt;div&gt;&amp;nbsp; &amp;nbsp; &amp;nbsp; &amp;nbsp; namespace: &quot;&quot;&lt;/div&gt;&lt;div&gt;&amp;nbsp; &amp;nbsp; &amp;nbsp; &amp;nbsp; ordinal: 1&lt;/div&gt;&lt;div&gt;&amp;nbsp; &amp;nbsp; &amp;nbsp; &amp;nbsp; resource: clusterrolebindings&lt;/div&gt;&lt;div&gt;&amp;nbsp; &amp;nbsp; &amp;nbsp; &amp;nbsp; version: v1&lt;/div&gt;&lt;div&gt;&amp;nbsp; &amp;nbsp; &amp;nbsp; statusFeedback: {}&lt;/div&gt;&lt;div&gt;&amp;nbsp; &amp;nbsp; - conditions:&lt;/div&gt;&lt;div&gt;&amp;nbsp; &amp;nbsp; &amp;nbsp; - lastTransitionTime: &quot;2024-04-03T03:24:21Z&quot;&lt;/div&gt;&lt;div&gt;&amp;nbsp; &amp;nbsp; &amp;nbsp; &amp;nbsp; message: Apply manifest complete&lt;/div&gt;&lt;div&gt;&amp;nbsp; &amp;nbsp; &amp;nbsp; &amp;nbsp; reason: AppliedManifestComplete&lt;/div&gt;&lt;div&gt;&amp;nbsp; &amp;nbsp; &amp;nbsp; &amp;nbsp; status: &quot;True&quot;&lt;/div&gt;&lt;div&gt;&amp;nbsp; &amp;nbsp; &amp;nbsp; &amp;nbsp; type: Applied&lt;/div&gt;&lt;div&gt;&amp;nbsp; &amp;nbsp; &amp;nbsp; - lastTransitionTime: &quot;2024-04-03T03:24:21Z&quot;&lt;/div&gt;&lt;div&gt;&amp;nbsp; &amp;nbsp; &amp;nbsp; &amp;nbsp; message: Resource is available&lt;/div&gt;&lt;div&gt;&amp;nbsp; &amp;nbsp; &amp;nbsp; &amp;nbsp; reason: ResourceAvailable&lt;/div&gt;&lt;div&gt;&amp;nbsp; &amp;nbsp; &amp;nbsp; &amp;nbsp; status: &quot;True&quot;&lt;/div&gt;&lt;div&gt;&amp;nbsp; &amp;nbsp; &amp;nbsp; &amp;nbsp; type: Available&lt;/div&gt;&lt;div&gt;&amp;nbsp; &amp;nbsp; &amp;nbsp; - lastTransitionTime: &quot;2024-04-03T03:24:21Z&quot;&lt;/div&gt;&lt;div&gt;&amp;nbsp; &amp;nbsp; &amp;nbsp; &amp;nbsp; message: &quot;&quot;&lt;/div&gt;&lt;div&gt;&amp;nbsp; &amp;nbsp; &amp;nbsp; &amp;nbsp; reason: NoStatusFeedbackSynced&lt;/div&gt;&lt;div&gt;&amp;nbsp; &amp;nbsp; &amp;nbsp; &amp;nbsp; status: &quot;True&quot;&lt;/div&gt;&lt;div&gt;&amp;nbsp; &amp;nbsp; &amp;nbsp; &amp;nbsp; type: StatusFeedbackSynced&lt;/div&gt;&lt;div&gt;&amp;nbsp; &amp;nbsp; &amp;nbsp; resourceMeta:&lt;/div&gt;&lt;div&gt;&amp;nbsp; &amp;nbsp; &amp;nbsp; &amp;nbsp; group: rbac.authorization.k8s.io&lt;/div&gt;&lt;div&gt;&amp;nbsp; &amp;nbsp; &amp;nbsp; &amp;nbsp; kind: ClusterRole&lt;/div&gt;&lt;div&gt;&amp;nbsp; &amp;nbsp; &amp;nbsp; &amp;nbsp; name: open-cluster-management:klusterlet-work-sa:agent:mmode-edit&lt;/div&gt;&lt;div&gt;&amp;nbsp; &amp;nbsp; &amp;nbsp; &amp;nbsp; namespace: &quot;&quot;&lt;/div&gt;&lt;div&gt;&amp;nbsp; &amp;nbsp; &amp;nbsp; &amp;nbsp; ordinal: 2&lt;/div&gt;&lt;div&gt;&amp;nbsp; &amp;nbsp; &amp;nbsp; &amp;nbsp; resource: clusterroles&lt;/div&gt;&lt;div&gt;&amp;nbsp; &amp;nbsp; &amp;nbsp; &amp;nbsp; version: v1&lt;/div&gt;&lt;div&gt;&amp;nbsp; &amp;nbsp; &amp;nbsp; statusFeedback: {}&lt;/div&gt;&lt;div&gt;&amp;nbsp; &amp;nbsp; - conditions:&lt;/div&gt;&lt;div&gt;&amp;nbsp; &amp;nbsp; &amp;nbsp; - lastTransitionTime: &quot;2024-04-03T03:24:21Z&quot;&lt;/div&gt;&lt;div&gt;&amp;nbsp; &amp;nbsp; &amp;nbsp; &amp;nbsp; message: Apply manifest complete&lt;/div&gt;&lt;div&gt;&amp;nbsp; &amp;nbsp; &amp;nbsp; &amp;nbsp; reason: AppliedManifestComplete&lt;/div&gt;&lt;div&gt;&amp;nbsp; &amp;nbsp; &amp;nbsp; &amp;nbsp; status: &quot;True&quot;&lt;/div&gt;&lt;div&gt;&amp;nbsp; &amp;nbsp; &amp;nbsp; &amp;nbsp; type: Applied&lt;/div&gt;&lt;div&gt;&amp;nbsp; &amp;nbsp; &amp;nbsp; - lastTransitionTime: &quot;2024-04-03T03:24:21Z&quot;&lt;/div&gt;&lt;div&gt;&amp;nbsp; &amp;nbsp; &amp;nbsp; &amp;nbsp; message: Resource is available&lt;/div&gt;&lt;div&gt;&amp;nbsp; &amp;nbsp; &amp;nbsp; &amp;nbsp; reason: ResourceAvailable&lt;/div&gt;&lt;div&gt;&amp;nbsp; &amp;nbsp; &amp;nbsp; &amp;nbsp; status: &quot;True&quot;&lt;/div&gt;&lt;div&gt;&amp;nbsp; &amp;nbsp; &amp;nbsp; &amp;nbsp; type: Available&lt;/div&gt;&lt;div&gt;&amp;nbsp; &amp;nbsp; &amp;nbsp; - lastTransitionTime: &quot;2024-04-03T03:24:21Z&quot;&lt;/div&gt;&lt;div&gt;&amp;nbsp; &amp;nbsp; &amp;nbsp; &amp;nbsp; message: &quot;&quot;&lt;/div&gt;&lt;div&gt;&amp;nbsp; &amp;nbsp; &amp;nbsp; &amp;nbsp; reason: NoStatusFeedbackSynced&lt;/div&gt;&lt;div&gt;&amp;nbsp; &amp;nbsp; &amp;nbsp; &amp;nbsp; status: &quot;True&quot;&lt;/div&gt;&lt;div&gt;&amp;nbsp; &amp;nbsp; &amp;nbsp; &amp;nbsp; type: StatusFeedbackSynced&lt;/div&gt;&lt;div&gt;&amp;nbsp; &amp;nbsp; &amp;nbsp; resourceMeta:&lt;/div&gt;&lt;div&gt;&amp;nbsp; &amp;nbsp; &amp;nbsp; &amp;nbsp; group: rbac.authorization.k8s.io&lt;/div&gt;&lt;div&gt;&amp;nbsp; &amp;nbsp; &amp;nbsp; &amp;nbsp; kind: ClusterRoleBinding&lt;/div&gt;&lt;div&gt;&amp;nbsp; &amp;nbsp; &amp;nbsp; &amp;nbsp; name: open-cluster-management:klusterlet-work-sa:agent:mmode-edit&lt;/div&gt;&lt;div&gt;&amp;nbsp; &amp;nbsp; &amp;nbsp; &amp;nbsp; namespace: &quot;&quot;&lt;/div&gt;&lt;div&gt;&amp;nbsp; &amp;nbsp; &amp;nbsp; &amp;nbsp; ordinal: 3&lt;/div&gt;&lt;div&gt;&amp;nbsp; &amp;nbsp; &amp;nbsp; &amp;nbsp; resource: clusterrolebindings&lt;/div&gt;&lt;div&gt;&amp;nbsp; &amp;nbsp; &amp;nbsp; &amp;nbsp; version: v1&lt;/div&gt;&lt;div&gt;&amp;nbsp; &amp;nbsp; &amp;nbsp; statusFeedback: {}&lt;/div&gt;&lt;div&gt;&amp;nbsp; &amp;nbsp; - conditions:&lt;/div&gt;&lt;div&gt;&amp;nbsp; &amp;nbsp; &amp;nbsp; - lastTransitionTime: &quot;2024-04-03T03:24:21Z&quot;&lt;/div&gt;&lt;div&gt;&amp;nbsp; &amp;nbsp; &amp;nbsp; &amp;nbsp; message: Apply manifest complete&lt;/div&gt;&lt;div&gt;&amp;nbsp; &amp;nbsp; &amp;nbsp; &amp;nbsp; reason: AppliedManifestComplete&lt;/div&gt;&lt;div&gt;&amp;nbsp; &amp;nbsp; &amp;nbsp; &amp;nbsp; status: &quot;True&quot;&lt;/div&gt;&lt;div&gt;&amp;nbsp; &amp;nbsp; &amp;nbsp; &amp;nbsp; type: Applied&lt;/div&gt;&lt;div&gt;&amp;nbsp; &amp;nbsp; &amp;nbsp; - lastTransitionTime: &quot;2024-04-03T03:24:21Z&quot;&lt;/div&gt;&lt;div&gt;&amp;nbsp; &amp;nbsp; &amp;nbsp; &amp;nbsp; message: Resource is available&lt;/div&gt;&lt;div&gt;&amp;nbsp; &amp;nbsp; &amp;nbsp; &amp;nbsp; reason: ResourceAvailable&lt;/div&gt;&lt;div&gt;&amp;nbsp; &amp;nbsp; &amp;nbsp; &amp;nbsp; status: &quot;True&quot;&lt;/div&gt;&lt;div&gt;&amp;nbsp; &amp;nbsp; &amp;nbsp; &amp;nbsp; type: Available&lt;/div&gt;&lt;div&gt;&amp;nbsp; &amp;nbsp; &amp;nbsp; - lastTransitionTime: &quot;2024-04-03T03:24:21Z&quot;&lt;/div&gt;&lt;div&gt;&amp;nbsp; &amp;nbsp; &amp;nbsp; &amp;nbsp; message: &quot;&quot;&lt;/div&gt;&lt;div&gt;&amp;nbsp; &amp;nbsp; &amp;nbsp; &amp;nbsp; reason: NoStatusFeedbackSynced&lt;/div&gt;&lt;div&gt;&amp;nbsp; &amp;nbsp; &amp;nbsp; &amp;nbsp; status: &quot;True&quot;&lt;/div&gt;&lt;div&gt;&amp;nbsp; &amp;nbsp; &amp;nbsp; &amp;nbsp; type: StatusFeedbackSynced&lt;/div&gt;&lt;div&gt;&amp;nbsp; &amp;nbsp; &amp;nbsp; resourceMeta:&lt;/div&gt;&lt;div&gt;&amp;nbsp; &amp;nbsp; &amp;nbsp; &amp;nbsp; group: &quot;&quot;&lt;/div&gt;&lt;div&gt;&amp;nbsp; &amp;nbsp; &amp;nbsp; &amp;nbsp; kind: Namespace&lt;/div&gt;&lt;div&gt;&amp;nbsp; &amp;nbsp; &amp;nbsp; &amp;nbsp; name: ramen-system&lt;/div&gt;&lt;div&gt;&amp;nbsp; &amp;nbsp; &amp;nbsp; &amp;nbsp; namespace: &quot;&quot;&lt;/div&gt;&lt;div&gt;&amp;nbsp; &amp;nbsp; &amp;nbsp; &amp;nbsp; ordinal: 4&lt;/div&gt;&lt;div&gt;&amp;nbsp; &amp;nbsp; &amp;nbsp; &amp;nbsp; resource: namespaces&lt;/div&gt;&lt;div&gt;&amp;nbsp; &amp;nbsp; &amp;nbsp; &amp;nbsp; version: v1&lt;/div&gt;&lt;div&gt;&amp;nbsp; &amp;nbsp; &amp;nbsp; statusFeedback: {}&lt;/div&gt;&lt;div&gt;&amp;nbsp; &amp;nbsp; - conditions:&lt;/div&gt;&lt;div&gt;&amp;nbsp; &amp;nbsp; &amp;nbsp; - lastTransitionTime: &quot;2024-04-03T03:24:21Z&quot;&lt;/div&gt;&lt;div&gt;&amp;nbsp; &amp;nbsp; &amp;nbsp; &amp;nbsp; message: Apply manifest complete&lt;/div&gt;&lt;div&gt;&amp;nbsp; &amp;nbsp; &amp;nbsp; &amp;nbsp; reason: AppliedManifestComplete&lt;/div&gt;&lt;div&gt;&amp;nbsp; &amp;nbsp; &amp;nbsp; &amp;nbsp; status: &quot;True&quot;&lt;/div&gt;&lt;div&gt;&amp;nbsp; &amp;nbsp; &amp;nbsp; &amp;nbsp; type: Applied&lt;/div&gt;&lt;div&gt;&amp;nbsp; &amp;nbsp; &amp;nbsp; - lastTransitionTime: &quot;2024-04-03T03:24:22Z&quot;&lt;/div&gt;&lt;div&gt;&amp;nbsp; &amp;nbsp; &amp;nbsp; &amp;nbsp; message: Resource is available&lt;/div&gt;&lt;div&gt;&amp;nbsp; &amp;nbsp; &amp;nbsp; &amp;nbsp; reason: ResourceAvailable&lt;/div&gt;&lt;div&gt;&amp;nbsp; &amp;nbsp; &amp;nbsp; &amp;nbsp; status: &quot;True&quot;&lt;/div&gt;&lt;div&gt;&amp;nbsp; &amp;nbsp; &amp;nbsp; &amp;nbsp; type: Available&lt;/div&gt;&lt;div&gt;&amp;nbsp; &amp;nbsp; &amp;nbsp; - lastTransitionTime: &quot;2024-04-03T03:24:22Z&quot;&lt;/div&gt;&lt;div&gt;&amp;nbsp; &amp;nbsp; &amp;nbsp; &amp;nbsp; message: &quot;&quot;&lt;/div&gt;&lt;div&gt;&amp;nbsp; &amp;nbsp; &amp;nbsp; &amp;nbsp; reason: NoStatusFeedbackSynced&lt;/div&gt;&lt;div&gt;&amp;nbsp; &amp;nbsp; &amp;nbsp; &amp;nbsp; status: &quot;True&quot;&lt;/div&gt;&lt;div&gt;&amp;nbsp; &amp;nbsp; &amp;nbsp; &amp;nbsp; type: StatusFeedbackSynced&lt;/div&gt;&lt;div&gt;&amp;nbsp; &amp;nbsp; &amp;nbsp; resourceMeta:&lt;/div&gt;&lt;div&gt;&amp;nbsp; &amp;nbsp; &amp;nbsp; &amp;nbsp; group: rbac.authorization.k8s.io&lt;/div&gt;&lt;div&gt;&amp;nbsp; &amp;nbsp; &amp;nbsp; &amp;nbsp; kind: ClusterRole&lt;/div&gt;&lt;div&gt;&amp;nbsp; &amp;nbsp; &amp;nbsp; &amp;nbsp; name: open-cluster-management:klusterlet-work-sa:agent:olm-edit&lt;/div&gt;&lt;div&gt;&amp;nbsp; &amp;nbsp; &amp;nbsp; &amp;nbsp; namespace: &quot;&quot;&lt;/div&gt;&lt;div&gt;&amp;nbsp; &amp;nbsp; &amp;nbsp; &amp;nbsp; ordinal: 5&lt;/div&gt;&lt;div&gt;&amp;nbsp; &amp;nbsp; &amp;nbsp; &amp;nbsp; resource: clusterroles&lt;/div&gt;&lt;div&gt;&amp;nbsp; &amp;nbsp; &amp;nbsp; &amp;nbsp; version: v1&lt;/div&gt;&lt;div&gt;&amp;nbsp; &amp;nbsp; &amp;nbsp; statusFeedback: {}&lt;/div&gt;&lt;div&gt;&amp;nbsp; &amp;nbsp; - conditions:&lt;/div&gt;&lt;div&gt;&amp;nbsp; &amp;nbsp; &amp;nbsp; - lastTransitionTime: &quot;2024-04-03T03:24:21Z&quot;&lt;/div&gt;&lt;div&gt;&amp;nbsp; &amp;nbsp; &amp;nbsp; &amp;nbsp; message: Apply manifest complete&lt;/div&gt;&lt;div&gt;&amp;nbsp; &amp;nbsp; &amp;nbsp; &amp;nbsp; reason: AppliedManifestComplete&lt;/div&gt;&lt;div&gt;&amp;nbsp; &amp;nbsp; &amp;nbsp; &amp;nbsp; status: &quot;True&quot;&lt;/div&gt;&lt;div&gt;&amp;nbsp; &amp;nbsp; &amp;nbsp; &amp;nbsp; type: Applied&lt;/div&gt;&lt;div&gt;&amp;nbsp; &amp;nbsp; &amp;nbsp; - lastTransitionTime: &quot;2024-04-03T03:24:22Z&quot;&lt;/div&gt;&lt;div&gt;&amp;nbsp; &amp;nbsp; &amp;nbsp; &amp;nbsp; message: Resource is available&lt;/div&gt;&lt;div&gt;&amp;nbsp; &amp;nbsp; &amp;nbsp; &amp;nbsp; reason: ResourceAvailable&lt;/div&gt;&lt;div&gt;&amp;nbsp; &amp;nbsp; &amp;nbsp; &amp;nbsp; status: &quot;True&quot;&lt;/div&gt;&lt;div&gt;&amp;nbsp; &amp;nbsp; &amp;nbsp; &amp;nbsp; type: Available&lt;/div&gt;&lt;div&gt;&amp;nbsp; &amp;nbsp; &amp;nbsp; - lastTransitionTime: &quot;2024-04-03T03:24:22Z&quot;&lt;/div&gt;&lt;div&gt;&amp;nbsp; &amp;nbsp; &amp;nbsp; &amp;nbsp; message: &quot;&quot;&lt;/div&gt;&lt;div&gt;&amp;nbsp; &amp;nbsp; &amp;nbsp; &amp;nbsp; reason: NoStatusFeedbackSynced&lt;/div&gt;&lt;div&gt;&amp;nbsp; &amp;nbsp; &amp;nbsp; &amp;nbsp; status: &quot;True&quot;&lt;/div&gt;&lt;div&gt;&amp;nbsp; &amp;nbsp; &amp;nbsp; &amp;nbsp; type: StatusFeedbackSynced&lt;/div&gt;&lt;div&gt;&amp;nbsp; &amp;nbsp; &amp;nbsp; resourceMeta:&lt;/div&gt;&lt;div&gt;&amp;nbsp; &amp;nbsp; &amp;nbsp; &amp;nbsp; group: rbac.authorization.k8s.io&lt;/div&gt;&lt;div&gt;&amp;nbsp; &amp;nbsp; &amp;nbsp; &amp;nbsp; kind: RoleBinding&lt;/div&gt;&lt;div&gt;&amp;nbsp; &amp;nbsp; &amp;nbsp; &amp;nbsp; name: open-cluster-management:klusterlet-work-sa:agent:olm-edit&lt;/div&gt;&lt;div&gt;&amp;nbsp; &amp;nbsp; &amp;nbsp; &amp;nbsp; namespace: ramen-system&lt;/div&gt;&lt;div&gt;&amp;nbsp; &amp;nbsp; &amp;nbsp; &amp;nbsp; ordinal: 6&lt;/div&gt;&lt;div&gt;&amp;nbsp; &amp;nbsp; &amp;nbsp; &amp;nbsp; resource: rolebindings&lt;/div&gt;&lt;div&gt;&amp;nbsp; &amp;nbsp; &amp;nbsp; &amp;nbsp; version: v1&lt;/div&gt;&lt;div&gt;&amp;nbsp; &amp;nbsp; &amp;nbsp; statusFeedback: {}&lt;/div&gt;&lt;div&gt;&amp;nbsp; &amp;nbsp; - conditions:&lt;/div&gt;&lt;div&gt;&amp;nbsp; &amp;nbsp; &amp;nbsp; - lastTransitionTime: &quot;2024-04-03T03:24:21Z&quot;&lt;/div&gt;&lt;div&gt;&amp;nbsp; &amp;nbsp; &amp;nbsp; &amp;nbsp; message: Apply manifest complete&lt;/div&gt;&lt;div&gt;&amp;nbsp; &amp;nbsp; &amp;nbsp; &amp;nbsp; reason: AppliedManifestComplete&lt;/div&gt;&lt;div&gt;&amp;nbsp; &amp;nbsp; &amp;nbsp; &amp;nbsp; status: &quot;True&quot;&lt;/div&gt;&lt;div&gt;&amp;nbsp; &amp;nbsp; &amp;nbsp; &amp;nbsp; type: Applied&lt;/div&gt;&lt;div&gt;&amp;nbsp; &amp;nbsp; &amp;nbsp; - lastTransitionTime: &quot;2024-04-03T03:24:22Z&quot;&lt;/div&gt;&lt;div&gt;&amp;nbsp; &amp;nbsp; &amp;nbsp; &amp;nbsp; message: Resource is available&lt;/div&gt;&lt;div&gt;&amp;nbsp; &amp;nbsp; &amp;nbsp; &amp;nbsp; reason: ResourceAvailable&lt;/div&gt;&lt;div&gt;&amp;nbsp; &amp;nbsp; &amp;nbsp; &amp;nbsp; status: &quot;True&quot;&lt;/div&gt;&lt;div&gt;&amp;nbsp; &amp;nbsp; &amp;nbsp; &amp;nbsp; type: Available&lt;/div&gt;&lt;div&gt;&amp;nbsp; &amp;nbsp; &amp;nbsp; - lastTransitionTime: &quot;2024-04-03T03:24:22Z&quot;&lt;/div&gt;&lt;div&gt;&amp;nbsp; &amp;nbsp; &amp;nbsp; &amp;nbsp; message: &quot;&quot;&lt;/div&gt;&lt;div&gt;&amp;nbsp; &amp;nbsp; &amp;nbsp; &amp;nbsp; reason: NoStatusFeedbackSynced&lt;/div&gt;&lt;div&gt;&amp;nbsp; &amp;nbsp; &amp;nbsp; &amp;nbsp; status: &quot;True&quot;&lt;/div&gt;&lt;div&gt;&amp;nbsp; &amp;nbsp; &amp;nbsp; &amp;nbsp; type: StatusFeedbackSynced&lt;/div&gt;&lt;div&gt;&amp;nbsp; &amp;nbsp; &amp;nbsp; resourceMeta:&lt;/div&gt;&lt;div&gt;&amp;nbsp; &amp;nbsp; &amp;nbsp; &amp;nbsp; group: operators.coreos.com&lt;/div&gt;&lt;div&gt;&amp;nbsp; &amp;nbsp; &amp;nbsp; &amp;nbsp; kind: OperatorGroup&lt;/div&gt;&lt;div&gt;&amp;nbsp; &amp;nbsp; &amp;nbsp; &amp;nbsp; name: ramen-operator-group&lt;/div&gt;&lt;div&gt;&amp;nbsp; &amp;nbsp; &amp;nbsp; &amp;nbsp; namespace: ramen-system&lt;/div&gt;&lt;div&gt;&amp;nbsp; &amp;nbsp; &amp;nbsp; &amp;nbsp; ordinal: 7&lt;/div&gt;&lt;div&gt;&amp;nbsp; &amp;nbsp; &amp;nbsp; &amp;nbsp; resource: operatorgroups&lt;/div&gt;&lt;div&gt;&amp;nbsp; &amp;nbsp; &amp;nbsp; &amp;nbsp; version: v1&lt;/div&gt;&lt;div&gt;&amp;nbsp; &amp;nbsp; &amp;nbsp; statusFeedback: {}&lt;/div&gt;&lt;div&gt;&amp;nbsp; &amp;nbsp; - conditions:&lt;/div&gt;&lt;div&gt;&amp;nbsp; &amp;nbsp; &amp;nbsp; - lastTransitionTime: &quot;2024-04-03T03:24:21Z&quot;&lt;/div&gt;&lt;div&gt;&amp;nbsp; &amp;nbsp; &amp;nbsp; &amp;nbsp; message: Apply manifest complete&lt;/div&gt;&lt;div&gt;&amp;nbsp; &amp;nbsp; &amp;nbsp; &amp;nbsp; reason: AppliedManifestComplete&lt;/div&gt;&lt;div&gt;&amp;nbsp; &amp;nbsp; &amp;nbsp; &amp;nbsp; status: &quot;True&quot;&lt;/div&gt;&lt;div&gt;&amp;nbsp; &amp;nbsp; &amp;nbsp; &amp;nbsp; type: Applied&lt;/div&gt;&lt;div&gt;&amp;nbsp; &amp;nbsp; &amp;nbsp; - lastTransitionTime: &quot;2024-04-03T03:49:35Z&quot;&lt;/div&gt;&lt;div&gt;&amp;nbsp; &amp;nbsp; &amp;nbsp; &amp;nbsp; message: Resource is available&lt;/div&gt;&lt;div&gt;&amp;nbsp; &amp;nbsp; &amp;nbsp; &amp;nbsp; reason: ResourceAvailable&lt;/div&gt;&lt;div&gt;&amp;nbsp; &amp;nbsp; &amp;nbsp; &amp;nbsp; status: &quot;True&quot;&lt;/div&gt;&lt;div&gt;&amp;nbsp; &amp;nbsp; &amp;nbsp; &amp;nbsp; type: Available&lt;/div&gt;&lt;div&gt;&amp;nbsp; &amp;nbsp; &amp;nbsp; - lastTransitionTime: &quot;2024-04-03T03:24:22Z&quot;&lt;/div&gt;&lt;div&gt;&amp;nbsp; &amp;nbsp; &amp;nbsp; &amp;nbsp; message: &quot;&quot;&lt;/div&gt;&lt;div&gt;&amp;nbsp; &amp;nbsp; &amp;nbsp; &amp;nbsp; reason: NoStatusFeedbackSynced&lt;/div&gt;&lt;div&gt;&amp;nbsp; &amp;nbsp; &amp;nbsp; &amp;nbsp; status: &quot;True&quot;&lt;/div&gt;&lt;div&gt;&amp;nbsp; &amp;nbsp; &amp;nbsp; &amp;nbsp; type: StatusFeedbackSynced&lt;/div&gt;&lt;div&gt;&amp;nbsp; &amp;nbsp; &amp;nbsp; resourceMeta:&lt;/div&gt;&lt;div&gt;&amp;nbsp; &amp;nbsp; &amp;nbsp; &amp;nbsp; group: &quot;&quot;&lt;/div&gt;&lt;div&gt;&amp;nbsp; &amp;nbsp; &amp;nbsp; &amp;nbsp; kind: ConfigMap&lt;/div&gt;&lt;div&gt;&amp;nbsp; &amp;nbsp; &amp;nbsp; &amp;nbsp; name: ramen-dr-cluster-operator-config&lt;/div&gt;&lt;div&gt;&amp;nbsp; &amp;nbsp; &amp;nbsp; &amp;nbsp; namespace: ramen-system&lt;/div&gt;&lt;div&gt;&amp;nbsp; &amp;nbsp; &amp;nbsp; &amp;nbsp; ordinal: 8&lt;/div&gt;&lt;div&gt;&amp;nbsp; &amp;nbsp; &amp;nbsp; &amp;nbsp; resource: configmaps&lt;/div&gt;&lt;div&gt;&amp;nbsp; &amp;nbsp; &amp;nbsp; &amp;nbsp; version: v1&lt;/div&gt;&lt;div&gt;&amp;nbsp; &amp;nbsp; &amp;nbsp; statusFeedback: {}&lt;/div&gt;&lt;div&gt;&amp;nbsp; &amp;nbsp; - conditions:&lt;/div&gt;&lt;div&gt;&amp;nbsp; &amp;nbsp; &amp;nbsp; - lastTransitionTime: &quot;2024-04-03T03:24:21Z&quot;&lt;/div&gt;&lt;div&gt;&amp;nbsp; &amp;nbsp; &amp;nbsp; &amp;nbsp; message: Apply manifest complete&lt;/div&gt;&lt;div&gt;&amp;nbsp; &amp;nbsp; &amp;nbsp; &amp;nbsp; reason: AppliedManifestComplete&lt;/div&gt;&lt;div&gt;&amp;nbsp; &amp;nbsp; &amp;nbsp; &amp;nbsp; status: &quot;True&quot;&lt;/div&gt;&lt;div&gt;&amp;nbsp; &amp;nbsp; &amp;nbsp; &amp;nbsp; type: Applied&lt;/div&gt;&lt;div&gt;&amp;nbsp; &amp;nbsp; &amp;nbsp; - lastTransitionTime: &quot;2024-04-03T03:24:22Z&quot;&lt;/div&gt;&lt;div&gt;&amp;nbsp; &amp;nbsp; &amp;nbsp; &amp;nbsp; message: Resource is available&lt;/div&gt;&lt;div&gt;&amp;nbsp; &amp;nbsp; &amp;nbsp; &amp;nbsp; reason: ResourceAvailable&lt;/div&gt;&lt;div&gt;&amp;nbsp; &amp;nbsp; &amp;nbsp; &amp;nbsp; status: &quot;True&quot;&lt;/div&gt;&lt;div&gt;&amp;nbsp; &amp;nbsp; &amp;nbsp; &amp;nbsp; type: Available&lt;/div&gt;&lt;div&gt;&amp;nbsp; &amp;nbsp; &amp;nbsp; - lastTransitionTime: &quot;2024-04-03T03:24:22Z&quot;&lt;/div&gt;&lt;div&gt;&amp;nbsp; &amp;nbsp; &amp;nbsp; &amp;nbsp; message: &quot;&quot;&lt;/div&gt;&lt;div&gt;&amp;nbsp; &amp;nbsp; &amp;nbsp; &amp;nbsp; reason: NoStatusFeedbackSynced&lt;/div&gt;&lt;div&gt;&amp;nbsp; &amp;nbsp; &amp;nbsp; &amp;nbsp; status: &quot;True&quot;&lt;/div&gt;&lt;div&gt;&amp;nbsp; &amp;nbsp; &amp;nbsp; &amp;nbsp; type: StatusFeedbackSynced&lt;/div&gt;&lt;div&gt;&amp;nbsp; &amp;nbsp; &amp;nbsp; resourceMeta:&lt;/div&gt;&lt;div&gt;&amp;nbsp; &amp;nbsp; &amp;nbsp; &amp;nbsp; group: operators.coreos.com&lt;/div&gt;&lt;div&gt;&amp;nbsp; &amp;nbsp; &amp;nbsp; &amp;nbsp; kind: Subscription&lt;/div&gt;&lt;div&gt;&amp;nbsp; &amp;nbsp; &amp;nbsp; &amp;nbsp; name: ramen-dr-cluster-subscription&lt;/div&gt;&lt;div&gt;&amp;nbsp; &amp;nbsp; &amp;nbsp; &amp;nbsp; namespace: ramen-system&lt;/div&gt;&lt;div&gt;&amp;nbsp; &amp;nbsp; &amp;nbsp; &amp;nbsp; ordinal: 9&lt;/div&gt;&lt;div&gt;&amp;nbsp; &amp;nbsp; &amp;nbsp; &amp;nbsp; resource: subscriptions&lt;/div&gt;&lt;div&gt;&amp;nbsp; &amp;nbsp; &amp;nbsp; &amp;nbsp; version: v1alpha1&lt;/div&gt;&lt;div&gt;&amp;nbsp; &amp;nbsp; &amp;nbsp; statusFeedback: {}&lt;/div&gt;" style="text;strokeColor=none;fillColor=default;align=left;verticalAlign=middle;spacingLeft=4;spacingRight=4;overflow=hidden;points=[[0,0.5],[1,0.5]];portConstraint=eastwest;rotatable=0;whiteSpace=wrap;html=1;" parent="U8NHltKQ1rlB9dk0PbJg-111" vertex="1">
          <mxGeometry y="30" width="450" height="6490" as="geometry" />
        </mxCell>
        <mxCell id="U8NHltKQ1rlB9dk0PbJg-115" value="ramen-dr-cluster MW in dr2" style="swimlane;fontStyle=0;childLayout=stackLayout;horizontal=1;startSize=30;horizontalStack=0;resizeParent=1;resizeParentMax=0;resizeLast=0;collapsible=1;marginBottom=0;whiteSpace=wrap;html=1;" parent="1" vertex="1" collapsed="1">
          <mxGeometry x="946" y="417" width="190" height="30" as="geometry">
            <mxRectangle x="860" y="220" width="450" height="6520" as="alternateBounds" />
          </mxGeometry>
        </mxCell>
        <mxCell id="U8NHltKQ1rlB9dk0PbJg-116" value="&lt;div&gt;apiVersion: work.open-cluster-management.io/v1&lt;/div&gt;&lt;div&gt;kind: ManifestWork&lt;/div&gt;&lt;div&gt;metadata:&lt;/div&gt;&lt;div&gt;&amp;nbsp; annotations:&lt;/div&gt;&lt;div&gt;&amp;nbsp; &amp;nbsp; drcluster.ramendr.openshift.io/drcluster-name: dr2&lt;/div&gt;&lt;div&gt;&amp;nbsp; creationTimestamp: &quot;2024-04-03T03:24:16Z&quot;&lt;/div&gt;&lt;div&gt;&amp;nbsp; finalizers:&lt;/div&gt;&lt;div&gt;&amp;nbsp; - cluster.open-cluster-management.io/manifest-work-cleanup&lt;/div&gt;&lt;div&gt;&amp;nbsp; generation: 1&lt;/div&gt;&lt;div&gt;&amp;nbsp; name: ramen-dr-cluster&lt;/div&gt;&lt;div&gt;&amp;nbsp; namespace: dr2&lt;/div&gt;&lt;div&gt;&amp;nbsp; resourceVersion: &quot;20607&quot;&lt;/div&gt;&lt;div&gt;&amp;nbsp; uid: 20d183c0-da8d-4bcd-9a12-954a531bfd2a&lt;/div&gt;&lt;div&gt;spec:&lt;/div&gt;&lt;div&gt;&amp;nbsp; workload:&lt;/div&gt;&lt;div&gt;&amp;nbsp; &amp;nbsp; manifests:&lt;/div&gt;&lt;div&gt;&amp;nbsp; &amp;nbsp; - apiVersion: rbac.authorization.k8s.io/v1&lt;/div&gt;&lt;div&gt;&amp;nbsp; &amp;nbsp; &amp;nbsp; kind: ClusterRole&lt;/div&gt;&lt;div&gt;&amp;nbsp; &amp;nbsp; &amp;nbsp; metadata:&lt;/div&gt;&lt;div&gt;&amp;nbsp; &amp;nbsp; &amp;nbsp; &amp;nbsp; name: open-cluster-management:klusterlet-work-sa:agent:volrepgroup-edit&lt;/div&gt;&lt;div&gt;&amp;nbsp; &amp;nbsp; &amp;nbsp; rules:&lt;/div&gt;&lt;div&gt;&amp;nbsp; &amp;nbsp; &amp;nbsp; - apiGroups:&lt;/div&gt;&lt;div&gt;&amp;nbsp; &amp;nbsp; &amp;nbsp; &amp;nbsp; - ramendr.openshift.io&lt;/div&gt;&lt;div&gt;&amp;nbsp; &amp;nbsp; &amp;nbsp; &amp;nbsp; resources:&lt;/div&gt;&lt;div&gt;&amp;nbsp; &amp;nbsp; &amp;nbsp; &amp;nbsp; - volumereplicationgroups&lt;/div&gt;&lt;div&gt;&amp;nbsp; &amp;nbsp; &amp;nbsp; &amp;nbsp; verbs:&lt;/div&gt;&lt;div&gt;&amp;nbsp; &amp;nbsp; &amp;nbsp; &amp;nbsp; - create&lt;/div&gt;&lt;div&gt;&amp;nbsp; &amp;nbsp; &amp;nbsp; &amp;nbsp; - get&lt;/div&gt;&lt;div&gt;&amp;nbsp; &amp;nbsp; &amp;nbsp; &amp;nbsp; - list&lt;/div&gt;&lt;div&gt;&amp;nbsp; &amp;nbsp; &amp;nbsp; &amp;nbsp; - update&lt;/div&gt;&lt;div&gt;&amp;nbsp; &amp;nbsp; &amp;nbsp; &amp;nbsp; - delete&lt;/div&gt;&lt;div&gt;&amp;nbsp; &amp;nbsp; - apiVersion: rbac.authorization.k8s.io/v1&lt;/div&gt;&lt;div&gt;&amp;nbsp; &amp;nbsp; &amp;nbsp; kind: ClusterRoleBinding&lt;/div&gt;&lt;div&gt;&amp;nbsp; &amp;nbsp; &amp;nbsp; metadata:&lt;/div&gt;&lt;div&gt;&amp;nbsp; &amp;nbsp; &amp;nbsp; &amp;nbsp; name: open-cluster-management:klusterlet-work-sa:agent:volrepgroup-edit&lt;/div&gt;&lt;div&gt;&amp;nbsp; &amp;nbsp; &amp;nbsp; roleRef:&lt;/div&gt;&lt;div&gt;&amp;nbsp; &amp;nbsp; &amp;nbsp; &amp;nbsp; apiGroup: rbac.authorization.k8s.io&lt;/div&gt;&lt;div&gt;&amp;nbsp; &amp;nbsp; &amp;nbsp; &amp;nbsp; kind: ClusterRole&lt;/div&gt;&lt;div&gt;&amp;nbsp; &amp;nbsp; &amp;nbsp; &amp;nbsp; name: open-cluster-management:klusterlet-work-sa:agent:volrepgroup-edit&lt;/div&gt;&lt;div&gt;&amp;nbsp; &amp;nbsp; &amp;nbsp; subjects:&lt;/div&gt;&lt;div&gt;&amp;nbsp; &amp;nbsp; &amp;nbsp; - kind: ServiceAccount&lt;/div&gt;&lt;div&gt;&amp;nbsp; &amp;nbsp; &amp;nbsp; &amp;nbsp; name: klusterlet-work-sa&lt;/div&gt;&lt;div&gt;&amp;nbsp; &amp;nbsp; &amp;nbsp; &amp;nbsp; namespace: open-cluster-management-agent&lt;/div&gt;&lt;div&gt;&amp;nbsp; &amp;nbsp; - apiVersion: rbac.authorization.k8s.io/v1&lt;/div&gt;&lt;div&gt;&amp;nbsp; &amp;nbsp; &amp;nbsp; kind: ClusterRole&lt;/div&gt;&lt;div&gt;&amp;nbsp; &amp;nbsp; &amp;nbsp; metadata:&lt;/div&gt;&lt;div&gt;&amp;nbsp; &amp;nbsp; &amp;nbsp; &amp;nbsp; name: open-cluster-management:klusterlet-work-sa:agent:mmode-edit&lt;/div&gt;&lt;div&gt;&amp;nbsp; &amp;nbsp; &amp;nbsp; rules:&lt;/div&gt;&lt;div&gt;&amp;nbsp; &amp;nbsp; &amp;nbsp; - apiGroups:&lt;/div&gt;&lt;div&gt;&amp;nbsp; &amp;nbsp; &amp;nbsp; &amp;nbsp; - ramendr.openshift.io&lt;/div&gt;&lt;div&gt;&amp;nbsp; &amp;nbsp; &amp;nbsp; &amp;nbsp; resources:&lt;/div&gt;&lt;div&gt;&amp;nbsp; &amp;nbsp; &amp;nbsp; &amp;nbsp; - maintenancemodes&lt;/div&gt;&lt;div&gt;&amp;nbsp; &amp;nbsp; &amp;nbsp; &amp;nbsp; verbs:&lt;/div&gt;&lt;div&gt;&amp;nbsp; &amp;nbsp; &amp;nbsp; &amp;nbsp; - create&lt;/div&gt;&lt;div&gt;&amp;nbsp; &amp;nbsp; &amp;nbsp; &amp;nbsp; - get&lt;/div&gt;&lt;div&gt;&amp;nbsp; &amp;nbsp; &amp;nbsp; &amp;nbsp; - list&lt;/div&gt;&lt;div&gt;&amp;nbsp; &amp;nbsp; &amp;nbsp; &amp;nbsp; - update&lt;/div&gt;&lt;div&gt;&amp;nbsp; &amp;nbsp; &amp;nbsp; &amp;nbsp; - delete&lt;/div&gt;&lt;div&gt;&amp;nbsp; &amp;nbsp; - apiVersion: rbac.authorization.k8s.io/v1&lt;/div&gt;&lt;div&gt;&amp;nbsp; &amp;nbsp; &amp;nbsp; kind: ClusterRoleBinding&lt;/div&gt;&lt;div&gt;&amp;nbsp; &amp;nbsp; &amp;nbsp; metadata:&lt;/div&gt;&lt;div&gt;&amp;nbsp; &amp;nbsp; &amp;nbsp; &amp;nbsp; name: open-cluster-management:klusterlet-work-sa:agent:mmode-edit&lt;/div&gt;&lt;div&gt;&amp;nbsp; &amp;nbsp; &amp;nbsp; roleRef:&lt;/div&gt;&lt;div&gt;&amp;nbsp; &amp;nbsp; &amp;nbsp; &amp;nbsp; apiGroup: rbac.authorization.k8s.io&lt;/div&gt;&lt;div&gt;&amp;nbsp; &amp;nbsp; &amp;nbsp; &amp;nbsp; kind: ClusterRole&lt;/div&gt;&lt;div&gt;&amp;nbsp; &amp;nbsp; &amp;nbsp; &amp;nbsp; name: open-cluster-management:klusterlet-work-sa:agent:mmode-edit&lt;/div&gt;&lt;div&gt;&amp;nbsp; &amp;nbsp; &amp;nbsp; subjects:&lt;/div&gt;&lt;div&gt;&amp;nbsp; &amp;nbsp; &amp;nbsp; - kind: ServiceAccount&lt;/div&gt;&lt;div&gt;&amp;nbsp; &amp;nbsp; &amp;nbsp; &amp;nbsp; name: klusterlet-work-sa&lt;/div&gt;&lt;div&gt;&amp;nbsp; &amp;nbsp; &amp;nbsp; &amp;nbsp; namespace: open-cluster-management-agent&lt;/div&gt;&lt;div&gt;&amp;nbsp; &amp;nbsp; - apiVersion: v1&lt;/div&gt;&lt;div&gt;&amp;nbsp; &amp;nbsp; &amp;nbsp; kind: Namespace&lt;/div&gt;&lt;div&gt;&amp;nbsp; &amp;nbsp; &amp;nbsp; metadata:&lt;/div&gt;&lt;div&gt;&amp;nbsp; &amp;nbsp; &amp;nbsp; &amp;nbsp; name: ramen-system&lt;/div&gt;&lt;div&gt;&amp;nbsp; &amp;nbsp; &amp;nbsp; spec: {}&lt;/div&gt;&lt;div&gt;&amp;nbsp; &amp;nbsp; &amp;nbsp; status: {}&lt;/div&gt;&lt;div&gt;&amp;nbsp; &amp;nbsp; - apiVersion: rbac.authorization.k8s.io/v1&lt;/div&gt;&lt;div&gt;&amp;nbsp; &amp;nbsp; &amp;nbsp; kind: ClusterRole&lt;/div&gt;&lt;div&gt;&amp;nbsp; &amp;nbsp; &amp;nbsp; metadata:&lt;/div&gt;&lt;div&gt;&amp;nbsp; &amp;nbsp; &amp;nbsp; &amp;nbsp; name: open-cluster-management:klusterlet-work-sa:agent:olm-edit&lt;/div&gt;&lt;div&gt;&amp;nbsp; &amp;nbsp; &amp;nbsp; rules:&lt;/div&gt;&lt;div&gt;&amp;nbsp; &amp;nbsp; &amp;nbsp; - apiGroups:&lt;/div&gt;&lt;div&gt;&amp;nbsp; &amp;nbsp; &amp;nbsp; &amp;nbsp; - operators.coreos.com&lt;/div&gt;&lt;div&gt;&amp;nbsp; &amp;nbsp; &amp;nbsp; &amp;nbsp; resources:&lt;/div&gt;&lt;div&gt;&amp;nbsp; &amp;nbsp; &amp;nbsp; &amp;nbsp; - operatorgroups&lt;/div&gt;&lt;div&gt;&amp;nbsp; &amp;nbsp; &amp;nbsp; &amp;nbsp; verbs:&lt;/div&gt;&lt;div&gt;&amp;nbsp; &amp;nbsp; &amp;nbsp; &amp;nbsp; - create&lt;/div&gt;&lt;div&gt;&amp;nbsp; &amp;nbsp; &amp;nbsp; &amp;nbsp; - get&lt;/div&gt;&lt;div&gt;&amp;nbsp; &amp;nbsp; &amp;nbsp; &amp;nbsp; - list&lt;/div&gt;&lt;div&gt;&amp;nbsp; &amp;nbsp; &amp;nbsp; &amp;nbsp; - update&lt;/div&gt;&lt;div&gt;&amp;nbsp; &amp;nbsp; &amp;nbsp; &amp;nbsp; - delete&lt;/div&gt;&lt;div&gt;&amp;nbsp; &amp;nbsp; - apiVersion: rbac.authorization.k8s.io/v1&lt;/div&gt;&lt;div&gt;&amp;nbsp; &amp;nbsp; &amp;nbsp; kind: RoleBinding&lt;/div&gt;&lt;div&gt;&amp;nbsp; &amp;nbsp; &amp;nbsp; metadata:&lt;/div&gt;&lt;div&gt;&amp;nbsp; &amp;nbsp; &amp;nbsp; &amp;nbsp; name: open-cluster-management:klusterlet-work-sa:agent:olm-edit&lt;/div&gt;&lt;div&gt;&amp;nbsp; &amp;nbsp; &amp;nbsp; &amp;nbsp; namespace: ramen-system&lt;/div&gt;&lt;div&gt;&amp;nbsp; &amp;nbsp; &amp;nbsp; roleRef:&lt;/div&gt;&lt;div&gt;&amp;nbsp; &amp;nbsp; &amp;nbsp; &amp;nbsp; apiGroup: rbac.authorization.k8s.io&lt;/div&gt;&lt;div&gt;&amp;nbsp; &amp;nbsp; &amp;nbsp; &amp;nbsp; kind: ClusterRole&lt;/div&gt;&lt;div&gt;&amp;nbsp; &amp;nbsp; &amp;nbsp; &amp;nbsp; name: open-cluster-management:klusterlet-work-sa:agent:olm-edit&lt;/div&gt;&lt;div&gt;&amp;nbsp; &amp;nbsp; &amp;nbsp; subjects:&lt;/div&gt;&lt;div&gt;&amp;nbsp; &amp;nbsp; &amp;nbsp; - kind: ServiceAccount&lt;/div&gt;&lt;div&gt;&amp;nbsp; &amp;nbsp; &amp;nbsp; &amp;nbsp; name: klusterlet-work-sa&lt;/div&gt;&lt;div&gt;&amp;nbsp; &amp;nbsp; &amp;nbsp; &amp;nbsp; namespace: open-cluster-management-agent&lt;/div&gt;&lt;div&gt;&amp;nbsp; &amp;nbsp; - apiVersion: operators.coreos.com/v1&lt;/div&gt;&lt;div&gt;&amp;nbsp; &amp;nbsp; &amp;nbsp; kind: OperatorGroup&lt;/div&gt;&lt;div&gt;&amp;nbsp; &amp;nbsp; &amp;nbsp; metadata:&lt;/div&gt;&lt;div&gt;&amp;nbsp; &amp;nbsp; &amp;nbsp; &amp;nbsp; name: ramen-operator-group&lt;/div&gt;&lt;div&gt;&amp;nbsp; &amp;nbsp; &amp;nbsp; &amp;nbsp; namespace: ramen-system&lt;/div&gt;&lt;div&gt;&amp;nbsp; &amp;nbsp; &amp;nbsp; spec: {}&lt;/div&gt;&lt;div&gt;&amp;nbsp; &amp;nbsp; &amp;nbsp; status:&lt;/div&gt;&lt;div&gt;&amp;nbsp; &amp;nbsp; &amp;nbsp; &amp;nbsp; lastUpdated: null&lt;/div&gt;&lt;div&gt;&amp;nbsp; &amp;nbsp; - apiVersion: v1&lt;/div&gt;&lt;div&gt;&amp;nbsp; &amp;nbsp; &amp;nbsp; data:&lt;/div&gt;&lt;div&gt;&amp;nbsp; &amp;nbsp; &amp;nbsp; &amp;nbsp; ramen_manager_config.yaml: |&lt;/div&gt;&lt;div&gt;&amp;nbsp; &amp;nbsp; &amp;nbsp; &amp;nbsp; &amp;nbsp; apiVersion: ramendr.openshift.io/v1alpha1&lt;/div&gt;&lt;div&gt;&amp;nbsp; &amp;nbsp; &amp;nbsp; &amp;nbsp; &amp;nbsp; drClusterOperator:&lt;/div&gt;&lt;div&gt;&amp;nbsp; &amp;nbsp; &amp;nbsp; &amp;nbsp; &amp;nbsp; &amp;nbsp; catalogSourceName: ramen-catalog&lt;/div&gt;&lt;div&gt;&amp;nbsp; &amp;nbsp; &amp;nbsp; &amp;nbsp; &amp;nbsp; &amp;nbsp; catalogSourceNamespaceName: ramen-system&lt;/div&gt;&lt;div&gt;&amp;nbsp; &amp;nbsp; &amp;nbsp; &amp;nbsp; &amp;nbsp; &amp;nbsp; channelName: alpha&lt;/div&gt;&lt;div&gt;&amp;nbsp; &amp;nbsp; &amp;nbsp; &amp;nbsp; &amp;nbsp; &amp;nbsp; clusterServiceVersionName: ramen-dr-cluster-operator.v0.0.1&lt;/div&gt;&lt;div&gt;&amp;nbsp; &amp;nbsp; &amp;nbsp; &amp;nbsp; &amp;nbsp; &amp;nbsp; deploymentAutomationEnabled: true&lt;/div&gt;&lt;div&gt;&amp;nbsp; &amp;nbsp; &amp;nbsp; &amp;nbsp; &amp;nbsp; &amp;nbsp; namespaceName: ramen-system&lt;/div&gt;&lt;div&gt;&amp;nbsp; &amp;nbsp; &amp;nbsp; &amp;nbsp; &amp;nbsp; &amp;nbsp; packageName: ramen-dr-cluster-operator&lt;/div&gt;&lt;div&gt;&amp;nbsp; &amp;nbsp; &amp;nbsp; &amp;nbsp; &amp;nbsp; &amp;nbsp; s3SecretDistributionEnabled: true&lt;/div&gt;&lt;div&gt;&amp;nbsp; &amp;nbsp; &amp;nbsp; &amp;nbsp; &amp;nbsp; health:&lt;/div&gt;&lt;div&gt;&amp;nbsp; &amp;nbsp; &amp;nbsp; &amp;nbsp; &amp;nbsp; &amp;nbsp; healthProbeBindAddress: :8081&lt;/div&gt;&lt;div&gt;&amp;nbsp; &amp;nbsp; &amp;nbsp; &amp;nbsp; &amp;nbsp; kind: RamenConfig&lt;/div&gt;&lt;div&gt;&amp;nbsp; &amp;nbsp; &amp;nbsp; &amp;nbsp; &amp;nbsp; kubeObjectProtection:&lt;/div&gt;&lt;div&gt;&amp;nbsp; &amp;nbsp; &amp;nbsp; &amp;nbsp; &amp;nbsp; &amp;nbsp; veleroNamespaceName: velero&lt;/div&gt;&lt;div&gt;&amp;nbsp; &amp;nbsp; &amp;nbsp; &amp;nbsp; &amp;nbsp; leaderElection:&lt;/div&gt;&lt;div&gt;&amp;nbsp; &amp;nbsp; &amp;nbsp; &amp;nbsp; &amp;nbsp; &amp;nbsp; leaderElect: true&lt;/div&gt;&lt;div&gt;&amp;nbsp; &amp;nbsp; &amp;nbsp; &amp;nbsp; &amp;nbsp; &amp;nbsp; leaseDuration: 0s&lt;/div&gt;&lt;div&gt;&amp;nbsp; &amp;nbsp; &amp;nbsp; &amp;nbsp; &amp;nbsp; &amp;nbsp; renewDeadline: 0s&lt;/div&gt;&lt;div&gt;&amp;nbsp; &amp;nbsp; &amp;nbsp; &amp;nbsp; &amp;nbsp; &amp;nbsp; resourceLock: &quot;&quot;&lt;/div&gt;&lt;div&gt;&amp;nbsp; &amp;nbsp; &amp;nbsp; &amp;nbsp; &amp;nbsp; &amp;nbsp; resourceName: dr-cluster.ramendr.openshift.io&lt;/div&gt;&lt;div&gt;&amp;nbsp; &amp;nbsp; &amp;nbsp; &amp;nbsp; &amp;nbsp; &amp;nbsp; resourceNamespace: &quot;&quot;&lt;/div&gt;&lt;div&gt;&amp;nbsp; &amp;nbsp; &amp;nbsp; &amp;nbsp; &amp;nbsp; &amp;nbsp; retryPeriod: 0s&lt;/div&gt;&lt;div&gt;&amp;nbsp; &amp;nbsp; &amp;nbsp; &amp;nbsp; &amp;nbsp; maxConcurrentReconciles: 50&lt;/div&gt;&lt;div&gt;&amp;nbsp; &amp;nbsp; &amp;nbsp; &amp;nbsp; &amp;nbsp; metrics:&lt;/div&gt;&lt;div&gt;&amp;nbsp; &amp;nbsp; &amp;nbsp; &amp;nbsp; &amp;nbsp; &amp;nbsp; bindAddress: 127.0.0.1:9289&lt;/div&gt;&lt;div&gt;&amp;nbsp; &amp;nbsp; &amp;nbsp; &amp;nbsp; &amp;nbsp; multiNamespace: {}&lt;/div&gt;&lt;div&gt;&amp;nbsp; &amp;nbsp; &amp;nbsp; &amp;nbsp; &amp;nbsp; ramenControllerType: dr-cluster&lt;/div&gt;&lt;div&gt;&amp;nbsp; &amp;nbsp; &amp;nbsp; &amp;nbsp; &amp;nbsp; s3StoreProfiles:&lt;/div&gt;&lt;div&gt;&amp;nbsp; &amp;nbsp; &amp;nbsp; &amp;nbsp; &amp;nbsp; - s3Bucket: bucket&lt;/div&gt;&lt;div&gt;&amp;nbsp; &amp;nbsp; &amp;nbsp; &amp;nbsp; &amp;nbsp; &amp;nbsp; s3CompatibleEndpoint: http://192.168.122.116:30000&lt;/div&gt;&lt;div&gt;&amp;nbsp; &amp;nbsp; &amp;nbsp; &amp;nbsp; &amp;nbsp; &amp;nbsp; s3ProfileName: minio-on-dr1&lt;/div&gt;&lt;div&gt;&amp;nbsp; &amp;nbsp; &amp;nbsp; &amp;nbsp; &amp;nbsp; &amp;nbsp; s3Region: us-west-1&lt;/div&gt;&lt;div&gt;&amp;nbsp; &amp;nbsp; &amp;nbsp; &amp;nbsp; &amp;nbsp; &amp;nbsp; s3SecretRef:&lt;/div&gt;&lt;div&gt;&amp;nbsp; &amp;nbsp; &amp;nbsp; &amp;nbsp; &amp;nbsp; &amp;nbsp; &amp;nbsp; name: ramen-s3-secret-dr1&lt;/div&gt;&lt;div&gt;&amp;nbsp; &amp;nbsp; &amp;nbsp; &amp;nbsp; &amp;nbsp; &amp;nbsp; &amp;nbsp; namespace: ramen-system&lt;/div&gt;&lt;div&gt;&amp;nbsp; &amp;nbsp; &amp;nbsp; &amp;nbsp; &amp;nbsp; &amp;nbsp; veleroNamespaceSecretKeyRef:&lt;/div&gt;&lt;div&gt;&amp;nbsp; &amp;nbsp; &amp;nbsp; &amp;nbsp; &amp;nbsp; &amp;nbsp; &amp;nbsp; key: cloud&lt;/div&gt;&lt;div&gt;&amp;nbsp; &amp;nbsp; &amp;nbsp; &amp;nbsp; &amp;nbsp; &amp;nbsp; &amp;nbsp; name: cloud-credentials&lt;/div&gt;&lt;div&gt;&amp;nbsp; &amp;nbsp; &amp;nbsp; &amp;nbsp; &amp;nbsp; - s3Bucket: bucket&lt;/div&gt;&lt;div&gt;&amp;nbsp; &amp;nbsp; &amp;nbsp; &amp;nbsp; &amp;nbsp; &amp;nbsp; s3CompatibleEndpoint: http://192.168.122.147:30000&lt;/div&gt;&lt;div&gt;&amp;nbsp; &amp;nbsp; &amp;nbsp; &amp;nbsp; &amp;nbsp; &amp;nbsp; s3ProfileName: minio-on-dr2&lt;/div&gt;&lt;div&gt;&amp;nbsp; &amp;nbsp; &amp;nbsp; &amp;nbsp; &amp;nbsp; &amp;nbsp; s3Region: us-east-1&lt;/div&gt;&lt;div&gt;&amp;nbsp; &amp;nbsp; &amp;nbsp; &amp;nbsp; &amp;nbsp; &amp;nbsp; s3SecretRef:&lt;/div&gt;&lt;div&gt;&amp;nbsp; &amp;nbsp; &amp;nbsp; &amp;nbsp; &amp;nbsp; &amp;nbsp; &amp;nbsp; name: ramen-s3-secret-dr2&lt;/div&gt;&lt;div&gt;&amp;nbsp; &amp;nbsp; &amp;nbsp; &amp;nbsp; &amp;nbsp; &amp;nbsp; &amp;nbsp; namespace: ramen-system&lt;/div&gt;&lt;div&gt;&amp;nbsp; &amp;nbsp; &amp;nbsp; &amp;nbsp; &amp;nbsp; &amp;nbsp; veleroNamespaceSecretKeyRef:&lt;/div&gt;&lt;div&gt;&amp;nbsp; &amp;nbsp; &amp;nbsp; &amp;nbsp; &amp;nbsp; &amp;nbsp; &amp;nbsp; key: cloud&lt;/div&gt;&lt;div&gt;&amp;nbsp; &amp;nbsp; &amp;nbsp; &amp;nbsp; &amp;nbsp; &amp;nbsp; &amp;nbsp; name: cloud-credentials&lt;/div&gt;&lt;div&gt;&amp;nbsp; &amp;nbsp; &amp;nbsp; &amp;nbsp; &amp;nbsp; volSync: {}&lt;/div&gt;&lt;div&gt;&amp;nbsp; &amp;nbsp; &amp;nbsp; &amp;nbsp; &amp;nbsp; webhook:&lt;/div&gt;&lt;div&gt;&amp;nbsp; &amp;nbsp; &amp;nbsp; &amp;nbsp; &amp;nbsp; &amp;nbsp; port: 9443&lt;/div&gt;&lt;div&gt;&amp;nbsp; &amp;nbsp; &amp;nbsp; kind: ConfigMap&lt;/div&gt;&lt;div&gt;&amp;nbsp; &amp;nbsp; &amp;nbsp; metadata:&lt;/div&gt;&lt;div&gt;&amp;nbsp; &amp;nbsp; &amp;nbsp; &amp;nbsp; name: ramen-dr-cluster-operator-config&lt;/div&gt;&lt;div&gt;&amp;nbsp; &amp;nbsp; &amp;nbsp; &amp;nbsp; namespace: ramen-system&lt;/div&gt;&lt;div&gt;&amp;nbsp; &amp;nbsp; - apiVersion: operators.coreos.com/v1alpha1&lt;/div&gt;&lt;div&gt;&amp;nbsp; &amp;nbsp; &amp;nbsp; kind: Subscription&lt;/div&gt;&lt;div&gt;&amp;nbsp; &amp;nbsp; &amp;nbsp; metadata:&lt;/div&gt;&lt;div&gt;&amp;nbsp; &amp;nbsp; &amp;nbsp; &amp;nbsp; name: ramen-dr-cluster-subscription&lt;/div&gt;&lt;div&gt;&amp;nbsp; &amp;nbsp; &amp;nbsp; &amp;nbsp; namespace: ramen-system&lt;/div&gt;&lt;div&gt;&amp;nbsp; &amp;nbsp; &amp;nbsp; spec:&lt;/div&gt;&lt;div&gt;&amp;nbsp; &amp;nbsp; &amp;nbsp; &amp;nbsp; channel: alpha&lt;/div&gt;&lt;div&gt;&amp;nbsp; &amp;nbsp; &amp;nbsp; &amp;nbsp; installPlanApproval: Automatic&lt;/div&gt;&lt;div&gt;&amp;nbsp; &amp;nbsp; &amp;nbsp; &amp;nbsp; name: ramen-dr-cluster-operator&lt;/div&gt;&lt;div&gt;&amp;nbsp; &amp;nbsp; &amp;nbsp; &amp;nbsp; source: ramen-catalog&lt;/div&gt;&lt;div&gt;&amp;nbsp; &amp;nbsp; &amp;nbsp; &amp;nbsp; sourceNamespace: ramen-system&lt;/div&gt;&lt;div&gt;&amp;nbsp; &amp;nbsp; &amp;nbsp; &amp;nbsp; startingCSV: ramen-dr-cluster-operator.v0.0.1&lt;/div&gt;&lt;div&gt;&amp;nbsp; &amp;nbsp; &amp;nbsp; status:&lt;/div&gt;&lt;div&gt;&amp;nbsp; &amp;nbsp; &amp;nbsp; &amp;nbsp; lastUpdated: null&lt;/div&gt;&lt;div&gt;status:&lt;/div&gt;&lt;div&gt;&amp;nbsp; conditions:&lt;/div&gt;&lt;div&gt;&amp;nbsp; - lastTransitionTime: &quot;2024-04-03T03:49:16Z&quot;&lt;/div&gt;&lt;div&gt;&amp;nbsp; &amp;nbsp; message: Apply manifest work complete&lt;/div&gt;&lt;div&gt;&amp;nbsp; &amp;nbsp; observedGeneration: 1&lt;/div&gt;&lt;div&gt;&amp;nbsp; &amp;nbsp; reason: AppliedManifestWorkComplete&lt;/div&gt;&lt;div&gt;&amp;nbsp; &amp;nbsp; status: &quot;True&quot;&lt;/div&gt;&lt;div&gt;&amp;nbsp; &amp;nbsp; type: Applied&lt;/div&gt;&lt;div&gt;&amp;nbsp; - lastTransitionTime: &quot;2024-04-03T03:24:26Z&quot;&lt;/div&gt;&lt;div&gt;&amp;nbsp; &amp;nbsp; message: All resources are available&lt;/div&gt;&lt;div&gt;&amp;nbsp; &amp;nbsp; observedGeneration: 1&lt;/div&gt;&lt;div&gt;&amp;nbsp; &amp;nbsp; reason: ResourcesAvailable&lt;/div&gt;&lt;div&gt;&amp;nbsp; &amp;nbsp; status: &quot;True&quot;&lt;/div&gt;&lt;div&gt;&amp;nbsp; &amp;nbsp; type: Available&lt;/div&gt;&lt;div&gt;&amp;nbsp; resourceStatus:&lt;/div&gt;&lt;div&gt;&amp;nbsp; &amp;nbsp; manifests:&lt;/div&gt;&lt;div&gt;&amp;nbsp; &amp;nbsp; - conditions:&lt;/div&gt;&lt;div&gt;&amp;nbsp; &amp;nbsp; &amp;nbsp; - lastTransitionTime: &quot;2024-04-03T03:24:24Z&quot;&lt;/div&gt;&lt;div&gt;&amp;nbsp; &amp;nbsp; &amp;nbsp; &amp;nbsp; message: Apply manifest complete&lt;/div&gt;&lt;div&gt;&amp;nbsp; &amp;nbsp; &amp;nbsp; &amp;nbsp; reason: AppliedManifestComplete&lt;/div&gt;&lt;div&gt;&amp;nbsp; &amp;nbsp; &amp;nbsp; &amp;nbsp; status: &quot;True&quot;&lt;/div&gt;&lt;div&gt;&amp;nbsp; &amp;nbsp; &amp;nbsp; &amp;nbsp; type: Applied&lt;/div&gt;&lt;div&gt;&amp;nbsp; &amp;nbsp; &amp;nbsp; - lastTransitionTime: &quot;2024-04-03T03:24:25Z&quot;&lt;/div&gt;&lt;div&gt;&amp;nbsp; &amp;nbsp; &amp;nbsp; &amp;nbsp; message: Resource is available&lt;/div&gt;&lt;div&gt;&amp;nbsp; &amp;nbsp; &amp;nbsp; &amp;nbsp; reason: ResourceAvailable&lt;/div&gt;&lt;div&gt;&amp;nbsp; &amp;nbsp; &amp;nbsp; &amp;nbsp; status: &quot;True&quot;&lt;/div&gt;&lt;div&gt;&amp;nbsp; &amp;nbsp; &amp;nbsp; &amp;nbsp; type: Available&lt;/div&gt;&lt;div&gt;&amp;nbsp; &amp;nbsp; &amp;nbsp; - lastTransitionTime: &quot;2024-04-03T03:24:25Z&quot;&lt;/div&gt;&lt;div&gt;&amp;nbsp; &amp;nbsp; &amp;nbsp; &amp;nbsp; message: &quot;&quot;&lt;/div&gt;&lt;div&gt;&amp;nbsp; &amp;nbsp; &amp;nbsp; &amp;nbsp; reason: NoStatusFeedbackSynced&lt;/div&gt;&lt;div&gt;&amp;nbsp; &amp;nbsp; &amp;nbsp; &amp;nbsp; status: &quot;True&quot;&lt;/div&gt;&lt;div&gt;&amp;nbsp; &amp;nbsp; &amp;nbsp; &amp;nbsp; type: StatusFeedbackSynced&lt;/div&gt;&lt;div&gt;&amp;nbsp; &amp;nbsp; &amp;nbsp; resourceMeta:&lt;/div&gt;&lt;div&gt;&amp;nbsp; &amp;nbsp; &amp;nbsp; &amp;nbsp; group: rbac.authorization.k8s.io&lt;/div&gt;&lt;div&gt;&amp;nbsp; &amp;nbsp; &amp;nbsp; &amp;nbsp; kind: ClusterRole&lt;/div&gt;&lt;div&gt;&amp;nbsp; &amp;nbsp; &amp;nbsp; &amp;nbsp; name: open-cluster-management:klusterlet-work-sa:agent:volrepgroup-edit&lt;/div&gt;&lt;div&gt;&amp;nbsp; &amp;nbsp; &amp;nbsp; &amp;nbsp; namespace: &quot;&quot;&lt;/div&gt;&lt;div&gt;&amp;nbsp; &amp;nbsp; &amp;nbsp; &amp;nbsp; ordinal: 0&lt;/div&gt;&lt;div&gt;&amp;nbsp; &amp;nbsp; &amp;nbsp; &amp;nbsp; resource: clusterroles&lt;/div&gt;&lt;div&gt;&amp;nbsp; &amp;nbsp; &amp;nbsp; &amp;nbsp; version: v1&lt;/div&gt;&lt;div&gt;&amp;nbsp; &amp;nbsp; &amp;nbsp; statusFeedback: {}&lt;/div&gt;&lt;div&gt;&amp;nbsp; &amp;nbsp; - conditions:&lt;/div&gt;&lt;div&gt;&amp;nbsp; &amp;nbsp; &amp;nbsp; - lastTransitionTime: &quot;2024-04-03T03:24:24Z&quot;&lt;/div&gt;&lt;div&gt;&amp;nbsp; &amp;nbsp; &amp;nbsp; &amp;nbsp; message: Apply manifest complete&lt;/div&gt;&lt;div&gt;&amp;nbsp; &amp;nbsp; &amp;nbsp; &amp;nbsp; reason: AppliedManifestComplete&lt;/div&gt;&lt;div&gt;&amp;nbsp; &amp;nbsp; &amp;nbsp; &amp;nbsp; status: &quot;True&quot;&lt;/div&gt;&lt;div&gt;&amp;nbsp; &amp;nbsp; &amp;nbsp; &amp;nbsp; type: Applied&lt;/div&gt;&lt;div&gt;&amp;nbsp; &amp;nbsp; &amp;nbsp; - lastTransitionTime: &quot;2024-04-03T03:24:25Z&quot;&lt;/div&gt;&lt;div&gt;&amp;nbsp; &amp;nbsp; &amp;nbsp; &amp;nbsp; message: Resource is available&lt;/div&gt;&lt;div&gt;&amp;nbsp; &amp;nbsp; &amp;nbsp; &amp;nbsp; reason: ResourceAvailable&lt;/div&gt;&lt;div&gt;&amp;nbsp; &amp;nbsp; &amp;nbsp; &amp;nbsp; status: &quot;True&quot;&lt;/div&gt;&lt;div&gt;&amp;nbsp; &amp;nbsp; &amp;nbsp; &amp;nbsp; type: Available&lt;/div&gt;&lt;div&gt;&amp;nbsp; &amp;nbsp; &amp;nbsp; - lastTransitionTime: &quot;2024-04-03T03:24:25Z&quot;&lt;/div&gt;&lt;div&gt;&amp;nbsp; &amp;nbsp; &amp;nbsp; &amp;nbsp; message: &quot;&quot;&lt;/div&gt;&lt;div&gt;&amp;nbsp; &amp;nbsp; &amp;nbsp; &amp;nbsp; reason: NoStatusFeedbackSynced&lt;/div&gt;&lt;div&gt;&amp;nbsp; &amp;nbsp; &amp;nbsp; &amp;nbsp; status: &quot;True&quot;&lt;/div&gt;&lt;div&gt;&amp;nbsp; &amp;nbsp; &amp;nbsp; &amp;nbsp; type: StatusFeedbackSynced&lt;/div&gt;&lt;div&gt;&amp;nbsp; &amp;nbsp; &amp;nbsp; resourceMeta:&lt;/div&gt;&lt;div&gt;&amp;nbsp; &amp;nbsp; &amp;nbsp; &amp;nbsp; group: rbac.authorization.k8s.io&lt;/div&gt;&lt;div&gt;&amp;nbsp; &amp;nbsp; &amp;nbsp; &amp;nbsp; kind: ClusterRoleBinding&lt;/div&gt;&lt;div&gt;&amp;nbsp; &amp;nbsp; &amp;nbsp; &amp;nbsp; name: open-cluster-management:klusterlet-work-sa:agent:volrepgroup-edit&lt;/div&gt;&lt;div&gt;&amp;nbsp; &amp;nbsp; &amp;nbsp; &amp;nbsp; namespace: &quot;&quot;&lt;/div&gt;&lt;div&gt;&amp;nbsp; &amp;nbsp; &amp;nbsp; &amp;nbsp; ordinal: 1&lt;/div&gt;&lt;div&gt;&amp;nbsp; &amp;nbsp; &amp;nbsp; &amp;nbsp; resource: clusterrolebindings&lt;/div&gt;&lt;div&gt;&amp;nbsp; &amp;nbsp; &amp;nbsp; &amp;nbsp; version: v1&lt;/div&gt;&lt;div&gt;&amp;nbsp; &amp;nbsp; &amp;nbsp; statusFeedback: {}&lt;/div&gt;&lt;div&gt;&amp;nbsp; &amp;nbsp; - conditions:&lt;/div&gt;&lt;div&gt;&amp;nbsp; &amp;nbsp; &amp;nbsp; - lastTransitionTime: &quot;2024-04-03T03:24:24Z&quot;&lt;/div&gt;&lt;div&gt;&amp;nbsp; &amp;nbsp; &amp;nbsp; &amp;nbsp; message: Apply manifest complete&lt;/div&gt;&lt;div&gt;&amp;nbsp; &amp;nbsp; &amp;nbsp; &amp;nbsp; reason: AppliedManifestComplete&lt;/div&gt;&lt;div&gt;&amp;nbsp; &amp;nbsp; &amp;nbsp; &amp;nbsp; status: &quot;True&quot;&lt;/div&gt;&lt;div&gt;&amp;nbsp; &amp;nbsp; &amp;nbsp; &amp;nbsp; type: Applied&lt;/div&gt;&lt;div&gt;&amp;nbsp; &amp;nbsp; &amp;nbsp; - lastTransitionTime: &quot;2024-04-03T03:24:25Z&quot;&lt;/div&gt;&lt;div&gt;&amp;nbsp; &amp;nbsp; &amp;nbsp; &amp;nbsp; message: Resource is available&lt;/div&gt;&lt;div&gt;&amp;nbsp; &amp;nbsp; &amp;nbsp; &amp;nbsp; reason: ResourceAvailable&lt;/div&gt;&lt;div&gt;&amp;nbsp; &amp;nbsp; &amp;nbsp; &amp;nbsp; status: &quot;True&quot;&lt;/div&gt;&lt;div&gt;&amp;nbsp; &amp;nbsp; &amp;nbsp; &amp;nbsp; type: Available&lt;/div&gt;&lt;div&gt;&amp;nbsp; &amp;nbsp; &amp;nbsp; - lastTransitionTime: &quot;2024-04-03T03:24:25Z&quot;&lt;/div&gt;&lt;div&gt;&amp;nbsp; &amp;nbsp; &amp;nbsp; &amp;nbsp; message: &quot;&quot;&lt;/div&gt;&lt;div&gt;&amp;nbsp; &amp;nbsp; &amp;nbsp; &amp;nbsp; reason: NoStatusFeedbackSynced&lt;/div&gt;&lt;div&gt;&amp;nbsp; &amp;nbsp; &amp;nbsp; &amp;nbsp; status: &quot;True&quot;&lt;/div&gt;&lt;div&gt;&amp;nbsp; &amp;nbsp; &amp;nbsp; &amp;nbsp; type: StatusFeedbackSynced&lt;/div&gt;&lt;div&gt;&amp;nbsp; &amp;nbsp; &amp;nbsp; resourceMeta:&lt;/div&gt;&lt;div&gt;&amp;nbsp; &amp;nbsp; &amp;nbsp; &amp;nbsp; group: rbac.authorization.k8s.io&lt;/div&gt;&lt;div&gt;&amp;nbsp; &amp;nbsp; &amp;nbsp; &amp;nbsp; kind: ClusterRole&lt;/div&gt;&lt;div&gt;&amp;nbsp; &amp;nbsp; &amp;nbsp; &amp;nbsp; name: open-cluster-management:klusterlet-work-sa:agent:mmode-edit&lt;/div&gt;&lt;div&gt;&amp;nbsp; &amp;nbsp; &amp;nbsp; &amp;nbsp; namespace: &quot;&quot;&lt;/div&gt;&lt;div&gt;&amp;nbsp; &amp;nbsp; &amp;nbsp; &amp;nbsp; ordinal: 2&lt;/div&gt;&lt;div&gt;&amp;nbsp; &amp;nbsp; &amp;nbsp; &amp;nbsp; resource: clusterroles&lt;/div&gt;&lt;div&gt;&amp;nbsp; &amp;nbsp; &amp;nbsp; &amp;nbsp; version: v1&lt;/div&gt;&lt;div&gt;&amp;nbsp; &amp;nbsp; &amp;nbsp; statusFeedback: {}&lt;/div&gt;&lt;div&gt;&amp;nbsp; &amp;nbsp; - conditions:&lt;/div&gt;&lt;div&gt;&amp;nbsp; &amp;nbsp; &amp;nbsp; - lastTransitionTime: &quot;2024-04-03T03:24:24Z&quot;&lt;/div&gt;&lt;div&gt;&amp;nbsp; &amp;nbsp; &amp;nbsp; &amp;nbsp; message: Apply manifest complete&lt;/div&gt;&lt;div&gt;&amp;nbsp; &amp;nbsp; &amp;nbsp; &amp;nbsp; reason: AppliedManifestComplete&lt;/div&gt;&lt;div&gt;&amp;nbsp; &amp;nbsp; &amp;nbsp; &amp;nbsp; status: &quot;True&quot;&lt;/div&gt;&lt;div&gt;&amp;nbsp; &amp;nbsp; &amp;nbsp; &amp;nbsp; type: Applied&lt;/div&gt;&lt;div&gt;&amp;nbsp; &amp;nbsp; &amp;nbsp; - lastTransitionTime: &quot;2024-04-03T03:24:25Z&quot;&lt;/div&gt;&lt;div&gt;&amp;nbsp; &amp;nbsp; &amp;nbsp; &amp;nbsp; message: Resource is available&lt;/div&gt;&lt;div&gt;&amp;nbsp; &amp;nbsp; &amp;nbsp; &amp;nbsp; reason: ResourceAvailable&lt;/div&gt;&lt;div&gt;&amp;nbsp; &amp;nbsp; &amp;nbsp; &amp;nbsp; status: &quot;True&quot;&lt;/div&gt;&lt;div&gt;&amp;nbsp; &amp;nbsp; &amp;nbsp; &amp;nbsp; type: Available&lt;/div&gt;&lt;div&gt;&amp;nbsp; &amp;nbsp; &amp;nbsp; - lastTransitionTime: &quot;2024-04-03T03:24:25Z&quot;&lt;/div&gt;&lt;div&gt;&amp;nbsp; &amp;nbsp; &amp;nbsp; &amp;nbsp; message: &quot;&quot;&lt;/div&gt;&lt;div&gt;&amp;nbsp; &amp;nbsp; &amp;nbsp; &amp;nbsp; reason: NoStatusFeedbackSynced&lt;/div&gt;&lt;div&gt;&amp;nbsp; &amp;nbsp; &amp;nbsp; &amp;nbsp; status: &quot;True&quot;&lt;/div&gt;&lt;div&gt;&amp;nbsp; &amp;nbsp; &amp;nbsp; &amp;nbsp; type: StatusFeedbackSynced&lt;/div&gt;&lt;div&gt;&amp;nbsp; &amp;nbsp; &amp;nbsp; resourceMeta:&lt;/div&gt;&lt;div&gt;&amp;nbsp; &amp;nbsp; &amp;nbsp; &amp;nbsp; group: rbac.authorization.k8s.io&lt;/div&gt;&lt;div&gt;&amp;nbsp; &amp;nbsp; &amp;nbsp; &amp;nbsp; kind: ClusterRoleBinding&lt;/div&gt;&lt;div&gt;&amp;nbsp; &amp;nbsp; &amp;nbsp; &amp;nbsp; name: open-cluster-management:klusterlet-work-sa:agent:mmode-edit&lt;/div&gt;&lt;div&gt;&amp;nbsp; &amp;nbsp; &amp;nbsp; &amp;nbsp; namespace: &quot;&quot;&lt;/div&gt;&lt;div&gt;&amp;nbsp; &amp;nbsp; &amp;nbsp; &amp;nbsp; ordinal: 3&lt;/div&gt;&lt;div&gt;&amp;nbsp; &amp;nbsp; &amp;nbsp; &amp;nbsp; resource: clusterrolebindings&lt;/div&gt;&lt;div&gt;&amp;nbsp; &amp;nbsp; &amp;nbsp; &amp;nbsp; version: v1&lt;/div&gt;&lt;div&gt;&amp;nbsp; &amp;nbsp; &amp;nbsp; statusFeedback: {}&lt;/div&gt;&lt;div&gt;&amp;nbsp; &amp;nbsp; - conditions:&lt;/div&gt;&lt;div&gt;&amp;nbsp; &amp;nbsp; &amp;nbsp; - lastTransitionTime: &quot;2024-04-03T03:24:24Z&quot;&lt;/div&gt;&lt;div&gt;&amp;nbsp; &amp;nbsp; &amp;nbsp; &amp;nbsp; message: Apply manifest complete&lt;/div&gt;&lt;div&gt;&amp;nbsp; &amp;nbsp; &amp;nbsp; &amp;nbsp; reason: AppliedManifestComplete&lt;/div&gt;&lt;div&gt;&amp;nbsp; &amp;nbsp; &amp;nbsp; &amp;nbsp; status: &quot;True&quot;&lt;/div&gt;&lt;div&gt;&amp;nbsp; &amp;nbsp; &amp;nbsp; &amp;nbsp; type: Applied&lt;/div&gt;&lt;div&gt;&amp;nbsp; &amp;nbsp; &amp;nbsp; - lastTransitionTime: &quot;2024-04-03T03:24:25Z&quot;&lt;/div&gt;&lt;div&gt;&amp;nbsp; &amp;nbsp; &amp;nbsp; &amp;nbsp; message: Resource is available&lt;/div&gt;&lt;div&gt;&amp;nbsp; &amp;nbsp; &amp;nbsp; &amp;nbsp; reason: ResourceAvailable&lt;/div&gt;&lt;div&gt;&amp;nbsp; &amp;nbsp; &amp;nbsp; &amp;nbsp; status: &quot;True&quot;&lt;/div&gt;&lt;div&gt;&amp;nbsp; &amp;nbsp; &amp;nbsp; &amp;nbsp; type: Available&lt;/div&gt;&lt;div&gt;&amp;nbsp; &amp;nbsp; &amp;nbsp; - lastTransitionTime: &quot;2024-04-03T03:24:25Z&quot;&lt;/div&gt;&lt;div&gt;&amp;nbsp; &amp;nbsp; &amp;nbsp; &amp;nbsp; message: &quot;&quot;&lt;/div&gt;&lt;div&gt;&amp;nbsp; &amp;nbsp; &amp;nbsp; &amp;nbsp; reason: NoStatusFeedbackSynced&lt;/div&gt;&lt;div&gt;&amp;nbsp; &amp;nbsp; &amp;nbsp; &amp;nbsp; status: &quot;True&quot;&lt;/div&gt;&lt;div&gt;&amp;nbsp; &amp;nbsp; &amp;nbsp; &amp;nbsp; type: StatusFeedbackSynced&lt;/div&gt;&lt;div&gt;&amp;nbsp; &amp;nbsp; &amp;nbsp; resourceMeta:&lt;/div&gt;&lt;div&gt;&amp;nbsp; &amp;nbsp; &amp;nbsp; &amp;nbsp; group: &quot;&quot;&lt;/div&gt;&lt;div&gt;&amp;nbsp; &amp;nbsp; &amp;nbsp; &amp;nbsp; kind: Namespace&lt;/div&gt;&lt;div&gt;&amp;nbsp; &amp;nbsp; &amp;nbsp; &amp;nbsp; name: ramen-system&lt;/div&gt;&lt;div&gt;&amp;nbsp; &amp;nbsp; &amp;nbsp; &amp;nbsp; namespace: &quot;&quot;&lt;/div&gt;&lt;div&gt;&amp;nbsp; &amp;nbsp; &amp;nbsp; &amp;nbsp; ordinal: 4&lt;/div&gt;&lt;div&gt;&amp;nbsp; &amp;nbsp; &amp;nbsp; &amp;nbsp; resource: namespaces&lt;/div&gt;&lt;div&gt;&amp;nbsp; &amp;nbsp; &amp;nbsp; &amp;nbsp; version: v1&lt;/div&gt;&lt;div&gt;&amp;nbsp; &amp;nbsp; &amp;nbsp; statusFeedback: {}&lt;/div&gt;&lt;div&gt;&amp;nbsp; &amp;nbsp; - conditions:&lt;/div&gt;&lt;div&gt;&amp;nbsp; &amp;nbsp; &amp;nbsp; - lastTransitionTime: &quot;2024-04-03T03:24:24Z&quot;&lt;/div&gt;&lt;div&gt;&amp;nbsp; &amp;nbsp; &amp;nbsp; &amp;nbsp; message: Apply manifest complete&lt;/div&gt;&lt;div&gt;&amp;nbsp; &amp;nbsp; &amp;nbsp; &amp;nbsp; reason: AppliedManifestComplete&lt;/div&gt;&lt;div&gt;&amp;nbsp; &amp;nbsp; &amp;nbsp; &amp;nbsp; status: &quot;True&quot;&lt;/div&gt;&lt;div&gt;&amp;nbsp; &amp;nbsp; &amp;nbsp; &amp;nbsp; type: Applied&lt;/div&gt;&lt;div&gt;&amp;nbsp; &amp;nbsp; &amp;nbsp; - lastTransitionTime: &quot;2024-04-03T03:24:25Z&quot;&lt;/div&gt;&lt;div&gt;&amp;nbsp; &amp;nbsp; &amp;nbsp; &amp;nbsp; message: Resource is available&lt;/div&gt;&lt;div&gt;&amp;nbsp; &amp;nbsp; &amp;nbsp; &amp;nbsp; reason: ResourceAvailable&lt;/div&gt;&lt;div&gt;&amp;nbsp; &amp;nbsp; &amp;nbsp; &amp;nbsp; status: &quot;True&quot;&lt;/div&gt;&lt;div&gt;&amp;nbsp; &amp;nbsp; &amp;nbsp; &amp;nbsp; type: Available&lt;/div&gt;&lt;div&gt;&amp;nbsp; &amp;nbsp; &amp;nbsp; - lastTransitionTime: &quot;2024-04-03T03:24:25Z&quot;&lt;/div&gt;&lt;div&gt;&amp;nbsp; &amp;nbsp; &amp;nbsp; &amp;nbsp; message: &quot;&quot;&lt;/div&gt;&lt;div&gt;&amp;nbsp; &amp;nbsp; &amp;nbsp; &amp;nbsp; reason: NoStatusFeedbackSynced&lt;/div&gt;&lt;div&gt;&amp;nbsp; &amp;nbsp; &amp;nbsp; &amp;nbsp; status: &quot;True&quot;&lt;/div&gt;&lt;div&gt;&amp;nbsp; &amp;nbsp; &amp;nbsp; &amp;nbsp; type: StatusFeedbackSynced&lt;/div&gt;&lt;div&gt;&amp;nbsp; &amp;nbsp; &amp;nbsp; resourceMeta:&lt;/div&gt;&lt;div&gt;&amp;nbsp; &amp;nbsp; &amp;nbsp; &amp;nbsp; group: rbac.authorization.k8s.io&lt;/div&gt;&lt;div&gt;&amp;nbsp; &amp;nbsp; &amp;nbsp; &amp;nbsp; kind: ClusterRole&lt;/div&gt;&lt;div&gt;&amp;nbsp; &amp;nbsp; &amp;nbsp; &amp;nbsp; name: open-cluster-management:klusterlet-work-sa:agent:olm-edit&lt;/div&gt;&lt;div&gt;&amp;nbsp; &amp;nbsp; &amp;nbsp; &amp;nbsp; namespace: &quot;&quot;&lt;/div&gt;&lt;div&gt;&amp;nbsp; &amp;nbsp; &amp;nbsp; &amp;nbsp; ordinal: 5&lt;/div&gt;&lt;div&gt;&amp;nbsp; &amp;nbsp; &amp;nbsp; &amp;nbsp; resource: clusterroles&lt;/div&gt;&lt;div&gt;&amp;nbsp; &amp;nbsp; &amp;nbsp; &amp;nbsp; version: v1&lt;/div&gt;&lt;div&gt;&amp;nbsp; &amp;nbsp; &amp;nbsp; statusFeedback: {}&lt;/div&gt;&lt;div&gt;&amp;nbsp; &amp;nbsp; - conditions:&lt;/div&gt;&lt;div&gt;&amp;nbsp; &amp;nbsp; &amp;nbsp; - lastTransitionTime: &quot;2024-04-03T03:24:24Z&quot;&lt;/div&gt;&lt;div&gt;&amp;nbsp; &amp;nbsp; &amp;nbsp; &amp;nbsp; message: Apply manifest complete&lt;/div&gt;&lt;div&gt;&amp;nbsp; &amp;nbsp; &amp;nbsp; &amp;nbsp; reason: AppliedManifestComplete&lt;/div&gt;&lt;div&gt;&amp;nbsp; &amp;nbsp; &amp;nbsp; &amp;nbsp; status: &quot;True&quot;&lt;/div&gt;&lt;div&gt;&amp;nbsp; &amp;nbsp; &amp;nbsp; &amp;nbsp; type: Applied&lt;/div&gt;&lt;div&gt;&amp;nbsp; &amp;nbsp; &amp;nbsp; - lastTransitionTime: &quot;2024-04-03T03:24:25Z&quot;&lt;/div&gt;&lt;div&gt;&amp;nbsp; &amp;nbsp; &amp;nbsp; &amp;nbsp; message: Resource is available&lt;/div&gt;&lt;div&gt;&amp;nbsp; &amp;nbsp; &amp;nbsp; &amp;nbsp; reason: ResourceAvailable&lt;/div&gt;&lt;div&gt;&amp;nbsp; &amp;nbsp; &amp;nbsp; &amp;nbsp; status: &quot;True&quot;&lt;/div&gt;&lt;div&gt;&amp;nbsp; &amp;nbsp; &amp;nbsp; &amp;nbsp; type: Available&lt;/div&gt;&lt;div&gt;&amp;nbsp; &amp;nbsp; &amp;nbsp; - lastTransitionTime: &quot;2024-04-03T03:24:25Z&quot;&lt;/div&gt;&lt;div&gt;&amp;nbsp; &amp;nbsp; &amp;nbsp; &amp;nbsp; message: &quot;&quot;&lt;/div&gt;&lt;div&gt;&amp;nbsp; &amp;nbsp; &amp;nbsp; &amp;nbsp; reason: NoStatusFeedbackSynced&lt;/div&gt;&lt;div&gt;&amp;nbsp; &amp;nbsp; &amp;nbsp; &amp;nbsp; status: &quot;True&quot;&lt;/div&gt;&lt;div&gt;&amp;nbsp; &amp;nbsp; &amp;nbsp; &amp;nbsp; type: StatusFeedbackSynced&lt;/div&gt;&lt;div&gt;&amp;nbsp; &amp;nbsp; &amp;nbsp; resourceMeta:&lt;/div&gt;&lt;div&gt;&amp;nbsp; &amp;nbsp; &amp;nbsp; &amp;nbsp; group: rbac.authorization.k8s.io&lt;/div&gt;&lt;div&gt;&amp;nbsp; &amp;nbsp; &amp;nbsp; &amp;nbsp; kind: RoleBinding&lt;/div&gt;&lt;div&gt;&amp;nbsp; &amp;nbsp; &amp;nbsp; &amp;nbsp; name: open-cluster-management:klusterlet-work-sa:agent:olm-edit&lt;/div&gt;&lt;div&gt;&amp;nbsp; &amp;nbsp; &amp;nbsp; &amp;nbsp; namespace: ramen-system&lt;/div&gt;&lt;div&gt;&amp;nbsp; &amp;nbsp; &amp;nbsp; &amp;nbsp; ordinal: 6&lt;/div&gt;&lt;div&gt;&amp;nbsp; &amp;nbsp; &amp;nbsp; &amp;nbsp; resource: rolebindings&lt;/div&gt;&lt;div&gt;&amp;nbsp; &amp;nbsp; &amp;nbsp; &amp;nbsp; version: v1&lt;/div&gt;&lt;div&gt;&amp;nbsp; &amp;nbsp; &amp;nbsp; statusFeedback: {}&lt;/div&gt;&lt;div&gt;&amp;nbsp; &amp;nbsp; - conditions:&lt;/div&gt;&lt;div&gt;&amp;nbsp; &amp;nbsp; &amp;nbsp; - lastTransitionTime: &quot;2024-04-03T03:24:24Z&quot;&lt;/div&gt;&lt;div&gt;&amp;nbsp; &amp;nbsp; &amp;nbsp; &amp;nbsp; message: Apply manifest complete&lt;/div&gt;&lt;div&gt;&amp;nbsp; &amp;nbsp; &amp;nbsp; &amp;nbsp; reason: AppliedManifestComplete&lt;/div&gt;&lt;div&gt;&amp;nbsp; &amp;nbsp; &amp;nbsp; &amp;nbsp; status: &quot;True&quot;&lt;/div&gt;&lt;div&gt;&amp;nbsp; &amp;nbsp; &amp;nbsp; &amp;nbsp; type: Applied&lt;/div&gt;&lt;div&gt;&amp;nbsp; &amp;nbsp; &amp;nbsp; - lastTransitionTime: &quot;2024-04-03T03:24:26Z&quot;&lt;/div&gt;&lt;div&gt;&amp;nbsp; &amp;nbsp; &amp;nbsp; &amp;nbsp; message: Resource is available&lt;/div&gt;&lt;div&gt;&amp;nbsp; &amp;nbsp; &amp;nbsp; &amp;nbsp; reason: ResourceAvailable&lt;/div&gt;&lt;div&gt;&amp;nbsp; &amp;nbsp; &amp;nbsp; &amp;nbsp; status: &quot;True&quot;&lt;/div&gt;&lt;div&gt;&amp;nbsp; &amp;nbsp; &amp;nbsp; &amp;nbsp; type: Available&lt;/div&gt;&lt;div&gt;&amp;nbsp; &amp;nbsp; &amp;nbsp; - lastTransitionTime: &quot;2024-04-03T03:24:26Z&quot;&lt;/div&gt;&lt;div&gt;&amp;nbsp; &amp;nbsp; &amp;nbsp; &amp;nbsp; message: &quot;&quot;&lt;/div&gt;&lt;div&gt;&amp;nbsp; &amp;nbsp; &amp;nbsp; &amp;nbsp; reason: NoStatusFeedbackSynced&lt;/div&gt;&lt;div&gt;&amp;nbsp; &amp;nbsp; &amp;nbsp; &amp;nbsp; status: &quot;True&quot;&lt;/div&gt;&lt;div&gt;&amp;nbsp; &amp;nbsp; &amp;nbsp; &amp;nbsp; type: StatusFeedbackSynced&lt;/div&gt;&lt;div&gt;&amp;nbsp; &amp;nbsp; &amp;nbsp; resourceMeta:&lt;/div&gt;&lt;div&gt;&amp;nbsp; &amp;nbsp; &amp;nbsp; &amp;nbsp; group: operators.coreos.com&lt;/div&gt;&lt;div&gt;&amp;nbsp; &amp;nbsp; &amp;nbsp; &amp;nbsp; kind: OperatorGroup&lt;/div&gt;&lt;div&gt;&amp;nbsp; &amp;nbsp; &amp;nbsp; &amp;nbsp; name: ramen-operator-group&lt;/div&gt;&lt;div&gt;&amp;nbsp; &amp;nbsp; &amp;nbsp; &amp;nbsp; namespace: ramen-system&lt;/div&gt;&lt;div&gt;&amp;nbsp; &amp;nbsp; &amp;nbsp; &amp;nbsp; ordinal: 7&lt;/div&gt;&lt;div&gt;&amp;nbsp; &amp;nbsp; &amp;nbsp; &amp;nbsp; resource: operatorgroups&lt;/div&gt;&lt;div&gt;&amp;nbsp; &amp;nbsp; &amp;nbsp; &amp;nbsp; version: v1&lt;/div&gt;&lt;div&gt;&amp;nbsp; &amp;nbsp; &amp;nbsp; statusFeedback: {}&lt;/div&gt;&lt;div&gt;&amp;nbsp; &amp;nbsp; - conditions:&lt;/div&gt;&lt;div&gt;&amp;nbsp; &amp;nbsp; &amp;nbsp; - lastTransitionTime: &quot;2024-04-03T03:24:24Z&quot;&lt;/div&gt;&lt;div&gt;&amp;nbsp; &amp;nbsp; &amp;nbsp; &amp;nbsp; message: Apply manifest complete&lt;/div&gt;&lt;div&gt;&amp;nbsp; &amp;nbsp; &amp;nbsp; &amp;nbsp; reason: AppliedManifestComplete&lt;/div&gt;&lt;div&gt;&amp;nbsp; &amp;nbsp; &amp;nbsp; &amp;nbsp; status: &quot;True&quot;&lt;/div&gt;&lt;div&gt;&amp;nbsp; &amp;nbsp; &amp;nbsp; &amp;nbsp; type: Applied&lt;/div&gt;&lt;div&gt;&amp;nbsp; &amp;nbsp; &amp;nbsp; - lastTransitionTime: &quot;2024-04-03T03:24:26Z&quot;&lt;/div&gt;&lt;div&gt;&amp;nbsp; &amp;nbsp; &amp;nbsp; &amp;nbsp; message: Resource is available&lt;/div&gt;&lt;div&gt;&amp;nbsp; &amp;nbsp; &amp;nbsp; &amp;nbsp; reason: ResourceAvailable&lt;/div&gt;&lt;div&gt;&amp;nbsp; &amp;nbsp; &amp;nbsp; &amp;nbsp; status: &quot;True&quot;&lt;/div&gt;&lt;div&gt;&amp;nbsp; &amp;nbsp; &amp;nbsp; &amp;nbsp; type: Available&lt;/div&gt;&lt;div&gt;&amp;nbsp; &amp;nbsp; &amp;nbsp; - lastTransitionTime: &quot;2024-04-03T03:24:26Z&quot;&lt;/div&gt;&lt;div&gt;&amp;nbsp; &amp;nbsp; &amp;nbsp; &amp;nbsp; message: &quot;&quot;&lt;/div&gt;&lt;div&gt;&amp;nbsp; &amp;nbsp; &amp;nbsp; &amp;nbsp; reason: NoStatusFeedbackSynced&lt;/div&gt;&lt;div&gt;&amp;nbsp; &amp;nbsp; &amp;nbsp; &amp;nbsp; status: &quot;True&quot;&lt;/div&gt;&lt;div&gt;&amp;nbsp; &amp;nbsp; &amp;nbsp; &amp;nbsp; type: StatusFeedbackSynced&lt;/div&gt;&lt;div&gt;&amp;nbsp; &amp;nbsp; &amp;nbsp; resourceMeta:&lt;/div&gt;&lt;div&gt;&amp;nbsp; &amp;nbsp; &amp;nbsp; &amp;nbsp; group: &quot;&quot;&lt;/div&gt;&lt;div&gt;&amp;nbsp; &amp;nbsp; &amp;nbsp; &amp;nbsp; kind: ConfigMap&lt;/div&gt;&lt;div&gt;&amp;nbsp; &amp;nbsp; &amp;nbsp; &amp;nbsp; name: ramen-dr-cluster-operator-config&lt;/div&gt;&lt;div&gt;&amp;nbsp; &amp;nbsp; &amp;nbsp; &amp;nbsp; namespace: ramen-system&lt;/div&gt;&lt;div&gt;&amp;nbsp; &amp;nbsp; &amp;nbsp; &amp;nbsp; ordinal: 8&lt;/div&gt;&lt;div&gt;&amp;nbsp; &amp;nbsp; &amp;nbsp; &amp;nbsp; resource: configmaps&lt;/div&gt;&lt;div&gt;&amp;nbsp; &amp;nbsp; &amp;nbsp; &amp;nbsp; version: v1&lt;/div&gt;&lt;div&gt;&amp;nbsp; &amp;nbsp; &amp;nbsp; statusFeedback: {}&lt;/div&gt;&lt;div&gt;&amp;nbsp; &amp;nbsp; - conditions:&lt;/div&gt;&lt;div&gt;&amp;nbsp; &amp;nbsp; &amp;nbsp; - lastTransitionTime: &quot;2024-04-03T03:49:16Z&quot;&lt;/div&gt;&lt;div&gt;&amp;nbsp; &amp;nbsp; &amp;nbsp; &amp;nbsp; message: Apply manifest complete&lt;/div&gt;&lt;div&gt;&amp;nbsp; &amp;nbsp; &amp;nbsp; &amp;nbsp; reason: AppliedManifestComplete&lt;/div&gt;&lt;div&gt;&amp;nbsp; &amp;nbsp; &amp;nbsp; &amp;nbsp; status: &quot;True&quot;&lt;/div&gt;&lt;div&gt;&amp;nbsp; &amp;nbsp; &amp;nbsp; &amp;nbsp; type: Applied&lt;/div&gt;&lt;div&gt;&amp;nbsp; &amp;nbsp; &amp;nbsp; - lastTransitionTime: &quot;2024-04-03T03:24:26Z&quot;&lt;/div&gt;&lt;div&gt;&amp;nbsp; &amp;nbsp; &amp;nbsp; &amp;nbsp; message: Resource is available&lt;/div&gt;&lt;div&gt;&amp;nbsp; &amp;nbsp; &amp;nbsp; &amp;nbsp; reason: ResourceAvailable&lt;/div&gt;&lt;div&gt;&amp;nbsp; &amp;nbsp; &amp;nbsp; &amp;nbsp; status: &quot;True&quot;&lt;/div&gt;&lt;div&gt;&amp;nbsp; &amp;nbsp; &amp;nbsp; &amp;nbsp; type: Available&lt;/div&gt;&lt;div&gt;&amp;nbsp; &amp;nbsp; &amp;nbsp; - lastTransitionTime: &quot;2024-04-03T03:24:26Z&quot;&lt;/div&gt;&lt;div&gt;&amp;nbsp; &amp;nbsp; &amp;nbsp; &amp;nbsp; message: &quot;&quot;&lt;/div&gt;&lt;div&gt;&amp;nbsp; &amp;nbsp; &amp;nbsp; &amp;nbsp; reason: NoStatusFeedbackSynced&lt;/div&gt;&lt;div&gt;&amp;nbsp; &amp;nbsp; &amp;nbsp; &amp;nbsp; status: &quot;True&quot;&lt;/div&gt;&lt;div&gt;&amp;nbsp; &amp;nbsp; &amp;nbsp; &amp;nbsp; type: StatusFeedbackSynced&lt;/div&gt;&lt;div&gt;&amp;nbsp; &amp;nbsp; &amp;nbsp; resourceMeta:&lt;/div&gt;&lt;div&gt;&amp;nbsp; &amp;nbsp; &amp;nbsp; &amp;nbsp; group: operators.coreos.com&lt;/div&gt;&lt;div&gt;&amp;nbsp; &amp;nbsp; &amp;nbsp; &amp;nbsp; kind: Subscription&lt;/div&gt;&lt;div&gt;&amp;nbsp; &amp;nbsp; &amp;nbsp; &amp;nbsp; name: ramen-dr-cluster-subscription&lt;/div&gt;&lt;div&gt;&amp;nbsp; &amp;nbsp; &amp;nbsp; &amp;nbsp; namespace: ramen-system&lt;/div&gt;&lt;div&gt;&amp;nbsp; &amp;nbsp; &amp;nbsp; &amp;nbsp; ordinal: 9&lt;/div&gt;&lt;div&gt;&amp;nbsp; &amp;nbsp; &amp;nbsp; &amp;nbsp; resource: subscriptions&lt;/div&gt;&lt;div&gt;&amp;nbsp; &amp;nbsp; &amp;nbsp; &amp;nbsp; version: v1alpha1&lt;/div&gt;&lt;div&gt;&amp;nbsp; &amp;nbsp; &amp;nbsp; statusFeedback: {}&lt;/div&gt;" style="text;strokeColor=none;fillColor=default;align=left;verticalAlign=middle;spacingLeft=4;spacingRight=4;overflow=hidden;points=[[0,0.5],[1,0.5]];portConstraint=eastwest;rotatable=0;whiteSpace=wrap;html=1;" parent="U8NHltKQ1rlB9dk0PbJg-115" vertex="1">
          <mxGeometry y="30" width="450" height="6490" as="geometry" />
        </mxCell>
        <mxCell id="U8NHltKQ1rlB9dk0PbJg-119" value="" style="endArrow=classic;html=1;rounded=0;exitX=1;exitY=0.75;exitDx=0;exitDy=0;entryX=0;entryY=0.5;entryDx=0;entryDy=0;" parent="1" source="U8NHltKQ1rlB9dk0PbJg-99" target="U8NHltKQ1rlB9dk0PbJg-118" edge="1">
          <mxGeometry width="50" height="50" relative="1" as="geometry">
            <mxPoint x="990" y="563" as="sourcePoint" />
            <mxPoint x="1040" y="513" as="targetPoint" />
            <Array as="points">
              <mxPoint x="750" y="282" />
              <mxPoint x="750" y="413" />
            </Array>
          </mxGeometry>
        </mxCell>
        <mxCell id="U8NHltKQ1rlB9dk0PbJg-120" value="RamenAgent" style="rounded=0;whiteSpace=wrap;html=1;" parent="1" vertex="1">
          <mxGeometry x="850" y="690" width="125" height="40" as="geometry" />
        </mxCell>
        <mxCell id="U8NHltKQ1rlB9dk0PbJg-121" value="Configmap:&amp;nbsp;&lt;div&gt;ramen-dr-cluster-operator-config&lt;/div&gt;" style="swimlane;fontStyle=0;childLayout=stackLayout;horizontal=1;startSize=30;horizontalStack=0;resizeParent=1;resizeParentMax=0;resizeLast=0;collapsible=1;marginBottom=0;whiteSpace=wrap;html=1;" parent="1" vertex="1" collapsed="1">
          <mxGeometry x="35" y="715" width="200" height="30" as="geometry">
            <mxRectangle x="-20" y="1000" width="390" height="850" as="alternateBounds" />
          </mxGeometry>
        </mxCell>
        <mxCell id="U8NHltKQ1rlB9dk0PbJg-122" value="&lt;div&gt;apiVersion: v1&lt;/div&gt;&lt;div&gt;data:&lt;/div&gt;&lt;div&gt;&amp;nbsp; ramen_manager_config.yaml: |&lt;/div&gt;&lt;div&gt;&amp;nbsp; &amp;nbsp; apiVersion: ramendr.openshift.io/v1alpha1&lt;/div&gt;&lt;div&gt;&amp;nbsp; &amp;nbsp; drClusterOperator:&lt;/div&gt;&lt;div&gt;&amp;nbsp; &amp;nbsp; &amp;nbsp; catalogSourceName: ramen-catalog&lt;/div&gt;&lt;div&gt;&amp;nbsp; &amp;nbsp; &amp;nbsp; catalogSourceNamespaceName: ramen-system&lt;/div&gt;&lt;div&gt;&amp;nbsp; &amp;nbsp; &amp;nbsp; channelName: alpha&lt;/div&gt;&lt;div&gt;&amp;nbsp; &amp;nbsp; &amp;nbsp; clusterServiceVersionName: ramen-dr-cluster-operator.v0.0.1&lt;/div&gt;&lt;div&gt;&amp;nbsp; &amp;nbsp; &amp;nbsp; deploymentAutomationEnabled: true&lt;/div&gt;&lt;div&gt;&amp;nbsp; &amp;nbsp; &amp;nbsp; namespaceName: ramen-system&lt;/div&gt;&lt;div&gt;&amp;nbsp; &amp;nbsp; &amp;nbsp; packageName: ramen-dr-cluster-operator&lt;/div&gt;&lt;div&gt;&amp;nbsp; &amp;nbsp; &amp;nbsp; s3SecretDistributionEnabled: true&lt;/div&gt;&lt;div&gt;&amp;nbsp; &amp;nbsp; health:&lt;/div&gt;&lt;div&gt;&amp;nbsp; &amp;nbsp; &amp;nbsp; healthProbeBindAddress: :8081&lt;/div&gt;&lt;div&gt;&amp;nbsp; &amp;nbsp; kind: RamenConfig&lt;/div&gt;&lt;div&gt;&amp;nbsp; &amp;nbsp; kubeObjectProtection:&lt;/div&gt;&lt;div&gt;&amp;nbsp; &amp;nbsp; &amp;nbsp; veleroNamespaceName: velero&lt;/div&gt;&lt;div&gt;&amp;nbsp; &amp;nbsp; leaderElection:&lt;/div&gt;&lt;div&gt;&amp;nbsp; &amp;nbsp; &amp;nbsp; leaderElect: true&lt;/div&gt;&lt;div&gt;&amp;nbsp; &amp;nbsp; &amp;nbsp; leaseDuration: 0s&lt;/div&gt;&lt;div&gt;&amp;nbsp; &amp;nbsp; &amp;nbsp; renewDeadline: 0s&lt;/div&gt;&lt;div&gt;&amp;nbsp; &amp;nbsp; &amp;nbsp; resourceLock: &quot;&quot;&lt;/div&gt;&lt;div&gt;&amp;nbsp; &amp;nbsp; &amp;nbsp; resourceName: dr-cluster.ramendr.openshift.io&lt;/div&gt;&lt;div&gt;&amp;nbsp; &amp;nbsp; &amp;nbsp; resourceNamespace: &quot;&quot;&lt;/div&gt;&lt;div&gt;&amp;nbsp; &amp;nbsp; &amp;nbsp; retryPeriod: 0s&lt;/div&gt;&lt;div&gt;&amp;nbsp; &amp;nbsp; maxConcurrentReconciles: 50&lt;/div&gt;&lt;div&gt;&amp;nbsp; &amp;nbsp; metrics:&lt;/div&gt;&lt;div&gt;&amp;nbsp; &amp;nbsp; &amp;nbsp; bindAddress: 127.0.0.1:9289&lt;/div&gt;&lt;div&gt;&amp;nbsp; &amp;nbsp; multiNamespace: {}&lt;/div&gt;&lt;div&gt;&amp;nbsp; &amp;nbsp; ramenControllerType: dr-cluster&lt;/div&gt;&lt;div&gt;&amp;nbsp; &amp;nbsp; s3StoreProfiles:&lt;/div&gt;&lt;div&gt;&amp;nbsp; &amp;nbsp; - s3Bucket: bucket&lt;/div&gt;&lt;div&gt;&amp;nbsp; &amp;nbsp; &amp;nbsp; s3CompatibleEndpoint: http://192.168.122.116:30000&lt;/div&gt;&lt;div&gt;&amp;nbsp; &amp;nbsp; &amp;nbsp; s3ProfileName: minio-on-dr1&lt;/div&gt;&lt;div&gt;&amp;nbsp; &amp;nbsp; &amp;nbsp; s3Region: us-west-1&lt;/div&gt;&lt;div&gt;&amp;nbsp; &amp;nbsp; &amp;nbsp; s3SecretRef:&lt;/div&gt;&lt;div&gt;&amp;nbsp; &amp;nbsp; &amp;nbsp; &amp;nbsp; name: ramen-s3-secret-dr1&lt;/div&gt;&lt;div&gt;&amp;nbsp; &amp;nbsp; &amp;nbsp; &amp;nbsp; namespace: ramen-system&lt;/div&gt;&lt;div&gt;&amp;nbsp; &amp;nbsp; &amp;nbsp; veleroNamespaceSecretKeyRef:&lt;/div&gt;&lt;div&gt;&amp;nbsp; &amp;nbsp; &amp;nbsp; &amp;nbsp; key: cloud&lt;/div&gt;&lt;div&gt;&amp;nbsp; &amp;nbsp; &amp;nbsp; &amp;nbsp; name: cloud-credentials&lt;/div&gt;&lt;div&gt;&amp;nbsp; &amp;nbsp; - s3Bucket: bucket&lt;/div&gt;&lt;div&gt;&amp;nbsp; &amp;nbsp; &amp;nbsp; s3CompatibleEndpoint: http://192.168.122.147:30000&lt;/div&gt;&lt;div&gt;&amp;nbsp; &amp;nbsp; &amp;nbsp; s3ProfileName: minio-on-dr2&lt;/div&gt;&lt;div&gt;&amp;nbsp; &amp;nbsp; &amp;nbsp; s3Region: us-east-1&lt;/div&gt;&lt;div&gt;&amp;nbsp; &amp;nbsp; &amp;nbsp; s3SecretRef:&lt;/div&gt;&lt;div&gt;&amp;nbsp; &amp;nbsp; &amp;nbsp; &amp;nbsp; name: ramen-s3-secret-dr2&lt;/div&gt;&lt;div&gt;&amp;nbsp; &amp;nbsp; &amp;nbsp; &amp;nbsp; namespace: ramen-system&lt;/div&gt;&lt;div&gt;&amp;nbsp; &amp;nbsp; &amp;nbsp; veleroNamespaceSecretKeyRef:&lt;/div&gt;&lt;div&gt;&amp;nbsp; &amp;nbsp; &amp;nbsp; &amp;nbsp; key: cloud&lt;/div&gt;&lt;div&gt;&amp;nbsp; &amp;nbsp; &amp;nbsp; &amp;nbsp; name: cloud-credentials&lt;/div&gt;&lt;div&gt;&amp;nbsp; &amp;nbsp; volSync: {}&lt;/div&gt;&lt;div&gt;&amp;nbsp; &amp;nbsp; webhook:&lt;/div&gt;&lt;div&gt;&amp;nbsp; &amp;nbsp; &amp;nbsp; port: 9443&lt;/div&gt;&lt;div&gt;kind: ConfigMap&lt;/div&gt;&lt;div&gt;metadata:&lt;/div&gt;&lt;div&gt;&amp;nbsp; annotations:&lt;/div&gt;&lt;div&gt;&amp;nbsp; &amp;nbsp; kubectl.kubernetes.io/last-applied-configuration: |&lt;/div&gt;&lt;div&gt;&amp;nbsp; &amp;nbsp; &amp;nbsp; {&quot;apiVersion&quot;:&quot;v1&quot;,&quot;data&quot;:{&quot;ramen_manager_config.yaml&quot;:&quot;apiVersion: ramendr.openshift.io/v1alpha1\nkind: RamenConfig\nhealth:\n&amp;nbsp; healthProbeBindAddress: :8081\nmetrics:\n&amp;nbsp; bindAddress: 127.0.0.1:9289\nwebhook:\n&amp;nbsp; port: 9443\nleaderElection:\n&amp;nbsp; leaderElect: true\n&amp;nbsp; resourceName: dr-cluster.ramendr.openshift.io\nramenControllerType: dr-cluster\nmaxConcurrentReconciles: 50\nvolSync:\n&amp;nbsp; destinationCopyMethod: Direct\n&quot;},&quot;kind&quot;:&quot;ConfigMap&quot;,&quot;metadata&quot;:{&quot;annotations&quot;:{},&quot;name&quot;:&quot;ramen-dr-cluster-operator-config&quot;,&quot;namespace&quot;:&quot;ramen-system&quot;}}&lt;/div&gt;&lt;div&gt;&amp;nbsp; creationTimestamp: &quot;2024-04-03T03:04:25Z&quot;&lt;/div&gt;&lt;div&gt;&amp;nbsp; name: ramen-dr-cluster-operator-config&lt;/div&gt;&lt;div&gt;&amp;nbsp; namespace: ramen-system&lt;/div&gt;&lt;div&gt;&amp;nbsp; ownerReferences:&lt;/div&gt;&lt;div&gt;&amp;nbsp; - apiVersion: work.open-cluster-management.io/v1&lt;/div&gt;&lt;div&gt;&amp;nbsp; &amp;nbsp; kind: AppliedManifestWork&lt;/div&gt;&lt;div&gt;&amp;nbsp; &amp;nbsp; name: 8b4a44398ddb4f2707e665034e4abba63f5a1d7dec9b2f9dce8c9d4cd1fade06-ramen-dr-cluster&lt;/div&gt;&lt;div&gt;&amp;nbsp; &amp;nbsp; uid: d03cacba-e2a9-44f2-a214-231d30c1759d&lt;/div&gt;&lt;div&gt;&amp;nbsp; resourceVersion: &quot;27702&quot;&lt;/div&gt;&lt;div&gt;&amp;nbsp; uid: 08f98e00-1a90-4201-9d44-dd2812ab4b0f&lt;/div&gt;" style="text;strokeColor=none;fillColor=default;align=left;verticalAlign=middle;spacingLeft=4;spacingRight=4;overflow=hidden;points=[[0,0.5],[1,0.5]];portConstraint=eastwest;rotatable=0;whiteSpace=wrap;html=1;" parent="U8NHltKQ1rlB9dk0PbJg-121" vertex="1">
          <mxGeometry y="30" width="390" height="820" as="geometry" />
        </mxCell>
        <mxCell id="U8NHltKQ1rlB9dk0PbJg-123" value="Configmap:&amp;nbsp;&lt;div&gt;ramen-dr-cluster-operator-config&lt;/div&gt;" style="swimlane;fontStyle=0;childLayout=stackLayout;horizontal=1;startSize=30;horizontalStack=0;resizeParent=1;resizeParentMax=0;resizeLast=0;collapsible=1;marginBottom=0;whiteSpace=wrap;html=1;" parent="1" vertex="1" collapsed="1">
          <mxGeometry x="815" y="745" width="180" height="30" as="geometry">
            <mxRectangle x="650" y="1000" width="390" height="850" as="alternateBounds" />
          </mxGeometry>
        </mxCell>
        <mxCell id="U8NHltKQ1rlB9dk0PbJg-124" value="&lt;div&gt;apiVersion: v1&lt;/div&gt;&lt;div&gt;data:&lt;/div&gt;&lt;div&gt;&amp;nbsp; ramen_manager_config.yaml: |&lt;/div&gt;&lt;div&gt;&amp;nbsp; &amp;nbsp; apiVersion: ramendr.openshift.io/v1alpha1&lt;/div&gt;&lt;div&gt;&amp;nbsp; &amp;nbsp; drClusterOperator:&lt;/div&gt;&lt;div&gt;&amp;nbsp; &amp;nbsp; &amp;nbsp; catalogSourceName: ramen-catalog&lt;/div&gt;&lt;div&gt;&amp;nbsp; &amp;nbsp; &amp;nbsp; catalogSourceNamespaceName: ramen-system&lt;/div&gt;&lt;div&gt;&amp;nbsp; &amp;nbsp; &amp;nbsp; channelName: alpha&lt;/div&gt;&lt;div&gt;&amp;nbsp; &amp;nbsp; &amp;nbsp; clusterServiceVersionName: ramen-dr-cluster-operator.v0.0.1&lt;/div&gt;&lt;div&gt;&amp;nbsp; &amp;nbsp; &amp;nbsp; deploymentAutomationEnabled: true&lt;/div&gt;&lt;div&gt;&amp;nbsp; &amp;nbsp; &amp;nbsp; namespaceName: ramen-system&lt;/div&gt;&lt;div&gt;&amp;nbsp; &amp;nbsp; &amp;nbsp; packageName: ramen-dr-cluster-operator&lt;/div&gt;&lt;div&gt;&amp;nbsp; &amp;nbsp; &amp;nbsp; s3SecretDistributionEnabled: true&lt;/div&gt;&lt;div&gt;&amp;nbsp; &amp;nbsp; health:&lt;/div&gt;&lt;div&gt;&amp;nbsp; &amp;nbsp; &amp;nbsp; healthProbeBindAddress: :8081&lt;/div&gt;&lt;div&gt;&amp;nbsp; &amp;nbsp; kind: RamenConfig&lt;/div&gt;&lt;div&gt;&amp;nbsp; &amp;nbsp; kubeObjectProtection:&lt;/div&gt;&lt;div&gt;&amp;nbsp; &amp;nbsp; &amp;nbsp; veleroNamespaceName: velero&lt;/div&gt;&lt;div&gt;&amp;nbsp; &amp;nbsp; leaderElection:&lt;/div&gt;&lt;div&gt;&amp;nbsp; &amp;nbsp; &amp;nbsp; leaderElect: true&lt;/div&gt;&lt;div&gt;&amp;nbsp; &amp;nbsp; &amp;nbsp; leaseDuration: 0s&lt;/div&gt;&lt;div&gt;&amp;nbsp; &amp;nbsp; &amp;nbsp; renewDeadline: 0s&lt;/div&gt;&lt;div&gt;&amp;nbsp; &amp;nbsp; &amp;nbsp; resourceLock: &quot;&quot;&lt;/div&gt;&lt;div&gt;&amp;nbsp; &amp;nbsp; &amp;nbsp; resourceName: dr-cluster.ramendr.openshift.io&lt;/div&gt;&lt;div&gt;&amp;nbsp; &amp;nbsp; &amp;nbsp; resourceNamespace: &quot;&quot;&lt;/div&gt;&lt;div&gt;&amp;nbsp; &amp;nbsp; &amp;nbsp; retryPeriod: 0s&lt;/div&gt;&lt;div&gt;&amp;nbsp; &amp;nbsp; maxConcurrentReconciles: 50&lt;/div&gt;&lt;div&gt;&amp;nbsp; &amp;nbsp; metrics:&lt;/div&gt;&lt;div&gt;&amp;nbsp; &amp;nbsp; &amp;nbsp; bindAddress: 127.0.0.1:9289&lt;/div&gt;&lt;div&gt;&amp;nbsp; &amp;nbsp; multiNamespace: {}&lt;/div&gt;&lt;div&gt;&amp;nbsp; &amp;nbsp; ramenControllerType: dr-cluster&lt;/div&gt;&lt;div&gt;&amp;nbsp; &amp;nbsp; s3StoreProfiles:&lt;/div&gt;&lt;div&gt;&amp;nbsp; &amp;nbsp; - s3Bucket: bucket&lt;/div&gt;&lt;div&gt;&amp;nbsp; &amp;nbsp; &amp;nbsp; s3CompatibleEndpoint: http://192.168.122.116:30000&lt;/div&gt;&lt;div&gt;&amp;nbsp; &amp;nbsp; &amp;nbsp; s3ProfileName: minio-on-dr1&lt;/div&gt;&lt;div&gt;&amp;nbsp; &amp;nbsp; &amp;nbsp; s3Region: us-west-1&lt;/div&gt;&lt;div&gt;&amp;nbsp; &amp;nbsp; &amp;nbsp; s3SecretRef:&lt;/div&gt;&lt;div&gt;&amp;nbsp; &amp;nbsp; &amp;nbsp; &amp;nbsp; name: ramen-s3-secret-dr1&lt;/div&gt;&lt;div&gt;&amp;nbsp; &amp;nbsp; &amp;nbsp; &amp;nbsp; namespace: ramen-system&lt;/div&gt;&lt;div&gt;&amp;nbsp; &amp;nbsp; &amp;nbsp; veleroNamespaceSecretKeyRef:&lt;/div&gt;&lt;div&gt;&amp;nbsp; &amp;nbsp; &amp;nbsp; &amp;nbsp; key: cloud&lt;/div&gt;&lt;div&gt;&amp;nbsp; &amp;nbsp; &amp;nbsp; &amp;nbsp; name: cloud-credentials&lt;/div&gt;&lt;div&gt;&amp;nbsp; &amp;nbsp; - s3Bucket: bucket&lt;/div&gt;&lt;div&gt;&amp;nbsp; &amp;nbsp; &amp;nbsp; s3CompatibleEndpoint: http://192.168.122.147:30000&lt;/div&gt;&lt;div&gt;&amp;nbsp; &amp;nbsp; &amp;nbsp; s3ProfileName: minio-on-dr2&lt;/div&gt;&lt;div&gt;&amp;nbsp; &amp;nbsp; &amp;nbsp; s3Region: us-east-1&lt;/div&gt;&lt;div&gt;&amp;nbsp; &amp;nbsp; &amp;nbsp; s3SecretRef:&lt;/div&gt;&lt;div&gt;&amp;nbsp; &amp;nbsp; &amp;nbsp; &amp;nbsp; name: ramen-s3-secret-dr2&lt;/div&gt;&lt;div&gt;&amp;nbsp; &amp;nbsp; &amp;nbsp; &amp;nbsp; namespace: ramen-system&lt;/div&gt;&lt;div&gt;&amp;nbsp; &amp;nbsp; &amp;nbsp; veleroNamespaceSecretKeyRef:&lt;/div&gt;&lt;div&gt;&amp;nbsp; &amp;nbsp; &amp;nbsp; &amp;nbsp; key: cloud&lt;/div&gt;&lt;div&gt;&amp;nbsp; &amp;nbsp; &amp;nbsp; &amp;nbsp; name: cloud-credentials&lt;/div&gt;&lt;div&gt;&amp;nbsp; &amp;nbsp; volSync: {}&lt;/div&gt;&lt;div&gt;&amp;nbsp; &amp;nbsp; webhook:&lt;/div&gt;&lt;div&gt;&amp;nbsp; &amp;nbsp; &amp;nbsp; port: 9443&lt;/div&gt;&lt;div&gt;kind: ConfigMap&lt;/div&gt;&lt;div&gt;metadata:&lt;/div&gt;&lt;div&gt;&amp;nbsp; annotations:&lt;/div&gt;&lt;div&gt;&amp;nbsp; &amp;nbsp; kubectl.kubernetes.io/last-applied-configuration: |&lt;/div&gt;&lt;div&gt;&amp;nbsp; &amp;nbsp; &amp;nbsp; {&quot;apiVersion&quot;:&quot;v1&quot;,&quot;data&quot;:{&quot;ramen_manager_config.yaml&quot;:&quot;apiVersion: ramendr.openshift.io/v1alpha1\nkind: RamenConfig\nhealth:\n&amp;nbsp; healthProbeBindAddress: :8081\nmetrics:\n&amp;nbsp; bindAddress: 127.0.0.1:9289\nwebhook:\n&amp;nbsp; port: 9443\nleaderElection:\n&amp;nbsp; leaderElect: true\n&amp;nbsp; resourceName: dr-cluster.ramendr.openshift.io\nramenControllerType: dr-cluster\nmaxConcurrentReconciles: 50\nvolSync:\n&amp;nbsp; destinationCopyMethod: Direct\n&quot;},&quot;kind&quot;:&quot;ConfigMap&quot;,&quot;metadata&quot;:{&quot;annotations&quot;:{},&quot;name&quot;:&quot;ramen-dr-cluster-operator-config&quot;,&quot;namespace&quot;:&quot;ramen-system&quot;}}&lt;/div&gt;&lt;div&gt;&amp;nbsp; creationTimestamp: &quot;2024-04-03T03:04:37Z&quot;&lt;/div&gt;&lt;div&gt;&amp;nbsp; name: ramen-dr-cluster-operator-config&lt;/div&gt;&lt;div&gt;&amp;nbsp; namespace: ramen-system&lt;/div&gt;&lt;div&gt;&amp;nbsp; ownerReferences:&lt;/div&gt;&lt;div&gt;&amp;nbsp; - apiVersion: work.open-cluster-management.io/v1&lt;/div&gt;&lt;div&gt;&amp;nbsp; &amp;nbsp; kind: AppliedManifestWork&lt;/div&gt;&lt;div&gt;&amp;nbsp; &amp;nbsp; name: 8b4a44398ddb4f2707e665034e4abba63f5a1d7dec9b2f9dce8c9d4cd1fade06-ramen-dr-cluster&lt;/div&gt;&lt;div&gt;&amp;nbsp; &amp;nbsp; uid: 5a732ebf-6f8e-4ba7-96fb-647577efff49&lt;/div&gt;&lt;div&gt;&amp;nbsp; resourceVersion: &quot;26992&quot;&lt;/div&gt;&lt;div&gt;&amp;nbsp; uid: e5426fab-d9fa-439f-a352-e5834daeb7f7&lt;/div&gt;" style="text;strokeColor=none;fillColor=default;align=left;verticalAlign=middle;spacingLeft=4;spacingRight=4;overflow=hidden;points=[[0,0.5],[1,0.5]];portConstraint=eastwest;rotatable=0;whiteSpace=wrap;html=1;" parent="U8NHltKQ1rlB9dk0PbJg-123" vertex="1">
          <mxGeometry y="30" width="390" height="820" as="geometry" />
        </mxCell>
        <mxCell id="U8NHltKQ1rlB9dk0PbJg-125" value="RamenAgent" style="rounded=0;whiteSpace=wrap;html=1;" parent="1" vertex="1">
          <mxGeometry x="70" y="662" width="125" height="40" as="geometry" />
        </mxCell>
        <mxCell id="U8NHltKQ1rlB9dk0PbJg-126" value="Deploy RamenAgent Objects&amp;nbsp;&lt;div&gt;based on MW for DRClusters&lt;/div&gt;" style="text;html=1;align=center;verticalAlign=middle;resizable=0;points=[];autosize=1;strokeColor=none;fillColor=none;" parent="1" vertex="1">
          <mxGeometry x="770" y="347" width="180" height="40" as="geometry" />
        </mxCell>
        <mxCell id="U8NHltKQ1rlB9dk0PbJg-2" value="" style="endArrow=none;dashed=1;html=1;rounded=0;strokeColor=#6666FF;strokeWidth=3;" parent="1" edge="1">
          <mxGeometry width="50" height="50" relative="1" as="geometry">
            <mxPoint x="10" y="613" as="sourcePoint" />
            <mxPoint x="1070" y="613" as="targetPoint" />
          </mxGeometry>
        </mxCell>
        <mxCell id="U8NHltKQ1rlB9dk0PbJg-128" value="volsync MCA in dr1" style="swimlane;fontStyle=0;childLayout=stackLayout;horizontal=1;startSize=30;horizontalStack=0;resizeParent=1;resizeParentMax=0;resizeLast=0;collapsible=1;marginBottom=0;whiteSpace=wrap;html=1;" parent="1" vertex="1" collapsed="1">
          <mxGeometry x="946" y="202" width="190" height="30" as="geometry">
            <mxRectangle x="1056" y="300" width="450" height="290" as="alternateBounds" />
          </mxGeometry>
        </mxCell>
        <mxCell id="U8NHltKQ1rlB9dk0PbJg-129" value="&lt;div&gt;apiVersion: addon.open-cluster-management.io/v1alpha1&lt;/div&gt;&lt;div&gt;kind: ManagedClusterAddOn&lt;/div&gt;&lt;div&gt;metadata:&lt;/div&gt;&lt;div&gt;&amp;nbsp; creationTimestamp: &quot;2024-04-03T03:24:15Z&quot;&lt;/div&gt;&lt;div&gt;&amp;nbsp; generation: 1&lt;/div&gt;&lt;div&gt;&amp;nbsp; name: volsync&lt;/div&gt;&lt;div&gt;&amp;nbsp; namespace: dr1&lt;/div&gt;&lt;div&gt;&amp;nbsp; resourceVersion: &quot;16218&quot;&lt;/div&gt;&lt;div&gt;&amp;nbsp; uid: 61fb05cb-4e0b-427e-b48c-5065cde07c36&lt;/div&gt;&lt;div&gt;spec:&lt;/div&gt;&lt;div&gt;&amp;nbsp; installNamespace: open-cluster-management-agent-addon&lt;/div&gt;&lt;div&gt;status:&lt;/div&gt;&lt;div&gt;&amp;nbsp; conditions:&lt;/div&gt;&lt;div&gt;&amp;nbsp; - lastTransitionTime: &quot;2024-04-03T03:24:33Z&quot;&lt;/div&gt;&lt;div&gt;&amp;nbsp; &amp;nbsp; message: The status of volsync add-on is unknown.&lt;/div&gt;&lt;div&gt;&amp;nbsp; &amp;nbsp; reason: ManagedClusterAddOnLeaseNotFound&lt;/div&gt;&lt;div&gt;&amp;nbsp; &amp;nbsp; status: Unknown&lt;/div&gt;&lt;div&gt;&amp;nbsp; &amp;nbsp; type: Available&lt;/div&gt;" style="text;strokeColor=none;fillColor=default;align=left;verticalAlign=middle;spacingLeft=4;spacingRight=4;overflow=hidden;points=[[0,0.5],[1,0.5]];portConstraint=eastwest;rotatable=0;whiteSpace=wrap;html=1;" parent="U8NHltKQ1rlB9dk0PbJg-128" vertex="1">
          <mxGeometry y="30" width="450" height="260" as="geometry" />
        </mxCell>
        <mxCell id="U8NHltKQ1rlB9dk0PbJg-132" value="volsync MCA in dr2" style="swimlane;fontStyle=0;childLayout=stackLayout;horizontal=1;startSize=30;horizontalStack=0;resizeParent=1;resizeParentMax=0;resizeLast=0;collapsible=1;marginBottom=0;whiteSpace=wrap;html=1;" parent="1" vertex="1" collapsed="1">
          <mxGeometry x="946" y="247" width="190" height="30" as="geometry">
            <mxRectangle x="1056" y="345" width="450" height="310" as="alternateBounds" />
          </mxGeometry>
        </mxCell>
        <mxCell id="U8NHltKQ1rlB9dk0PbJg-133" value="&lt;div&gt;apiVersion: addon.open-cluster-management.io/v1alpha1&lt;/div&gt;&lt;div&gt;kind: ManagedClusterAddOn&lt;/div&gt;&lt;div&gt;metadata:&lt;/div&gt;&lt;div&gt;&amp;nbsp; creationTimestamp: &quot;2024-04-03T03:24:16Z&quot;&lt;/div&gt;&lt;div&gt;&amp;nbsp; generation: 1&lt;/div&gt;&lt;div&gt;&amp;nbsp; name: volsync&lt;/div&gt;&lt;div&gt;&amp;nbsp; namespace: dr2&lt;/div&gt;&lt;div&gt;&amp;nbsp; resourceVersion: &quot;16208&quot;&lt;/div&gt;&lt;div&gt;&amp;nbsp; uid: d48b6bdc-e859-4d44-9aef-9711428620f3&lt;/div&gt;&lt;div&gt;spec:&lt;/div&gt;&lt;div&gt;&amp;nbsp; installNamespace: open-cluster-management-agent-addon&lt;/div&gt;&lt;div&gt;status:&lt;/div&gt;&lt;div&gt;&amp;nbsp; conditions:&lt;/div&gt;&lt;div&gt;&amp;nbsp; - lastTransitionTime: &quot;2024-04-03T03:24:30Z&quot;&lt;/div&gt;&lt;div&gt;&amp;nbsp; &amp;nbsp; message: The status of volsync add-on is unknown.&lt;/div&gt;&lt;div&gt;&amp;nbsp; &amp;nbsp; reason: ManagedClusterAddOnLeaseNotFound&lt;/div&gt;&lt;div&gt;&amp;nbsp; &amp;nbsp; status: Unknown&lt;/div&gt;&lt;div&gt;&amp;nbsp; &amp;nbsp; type: Available&lt;/div&gt;" style="text;strokeColor=none;fillColor=default;align=left;verticalAlign=middle;spacingLeft=4;spacingRight=4;overflow=hidden;points=[[0,0.5],[1,0.5]];portConstraint=eastwest;rotatable=0;whiteSpace=wrap;html=1;" parent="U8NHltKQ1rlB9dk0PbJg-132" vertex="1">
          <mxGeometry y="30" width="450" height="280" as="geometry" />
        </mxCell>
        <mxCell id="U8NHltKQ1rlB9dk0PbJg-135" value="" style="endArrow=classic;html=1;rounded=0;exitX=1;exitY=0.25;exitDx=0;exitDy=0;" parent="1" source="U8NHltKQ1rlB9dk0PbJg-99" edge="1">
          <mxGeometry width="50" height="50" relative="1" as="geometry">
            <mxPoint x="886" y="283" as="sourcePoint" />
            <mxPoint x="936" y="233" as="targetPoint" />
            <Array as="points">
              <mxPoint x="750" y="257" />
              <mxPoint x="750" y="233" />
            </Array>
          </mxGeometry>
        </mxCell>
        <mxCell id="U8NHltKQ1rlB9dk0PbJg-136" value="Deploy volsync&amp;nbsp;&lt;span style=&quot;background-color: initial;&quot;&gt;based&amp;nbsp;&lt;/span&gt;&lt;div&gt;on MCA for DRClusters&lt;/div&gt;" style="text;html=1;align=center;verticalAlign=middle;resizable=0;points=[];autosize=1;strokeColor=none;fillColor=none;" parent="1" vertex="1">
          <mxGeometry x="770" y="233" width="150" height="40" as="geometry" />
        </mxCell>
        <mxCell id="U8NHltKQ1rlB9dk0PbJg-137" value="" style="endArrow=classic;html=1;rounded=0;entryX=0;entryY=0.5;entryDx=0;entryDy=0;" parent="1" edge="1">
          <mxGeometry width="50" height="50" relative="1" as="geometry">
            <mxPoint x="440" y="683" as="sourcePoint" />
            <mxPoint x="645" y="776.5" as="targetPoint" />
            <Array as="points">
              <mxPoint x="440" y="776" />
            </Array>
          </mxGeometry>
        </mxCell>
        <mxCell id="U8NHltKQ1rlB9dk0PbJg-138" value="" style="endArrow=classic;html=1;rounded=0;entryX=1;entryY=0.5;entryDx=0;entryDy=0;" parent="1" target="U8NHltKQ1rlB9dk0PbJg-64" edge="1">
          <mxGeometry width="50" height="50" relative="1" as="geometry">
            <mxPoint x="440" y="777" as="sourcePoint" />
            <mxPoint x="520" y="402" as="targetPoint" />
          </mxGeometry>
        </mxCell>
        <mxCell id="U8NHltKQ1rlB9dk0PbJg-139" value="Volsync" style="rounded=0;whiteSpace=wrap;html=1;" parent="1" vertex="1">
          <mxGeometry x="70.5" y="854" width="125" height="40" as="geometry" />
        </mxCell>
        <mxCell id="U8NHltKQ1rlB9dk0PbJg-140" value="Volsync" style="rounded=0;whiteSpace=wrap;html=1;" parent="1" vertex="1">
          <mxGeometry x="658.5" y="864" width="125" height="40" as="geometry" />
        </mxCell>
        <mxCell id="U8NHltKQ1rlB9dk0PbJg-141" value="" style="endArrow=classic;html=1;rounded=0;entryX=1;entryY=0.5;entryDx=0;entryDy=0;exitX=0.995;exitY=0.411;exitDx=0;exitDy=0;exitPerimeter=0;" parent="1" source="U8NHltKQ1rlB9dk0PbJg-134" target="U8NHltKQ1rlB9dk0PbJg-140" edge="1">
          <mxGeometry width="50" height="50" relative="1" as="geometry">
            <mxPoint x="1201" y="471" as="sourcePoint" />
            <mxPoint x="1170" y="853" as="targetPoint" />
            <Array as="points">
              <mxPoint x="1200" y="232" />
              <mxPoint x="1200" y="884" />
            </Array>
          </mxGeometry>
        </mxCell>
        <mxCell id="U8NHltKQ1rlB9dk0PbJg-142" value="" style="endArrow=classic;html=1;rounded=0;entryX=0.5;entryY=1;entryDx=0;entryDy=0;" parent="1" target="U8NHltKQ1rlB9dk0PbJg-139" edge="1">
          <mxGeometry width="50" height="50" relative="1" as="geometry">
            <mxPoint x="1200" y="884" as="sourcePoint" />
            <mxPoint x="520" y="664" as="targetPoint" />
            <Array as="points">
              <mxPoint x="1200" y="913" />
              <mxPoint x="133" y="913" />
            </Array>
          </mxGeometry>
        </mxCell>
        <mxCell id="U8NHltKQ1rlB9dk0PbJg-145" value="3" style="ellipse;whiteSpace=wrap;html=1;aspect=fixed;fillColor=#3333FF;strokeColor=#3333FF;fontColor=#ffffff;" parent="1" vertex="1">
          <mxGeometry x="483" y="357.5" width="20" height="20" as="geometry" />
        </mxCell>
        <mxCell id="U8NHltKQ1rlB9dk0PbJg-146" value="2" style="ellipse;whiteSpace=wrap;html=1;aspect=fixed;fillColor=#3333FF;strokeColor=#3333FF;fontColor=#ffffff;" parent="1" vertex="1">
          <mxGeometry x="756" y="239" width="20" height="20" as="geometry" />
        </mxCell>
        <mxCell id="U8NHltKQ1rlB9dk0PbJg-147" value="" style="endArrow=classic;html=1;rounded=0;exitX=0.5;exitY=1;exitDx=0;exitDy=0;entryX=1;entryY=0.5;entryDx=0;entryDy=0;jumpStyle=arc;" parent="1" source="U8NHltKQ1rlB9dk0PbJg-99" target="U8NHltKQ1rlB9dk0PbJg-13" edge="1">
          <mxGeometry width="50" height="50" relative="1" as="geometry">
            <mxPoint x="700" y="453" as="sourcePoint" />
            <mxPoint x="750" y="403" as="targetPoint" />
            <Array as="points">
              <mxPoint x="603" y="353" />
            </Array>
          </mxGeometry>
        </mxCell>
        <mxCell id="U8NHltKQ1rlB9dk0PbJg-148" value="" style="endArrow=classic;html=1;rounded=0;entryX=1;entryY=0.5;entryDx=0;entryDy=0;" parent="1" target="U8NHltKQ1rlB9dk0PbJg-17" edge="1">
          <mxGeometry width="50" height="50" relative="1" as="geometry">
            <mxPoint x="410" y="353" as="sourcePoint" />
            <mxPoint x="750" y="403" as="targetPoint" />
            <Array as="points">
              <mxPoint x="410" y="413" />
            </Array>
          </mxGeometry>
        </mxCell>
        <mxCell id="U8NHltKQ1rlB9dk0PbJg-149" value="Validate CIDR in DRCluster Spec" style="text;html=1;align=center;verticalAlign=middle;resizable=0;points=[];autosize=1;strokeColor=none;fillColor=none;" parent="1" vertex="1">
          <mxGeometry x="495" y="353.5" width="200" height="30" as="geometry" />
        </mxCell>
        <mxCell id="U8NHltKQ1rlB9dk0PbJg-154" value="Handle Fence" style="text;html=1;align=left;verticalAlign=middle;resizable=0;points=[];autosize=1;strokeColor=none;fillColor=none;" parent="1" vertex="1">
          <mxGeometry x="561" y="195" width="100" height="30" as="geometry" />
        </mxCell>
        <mxCell id="U8NHltKQ1rlB9dk0PbJg-155" value="5" style="ellipse;whiteSpace=wrap;html=1;aspect=fixed;fillColor=#3333FF;strokeColor=#3333FF;fontColor=#ffffff;" parent="1" vertex="1">
          <mxGeometry x="538.5" y="224" width="20" height="20" as="geometry" />
        </mxCell>
        <mxCell id="U8NHltKQ1rlB9dk0PbJg-156" value="4" style="ellipse;whiteSpace=wrap;html=1;aspect=fixed;fillColor=#3333FF;strokeColor=#3333FF;fontColor=#ffffff;" parent="1" vertex="1">
          <mxGeometry x="538.5" y="199" width="20" height="20" as="geometry" />
        </mxCell>
        <mxCell id="U8NHltKQ1rlB9dk0PbJg-157" value="Handle MMode" style="text;html=1;align=left;verticalAlign=middle;resizable=0;points=[];autosize=1;strokeColor=none;fillColor=none;" parent="1" vertex="1">
          <mxGeometry x="561" y="219" width="100" height="30" as="geometry" />
        </mxCell>
        <mxCell id="U8NHltKQ1rlB9dk0PbJg-158" value="Validate S3Profile in DRCluster Spec" style="text;html=1;align=center;verticalAlign=middle;resizable=0;points=[];autosize=1;strokeColor=none;fillColor=none;" parent="1" vertex="1">
          <mxGeometry x="495" y="380" width="220" height="30" as="geometry" />
        </mxCell>
        <mxCell id="U8NHltKQ1rlB9dk0PbJg-159" value="6" style="ellipse;whiteSpace=wrap;html=1;aspect=fixed;fillColor=#3333FF;strokeColor=#3333FF;fontColor=#ffffff;" parent="1" vertex="1">
          <mxGeometry x="484" y="384.5" width="20" height="20" as="geometry" />
        </mxCell>
      </root>
    </mxGraphModel>
  </diagram>
</mxfile>
